<?xml version="1.0" encoding="UTF-8"?>
<svg version="1.1" xmlns="http://www.w3.org/2000/svg" width="500" height="500">
<path d="M0 0 C0.92554688 0.2784375 1.85109375 0.556875 2.8046875 0.84375 C19.3817602 6.29117332 32.51199002 18.12678484 40.375 33.58203125 C41.179375 35.27392578 41.179375 35.27392578 42 37 C42.45375 37.95261719 42.9075 38.90523437 43.375 39.88671875 C48.46803172 52.56624563 47.35667349 67.08333187 42.54296875 79.63671875 C38.2056611 89.09095138 32.15728746 96.518119 25 104 C25.825 104.969375 26.65 105.93875 27.5 106.9375 C28.04914063 107.5871875 28.59828125 108.236875 29.1640625 108.90625 C30.36667905 110.27774462 31.61126624 111.61378174 32.8984375 112.90625 C41.28766004 121.52758542 48.11594798 133.83467551 49 146 C49.11988281 147.48693359 49.11988281 147.48693359 49.2421875 149.00390625 C49.95348644 166.38888922 42.44937811 181.35096279 31 194 C19.52678892 205.83174893 3.13075794 213.73915826 -13.453125 214.30078125 C-15.38532223 214.32028003 -17.31773698 214.32372383 -19.25 214.3125 C-20.26924561 214.30686035 -21.28849121 214.3012207 -22.33862305 214.29541016 C-29.9348398 214.17313461 -36.74386735 213.33358635 -44 211 C-45.40612844 210.5816225 -46.81238805 210.16368566 -48.21875 209.74609375 C-67.65235855 203.79191353 -83.60786673 193.75639622 -100 182 C-100.99 182.66 -101.98 183.32 -103 184 C-105.19921875 184.3359375 -105.19921875 184.3359375 -107.6875 184.375 C-108.49574219 184.40335938 -109.30398437 184.43171875 -110.13671875 184.4609375 C-117.56193879 183.26560876 -122.69408699 178.91238854 -127.75 173.625 C-128.30042969 173.07328125 -128.85085937 172.5215625 -129.41796875 171.953125 C-132.76110445 168.53783529 -135.38969969 165.01954219 -138 161 C-139.58125389 159.08501414 -141.18640133 157.18955563 -142.8125 155.3125 C-151.62197693 144.91222016 -158.73658898 133.35031782 -162 120 C-169.84255405 120.29952868 -169.84255405 120.29952868 -177 123 C-177.474375 124.010625 -177.94875 125.02125 -178.4375 126.0625 C-180 129 -180 129 -183.0625 130 C-184.031875 130 -185.00125 130 -186 130 C-188 128 -188 128 -188.375 125.5625 C-188 123 -188 123 -186.36328125 121.5078125 C-178.85753885 116.71902479 -170.84903029 114.25008218 -162 115 C-161.96261719 114.35933594 -161.92523438 113.71867187 -161.88671875 113.05859375 C-161.45955289 107.43843115 -160.55236012 103.10472025 -158 98 C-157.65324219 97.28328125 -157.30648437 96.5665625 -156.94921875 95.828125 C-154.20977509 90.20977509 -154.20977509 90.20977509 -153 89 C-150.5625 88.75 -150.5625 88.75 -148 89 C-146 92 -146 92 -145.9375 94.4375 C-147.3201887 97.77221981 -149.18174585 98.09087292 -152.28125 99.640625 C-155.72637715 102.36540739 -156.17387403 106.87572497 -157 111 C-157.18820313 111.92941406 -157.37640625 112.85882813 -157.5703125 113.81640625 C-157.71210938 114.53699219 -157.85390625 115.25757813 -158 116 C-157.0925 116.04125 -156.185 116.0825 -155.25 116.125 C-140.63267095 118.27634077 -126.25587325 131.15128479 -116.53125 141.57421875 C-114.97098362 143.1320164 -114.97098362 143.1320164 -112.66015625 144.36328125 C-105.93409169 148.50163815 -98.71376803 155.59991337 -95.46484375 162.90625 C-94.87929158 165.54369506 -95.14251091 167.81345939 -95.375 170.5 C-95.4835535 173.92651484 -95.44263764 175.43104117 -93.31640625 178.1640625 C-90.65666767 180.35649069 -87.92891714 182.18117861 -85 184 C-84.43764648 184.36335449 -83.87529297 184.72670898 -83.29589844 185.10107422 C-60.38055861 199.90451 -32.37475424 211.77694995 -4.6628418 205.87011719 C2.86274638 204.04168867 9.50389149 201.2421396 16 197 C16.71542969 196.53722656 17.43085938 196.07445312 18.16796875 195.59765625 C29.80329141 187.47318531 38.12655945 174.72738219 41.5625 160.9375 C43.50406907 146.8492854 40.23031846 134.77592882 32.1875 123.25 C28.0846954 117.87283942 23.52858455 112.86747277 18.26953125 108.59375 C17 107 17 107 16.56640625 104.55859375 C17.13876299 101.18117334 18.36413385 100.28395283 20.9375 98.0625 C31.77174544 87.77509345 38.98960822 74.65772351 39.5 59.5625 C39.00355305 43.86837075 32.24637194 30.05169446 20.859375 19.3203125 C7.01701329 8.08757636 -9.52788733 2.90234851 -27.34765625 4.25390625 C-53.17562038 7.73738622 -79.48736909 20.48736909 -98 39 C-97.73237546 40.67847133 -97.38614165 42.34477086 -97 44 C-96.10917238 56.72855613 -96.10917238 56.72855613 -100 62 C-103.92752819 66.40649504 -107.80549035 68.91722291 -113.671875 69.875 C-119.53373374 70.18973067 -124.23310723 68.94994958 -128.875 65.3125 C-133.41546741 60.94058823 -135.12761378 56.29758215 -135.5 50.0625 C-135.28662014 43.3867587 -132.22585129 39.16877818 -127.5625 34.625 C-122.35720695 31.32408246 -117.09047706 30.13515226 -111 31 C-109 32 -107 33 -105 34 C-101.30680124 32.72729091 -98.70514517 30.11243404 -95.8125 27.5625 C-70.40330146 5.93883463 -33.39590179 -10.55565288 0 0 Z M-126.3125 42 C-128.61723825 44.73154162 -128.97854149 46.77253979 -129.3125 50.3125 C-128.87586366 55.46480883 -126.78510678 58.27439678 -123.125 61.8125 C-120.28463735 63.39976148 -118.26522497 63.87195196 -115 64 C-109.88600566 62.41289831 -106.6625823 60.71072253 -104 56 C-102.87884037 51.74732555 -102.47470703 48.31323244 -104.125 44.1875 C-107.2938111 40.49055372 -109.66689562 38.36357392 -114.4375 37.0625 C-119.60437359 36.97185309 -122.46634345 38.67359434 -126.3125 42 Z M-157 120 C-155.00881459 130.35416413 -149.79046378 140.90053115 -143 149 C-142.34 149 -141.68 149 -141 149 C-140.73960937 149.57363281 -140.47921875 150.14726562 -140.2109375 150.73828125 C-138.90661413 153.1744207 -137.42471842 155.09306786 -135.625 157.1875 C-135.03976563 157.88230469 -134.45453125 158.57710937 -133.8515625 159.29296875 C-131.80105371 161.18341673 -130.6365355 161.34476633 -128 162 C-126.32421875 163.63671875 -126.32421875 163.63671875 -124.6875 165.6875 C-118.50869124 173.2848904 -118.50869124 173.2848904 -109.8125 177.125 C-106.06504086 177.29499835 -106.06504086 177.29499835 -103.4375 175.5625 C-101.80042272 172.6442318 -101.47240797 170.58857188 -102.05859375 167.28125 C-104.09874655 162.33747725 -108.30255068 158.75423609 -112 155 C-114.42384417 152.28647689 -116.64997043 149.62396576 -118.4375 146.4375 C-120.11238051 143.8246864 -122.04754098 142.14985806 -124.4765625 140.2421875 C-126 139 -126 139 -128.25 136.625 C-135.92445713 129.29938183 -146.46761638 122.14640993 -157 120 Z " fill="#5623CC" transform="translate(192,174)"/>
<path d="M0 0 C1.32 0 2.64 0 4 0 C5.43452099 7.34981278 6.50135754 14.66045842 7.25390625 22.109375 C7.35968491 23.12042297 7.46546356 24.13147095 7.57444763 25.17315674 C7.90774392 28.36504266 8.23541458 31.55747221 8.5625 34.75 C8.89416887 37.95669526 9.22704504 41.16325947 9.56126404 44.36968994 C9.76777311 46.35401025 9.97266576 48.33849968 10.17567444 50.32318115 C10.26924728 51.22812317 10.36282013 52.13306519 10.45922852 53.06542969 C10.58008568 54.24477081 10.58008568 54.24477081 10.7033844 55.44793701 C11.07434651 58.63967293 11.54558189 61.81907321 12 65 C13.32 59.06 14.64 53.12 16 47 C16.99 47 17.98 47 19 47 C19.67154933 48.28913487 20.33708859 49.58140204 21 50.875 C21.37125 51.59429687 21.7425 52.31359375 22.125 53.0546875 C23 55 23 55 23 57 C76.79 57 130.58 57 186 57 C186.33 58.32 186.66 59.64 187 61 C165.26045583 61.04666667 143.52091988 61.08196262 121.78133583 61.10362434 C111.68786574 61.11394841 101.59442672 61.12803028 91.50097656 61.15087891 C82.70621101 61.17077825 73.91146795 61.1837082 65.1166805 61.18817699 C60.45748509 61.19079025 55.79835406 61.19695586 51.13917923 61.21146011 C46.75784754 61.2249895 42.37660702 61.22923211 37.99525642 61.22621536 C36.38353417 61.22676762 34.771809 61.23077263 33.16010475 61.23841095 C30.96678111 61.24829974 28.77380585 61.24599138 26.58047485 61.24050903 C24.73596709 61.24327441 24.73596709 61.24327441 22.85419655 61.24609566 C20 61 20 61 18 59 C17.88406494 59.74685059 17.76812988 60.49370117 17.64868164 61.26318359 C17.12339923 64.6343364 16.59301539 68.00466692 16.0625 71.375 C15.88009766 72.550625 15.69769531 73.72625 15.50976562 74.9375 C15.33251953 76.05898437 15.15527344 77.18046875 14.97265625 78.3359375 C14.81031494 79.37282715 14.64797363 80.4097168 14.48071289 81.47802734 C14 84 14 84 13 86 C12.01 86 11.02 86 10 86 C7.9130743 78.78571375 7.20974155 71.58622443 6.5 64.125 C6.244021 61.5403119 5.98751076 58.95567635 5.73046875 56.37109375 C5.60720215 55.1166748 5.48393555 53.86225586 5.35693359 52.56982422 C4.63730227 45.37252654 3.81305314 38.18721894 3 31 C1.25085734 43.47484994 0.29541943 55.93324947 -0.5 68.5 C-1.29541943 81.06675053 -2.25085734 93.52515006 -4 106 C-4.99 106 -5.98 106 -7 106 C-9.22776508 99.41272912 -9.80898835 92.76992947 -10.5 85.875 C-11.42093136 76.8680889 -12.54048598 67.9367451 -14 59 C-14.66 60.98 -15.32 62.96 -16 65 C-17.32 65 -18.64 65 -20 65 C-21.32 59.72 -22.64 54.44 -24 49 C-25.65 58.24 -27.3 67.48 -29 77 C-30.98 77.495 -30.98 77.495 -33 78 C-34.17133058 75.54379149 -35.33721722 73.08525083 -36.5 70.625 C-36.83386719 69.92632812 -37.16773438 69.22765625 -37.51171875 68.5078125 C-40 63.2265625 -40 63.2265625 -40 61 C-51.88 61 -63.76 61 -76 61 C-76 59.68 -76 58.36 -76 57 C-56.695 57.495 -56.695 57.495 -37 58 C-35.68 60.97 -34.36 63.94 -33 67 C-30.69816367 61.09573821 -29.90988619 54.97622948 -28.9375 48.75 C-28.59536962 46.57766284 -28.25045909 44.40576112 -27.90234375 42.234375 C-27.67792603 40.79916504 -27.67792603 40.79916504 -27.44897461 39.33496094 C-27 37 -27 37 -26 35 C-24.68 35.33 -23.36 35.66 -22 36 C-20.68 41.61 -19.36 47.22 -18 53 C-16.68 50.03 -15.36 47.06 -14 44 C-13.01 44.33 -12.02 44.66 -11 45 C-10.91959473 45.56807373 -10.83918945 46.13614746 -10.75634766 46.72143555 C-9.23016986 57.49067727 -7.68556374 68.25439301 -6 79 C-5.95101562 78.07300293 -5.90203125 77.14600586 -5.8515625 76.19091797 C-5.18033547 63.9564038 -4.24043304 51.74623048 -3.27050781 39.53222656 C-2.99882243 36.11016778 -2.72967824 32.68791617 -2.4609375 29.265625 C-2.28660532 27.05467591 -2.11213115 24.843738 -1.9375 22.6328125 C-1.81870483 21.12462448 -1.81870483 21.12462448 -1.69750977 19.58596802 C-1.17789548 13.05282703 -0.60702264 6.52559311 0 0 Z " fill="#5022C9" transform="translate(298,107)"/>
<path d="M0 0 C8.59734964 7.66285511 12.15604764 19.03226913 13.10253906 30.26220703 C14.68270992 59.75376069 6.89372781 92.9734664 -13.125 115.5625 C-15.625 118.25 -15.625 118.25 -18.125 120.5625 C-18.65867187 121.06652344 -19.19234375 121.57054687 -19.7421875 122.08984375 C-25.54643009 127.36525535 -32.05867401 130.8159705 -40.125 130.5625 C-45.74014251 129.42442254 -49.88575806 127.47459786 -54.125 123.5625 C-55.85546875 120.86328125 -55.85546875 120.86328125 -57.3125 117.875 C-57.80105469 116.90175781 -58.28960937 115.92851562 -58.79296875 114.92578125 C-68.1882277 91.2034412 -60.78093361 59.84511422 -51.30859375 37.0859375 C-46.45211193 25.97557285 -40.76918844 15.98917981 -30.125 9.5625 C-29.3 9.27375 -28.475 8.985 -27.625 8.6875 C-24.93143286 7.47539479 -23.75440276 6.25857538 -21.75 4.125 C-15.11499089 -2.73929668 -8.47771261 -3.8997478 0 0 Z M-19.125 7.5625 C-19.125 8.2225 -19.125 8.8825 -19.125 9.5625 C-18.3 10.036875 -17.475 10.51125 -16.625 11 C-15.8 11.515625 -14.975 12.03125 -14.125 12.5625 C-14.125 13.5525 -14.125 14.5425 -14.125 15.5625 C-18.58 14.5725 -18.58 14.5725 -23.125 13.5625 C-38.01443012 39.06460904 -42.23109278 74.43539008 -41.125 103.5625 C-42.445 103.2325 -43.765 102.9025 -45.125 102.5625 C-43.48433357 73.09052873 -40.8808488 42.9761389 -29.125 15.5625 C-39.91391232 20.39405639 -45.02809232 33.44417773 -49.01367188 43.89208984 C-52.82596298 54.57398866 -55.42061519 65.35680582 -57.125 76.5625 C-57.25648438 77.39910156 -57.38796875 78.23570312 -57.5234375 79.09765625 C-59.28394246 92.20628099 -59.39079364 107.81816275 -51.45703125 119.01171875 C-48.72201107 122.19589181 -45.53273314 125.25778688 -41.2421875 125.80078125 C-32.73680616 126.08231826 -27.70705824 123.08890931 -21.25 117.75 C-10.70024862 107.83226137 -4.15265267 94.968482 0.875 81.5625 C1.11589355 80.92231934 1.35678711 80.28213867 1.60498047 79.62255859 C9.06747684 59.22368754 12.52041644 35.28361049 4.73828125 14.53125 C2.15684295 8.99377983 -0.54567323 5.35216339 -6.125 2.5625 C-11.6951023 1.78527642 -15.2133778 3.74346057 -19.125 7.5625 Z " fill="#5221C9" transform="translate(369.125,247.4375)"/>
<path d="M0 0 C0.99 0.33 1.98 0.66 3 1 C2.855625 1.6290625 2.71125 2.258125 2.5625 2.90625 C1.36985553 8.40566619 0.7917285 13.37666943 1 19 C4.70605319 15.50164156 7.52199492 11.99149936 10.3125 7.6875 C11.00988281 6.61886719 11.70726562 5.55023438 12.42578125 4.44921875 C12.94527344 3.64097656 13.46476562 2.83273437 14 2 C15.32 2.33 16.64 2.66 18 3 C17.34 9.6 16.68 16.2 16 23 C17.959375 21.47375 19.91875 19.9475 21.9375 18.375 C25.94974701 15.28458752 29.97375651 12.21493966 34.125 9.3125 C35.14980469 8.59513672 35.14980469 8.59513672 36.1953125 7.86328125 C38 7 38 7 41 8 C40.39417344 11.57541635 40.04614499 11.96228882 37.0078125 14.4453125 C35.72100866 15.34926561 34.42635324 16.24212114 33.125 17.125 C30.35986047 19.01451201 27.67134049 20.97999694 25 23 C24.06679932 23.66185303 23.13359863 24.32370605 22.17211914 25.00561523 C13.82078706 31.56594041 11.98111715 37.46508473 10.5222168 47.51351929 C10.06559085 50.64982511 9.50803123 53.76571181 8.95584106 56.8863678 C8.68199904 58.43852722 8.41296431 59.99154295 8.14889526 61.5453949 C6.00267907 74.10047942 2.42139314 86.21747895 -2.5625 97.9375 C-2.83126953 98.57067139 -3.10003906 99.20384277 -3.37695312 99.85620117 C-5.62075695 104.80454192 -8.45339608 109.79036314 -13.5 112.1875 C-16 112 -16 112 -18.75 109.8125 C-23.33105103 104.08618621 -22.50381658 97.03903738 -22 90 C-19.08424932 69.38935001 -9.31993275 51.69696256 4 36 C9.2655676 29.72396256 10.16644861 23.91873823 11 16 C10.63648438 16.5053125 10.27296875 17.010625 9.8984375 17.53125 C5.80022415 22.82740263 5.80022415 22.82740263 1.8125 23.6875 C-1 23 -1 23 -2.65234375 21.2890625 C-5.0906587 17.14746087 -4.50574307 12.65677708 -4 8 C-3.1618021 5.08916729 -2.18950075 2.18950075 0 0 Z M7 39 C-6.39043427 55.37916037 -17.22851275 74.57058779 -17.125 96.1875 C-17.12886719 97.00669922 -17.13273438 97.82589844 -17.13671875 98.66992188 C-17.25228997 102.97018773 -17.25228997 102.97018773 -16 107 C-10.38481174 104.61070059 -8.26555181 99.97295829 -5.94970703 94.53271484 C-4.91737249 91.77002046 -3.97418793 88.99231803 -3.0625 86.1875 C-2.55481079 84.64751343 -2.55481079 84.64751343 -2.03686523 83.07641602 C2.52071048 68.79844453 6.14134954 53.89056746 8 39 C7.67 39 7.34 39 7 39 Z " fill="#541FD1" transform="translate(262,302)"/>
<path d="M0 0 C1.2684375 0.12375 1.2684375 0.12375 2.5625 0.25 C4.5625 3.25 4.5625 3.25 4.625 5.6875 C3.2423113 9.02221981 1.38075415 9.34087292 -1.71875 10.890625 C-5.16387715 13.61540739 -5.61137403 18.12572497 -6.4375 22.25 C-6.62570313 23.17941406 -6.81390625 24.10882813 -7.0078125 25.06640625 C-7.22050781 26.14728516 -7.22050781 26.14728516 -7.4375 27.25 C-6.53 27.29125 -5.6225 27.3325 -4.6875 27.375 C10.15859007 29.56000922 24.09312502 42.55228403 34.15625 52.88671875 C35.72235133 54.48720372 35.72235133 54.48720372 38.5625 56.25 C37.5725 56.25 36.5825 56.25 35.5625 56.25 C35.0675 57.24 35.0675 57.24 34.5625 58.25 C34.8925 58.58 35.2225 58.91 35.5625 59.25 C35.5625 60.24 35.5625 61.23 35.5625 62.25 C36.8825 61.92 38.2025 61.59 39.5625 61.25 C41.6875 65.875 41.6875 65.875 40.5625 69.25 C34.02663588 63.19761076 34.02663588 63.19761076 32.0625 59.1875 C30.26516567 55.66772027 28.08031352 53.92831601 24.98828125 51.546875 C24.51777344 51.11890625 24.04726562 50.6909375 23.5625 50.25 C23.5625 49.59 23.5625 48.93 23.5625 48.25 C22.9953125 47.98703125 22.428125 47.7240625 21.84375 47.453125 C19.39144556 46.15978636 17.29056278 44.64876646 15.0625 43 C5.56764963 36.07758502 5.56764963 36.07758502 -5.4375 33.25 C-2.56425771 41.81447221 0.73727273 48.5586015 5.98828125 55.88671875 C7.5625 58.25 7.5625 58.25 7.5625 60.25 C8.2225 60.25 8.8825 60.25 9.5625 60.25 C11.87779012 62.97012474 14.01283543 65.8061284 16.17578125 68.6484375 C18.59511432 71.28555015 20.17492755 72.25471323 23.5625 73.25 C20.5625 74.25 20.5625 74.25 17.5625 74.25 C18.2225 75.57 18.8825 76.89 19.5625 78.25 C22.5325 77.755 22.5325 77.755 25.5625 77.25 C25.2325 78.013125 24.9025 78.77625 24.5625 79.5625 C23.38813314 82.24069135 23.38813314 82.24069135 23.5625 85.25 C22.47259937 84.2152067 21.39094537 83.17172639 20.3125 82.125 C19.70921875 81.54492188 19.1059375 80.96484375 18.484375 80.3671875 C16.19050358 77.84019906 14.44913004 75.09242749 12.5625 72.25 C10.98124611 70.33501414 9.37609867 68.43955563 7.75 66.5625 C-1.05947693 56.16222016 -8.17408898 44.60031782 -11.4375 31.25 C-19.28005405 31.54952868 -19.28005405 31.54952868 -26.4375 34.25 C-26.911875 35.260625 -27.38625 36.27125 -27.875 37.3125 C-29.4375 40.25 -29.4375 40.25 -32.5 41.25 C-33.469375 41.25 -34.43875 41.25 -35.4375 41.25 C-37.4375 39.25 -37.4375 39.25 -37.8125 36.8125 C-37.4375 34.25 -37.4375 34.25 -35.80078125 32.7578125 C-28.29503885 27.96902479 -20.28653029 25.50008218 -11.4375 26.25 C-11.40011719 25.60933594 -11.36273437 24.96867187 -11.32421875 24.30859375 C-10.89705289 18.68843115 -9.98986012 14.35472025 -7.4375 9.25 C-7.09074219 8.53328125 -6.74398437 7.8165625 -6.38671875 7.078125 C-3.09003517 0.31692668 -3.09003517 0.31692668 0 0 Z " fill="#5323C9" transform="translate(41.4375,262.75)"/>
<path d="M0 0 C1.32 0.33 2.64 0.66 4 1 C3.67 3.97 3.34 6.94 3 10 C3.99 9.01 4.98 8.02 6 7 C8.5 6.625 8.5 6.625 11 7 C14.17072298 9.4217333 15.24118397 12.55216511 16.6875 16.1875 C17.12449219 17.27417969 17.56148438 18.36085938 18.01171875 19.48046875 C18.33785156 20.31191406 18.66398437 21.14335937 19 22 C24.08599524 20.10410445 26.10914181 15.77552725 29 11.43359375 C31.13175264 8.8396838 31.82075966 8.49115613 35 8 C35.9590625 6.9790625 35.9590625 6.9790625 36.9375 5.9375 C39 4 39 4 41.625 3.625 C44 4 44 4 46 6 C46.26991906 8.68839385 46.08737357 11.29141936 46 14 C44.68 14 43.36 14 42 14 C41.505 13.01 41.505 13.01 41 12 C41.33 11.01 41.66 10.02 42 9 C41.34 9 40.68 9 40 9 C37.13633697 15.75006285 35.51191382 21.67870729 36 29 C36.66 29.99 37.32 30.98 38 32 C43.30483105 31.67849509 46.55489943 28.75588699 50 25 C52.72600638 21.47814971 55.24854898 17.81695366 57.765625 14.14453125 C59.41991372 11.81638017 60.88809695 9.88562772 63 8 C63.99 8.99 64.98 9.98 66 11 C52.0037998 34.26699519 52.0037998 34.26699519 41.4375 37.875 C38.33865929 38.03391491 36.68834195 37.5564085 34 36 C29.98059287 31.54994211 30.28983212 25.70669443 30 20 C29.63648438 20.49371094 29.27296875 20.98742187 28.8984375 21.49609375 C26.41363946 24.66261843 24.72028104 26.70600774 20.9375 28.25 C18 28 18 28 15.375 26.1875 C12.31485457 22.08046271 10.67229749 17.8113587 9 13 C8.34 13 7.68 13 7 13 C6.20335937 14.61068359 6.20335937 14.61068359 5.390625 16.25390625 C4.67719255 17.69015842 3.96364471 19.12635328 3.25 20.5625 C2.90195312 21.26697266 2.55390625 21.97144531 2.1953125 22.69726562 C-0.05837608 27.22551026 -2.45092412 31.6309758 -5 36 C-5.99 35.67 -6.98 35.34 -8 35 C-8.42581053 28.42770704 -6.84736762 22.68767762 -5.125 16.375 C-4.72087891 14.83972656 -4.72087891 14.83972656 -4.30859375 13.2734375 C-3.0937007 8.72203329 -1.81661306 4.3530162 0 0 Z " fill="#511BD3" transform="translate(396,301)"/>
<path d="M0 0 C2 3 2 3 3 7 C56.79 7 110.58 7 166 7 C166.33 8.32 166.66 9.64 167 11 C145.24317719 11.02332684 123.48635643 11.04097812 101.72952366 11.05181217 C91.62819057 11.05697559 81.52686523 11.06401915 71.42553711 11.07543945 C62.62455536 11.0853849 53.82357922 11.09185309 45.02259201 11.09408849 C40.35953733 11.09539584 35.69649872 11.09848318 31.03344917 11.10573006 C26.64967634 11.11248809 22.26592629 11.11461741 17.88214874 11.11310768 C16.26839766 11.11338411 14.65464587 11.11539052 13.04089928 11.11920547 C10.8473111 11.12413934 8.6538103 11.12299944 6.46022034 11.12025452 C4.61432989 11.12163721 4.61432989 11.12163721 2.73114872 11.12304783 C0 11 0 11 -1 10 C-1.23880597 2.47761194 -1.23880597 2.47761194 0 0 Z " fill="#34178D" transform="translate(318,157)"/>
<path d="M0 0 C2.28062828 3.42094242 2.21925007 4.68187222 2.125 8.6875 C2.10695313 9.68136719 2.08890625 10.67523438 2.0703125 11.69921875 C2.04710937 12.45847656 2.02390625 13.21773438 2 14 C7.60421324 12.23024845 11.24531881 10.31870301 15.45703125 6.20703125 C17 5 17 5 20 5 C20 8.16094386 19.65409046 10.27247379 17.50390625 12.6640625 C12.89669662 16.42769853 8.99728941 17.58801022 3.18359375 18.4375 C-0.02268056 19.26344544 -1.07839979 21.41577903 -3 24 C-6.4375 25.125 -6.4375 25.125 -10 25 C-13.56074449 22.52296036 -14.76865913 20.78077544 -16 16.625 C-16 11.61572088 -14.58375778 7.96385965 -11.4375 4.0625 C-10 3 -10 3 -8 3 C-7.67 2.01 -7.34 1.02 -7 0 C-4.27584084 -1.36207958 -2.87220643 -0.86166193 0 0 Z M-4 4 C-4.76956136 6.34533951 -4.76956136 6.34533951 -5 9 C-3.66621425 10.8354799 -3.66621425 10.8354799 -2 12 C-2 9.69 -2 7.38 -2 5 C-2.66 4.67 -3.32 4.34 -4 4 Z M-10 9 C-11.49297212 11.98594424 -11.11755228 14.70853624 -11 18 C-10.67 18.66 -10.34 19.32 -10 20 C-8.35 20 -6.7 20 -5 20 C-4.34 18.68 -3.68 17.36 -3 16 C-3.78375 15.21625 -4.5675 14.4325 -5.375 13.625 C-6.91666667 12.08333333 -8.45833333 10.54166667 -10 9 Z " fill="#4F21C9" transform="translate(476,305)"/>
<path d="M0 0 C0 0.99 0 1.98 0 3 C-31.35 3 -62.7 3 -95 3 C-95 2.01 -95 1.02 -95 0 C-82.90891585 -0.15364199 -70.81777845 -0.3018238 -58.72654152 -0.4429636 C-53.11257886 -0.50866795 -47.49865245 -0.57627922 -41.88476562 -0.64819336 C-36.47078373 -0.71747747 -31.05676393 -0.78182456 -25.64268112 -0.84269524 C-23.57332591 -0.86683913 -21.50399096 -0.89278593 -19.43468094 -0.92053413 C-16.54453959 -0.95898633 -13.65439375 -0.99112587 -10.76416016 -1.02172852 C-9.90173203 -1.03467453 -9.03930389 -1.04762054 -8.15074158 -1.06095886 C-2.22810432 -1.11405216 -2.22810432 -1.11405216 0 0 Z " fill="#4122AD" transform="translate(485,165)"/>
<path d="M0 0 C0.33 1.98 0.66 3.96 1 6 C2.98 6 4.96 6 7 6 C7.75 8.75 7.75 8.75 8 12 C6.15858081 14.34939689 4.6600106 15.6699947 2 17 C0.1478437 17.09584979 -1.70787153 17.12983606 -3.5625 17.125 C-4.55378906 17.12757813 -5.54507813 17.13015625 -6.56640625 17.1328125 C-9 17 -9 17 -10 16 C-10.58086073 10.06851826 -10.49411213 5.04705086 -7 0 C-3.86650268 -1.04449911 -3.01031744 -0.93423645 0 0 Z " fill="#531DD3" transform="translate(78,215)"/>
<path d="M0 0 C0.99 0.33 1.98 0.66 3 1 C2.37101063 5.98532316 0.90155998 10.24427344 -0.9375 14.875 C-4.26679989 23.28330483 -6.24803358 30.93709905 -6.625 40 C-6.66367188 40.77472656 -6.70234375 41.54945313 -6.7421875 42.34765625 C-6.83521357 44.23143415 -6.91863175 46.11568256 -7 48 C-7.33 48 -7.66 48 -8 48 C-8.06058594 47.21753906 -8.12117187 46.43507813 -8.18359375 45.62890625 C-8.26738281 44.61699219 -8.35117188 43.60507812 -8.4375 42.5625 C-8.51871094 41.55316406 -8.59992188 40.54382813 -8.68359375 39.50390625 C-8.73211468 37.06359221 -8.73211468 37.06359221 -10 36 C-10.33 39.63 -10.66 43.26 -11 47 C-11.33 47 -11.66 47 -12 47 C-13.04223383 30.35320966 -8.31979547 15.75486331 -1 1 C-0.67 0.67 -0.34 0.34 0 0 Z " fill="#5629C8" transform="translate(252,358)"/>
<path d="M0 0 C0.99 0.99 1.98 1.98 3 3 C-10.9962002 26.26699519 -10.9962002 26.26699519 -21.5625 29.875 C-24.55582136 30.02850366 -26.36299822 29.39175094 -29 28 C-29.33 27.34 -29.66 26.68 -30 26 C-25.05 26.99 -25.05 26.99 -20 28 C-20 27.34 -20 26.68 -20 26 C-21.98 26 -23.96 26 -26 26 C-26 25.01 -26 24.02 -26 23 C-25.25105469 23.21785156 -24.50210937 23.43570312 -23.73046875 23.66015625 C-21.06161156 24.24815207 -21.06161156 24.24815207 -19.11328125 23.05859375 C-13.53235358 18.03454823 -9.40880114 12.27772949 -5.19921875 6.109375 C-3.55895304 3.79027819 -2.10034954 1.87604037 0 0 Z " fill="#5425CD" transform="translate(459,309)"/>
<path d="M0 0 C19.305 0.495 19.305 0.495 39 1 C43 10 43 10 42 13 C40.99406757 11.8803014 39.9954151 10.7540588 39 9.625 C38.443125 8.99851563 37.88625 8.37203125 37.3125 7.7265625 C36 6 36 6 36 4 C24.12 4 12.24 4 0 4 C0 2.68 0 1.36 0 0 Z " fill="#4D26B4" transform="translate(222,164)"/>
<path d="M0 0 C0.99 0.66 1.98 1.32 3 2 C2.37645954 8.44325145 1.34134715 14.67051813 0 21 C-0.33512333 22.66630767 -0.66894074 24.33288013 -1 26 C-1.66 26 -2.32 26 -3 26 C-3.12375 27.134375 -3.2475 28.26875 -3.375 29.4375 C-3.58125 30.613125 -3.7875 31.78875 -4 33 C-4.99 33.495 -4.99 33.495 -6 34 C-8.02558881 30.65060119 -8.21738987 28.13037449 -8.125 24.25 C-8.09792969 22.77273437 -8.09792969 22.77273437 -8.0703125 21.265625 C-8.03550781 20.14414063 -8.03550781 20.14414063 -8 19 C-7.01 19 -6.02 19 -5 19 C-4.72285156 17.71222656 -4.44570313 16.42445313 -4.16015625 15.09765625 C-3.79446528 13.41922846 -3.42856928 11.74084532 -3.0625 10.0625 C-2.88009766 9.21236328 -2.69769531 8.36222656 -2.50976562 7.48632812 C-2.33251953 6.67744141 -2.15527344 5.86855469 -1.97265625 5.03515625 C-1.81031494 4.2862915 -1.64797363 3.53742676 -1.48071289 2.76586914 C-1 1 -1 1 0 0 Z " fill="#5823CD" transform="translate(315,153)"/>
<path d="M0 0 C15.04936967 2.42731769 27.03107804 13.02626155 36 25 C41 32.89340102 41 32.89340102 41 36 C40.34 36 39.68 36 39 36 C36.37834975 32.47715747 34.58311405 29.07086469 33 25 C32.34 24.34 31.68 23.68 31 23 C30.03696489 21.85811551 29.07909583 20.71186415 28.125 19.5625 C25.94352298 16.99605645 23.84006856 14.85696791 21 13 C22.3937282 17.43458973 24.60582235 19.87378374 28 23 C27.67 23.66 27.34 24.32 27 25 C26.443125 24.40832031 25.88625 23.81664062 25.3125 23.20703125 C20.52515883 18.24986886 16.00466488 14.38444748 10 11 C12.07553648 10.4465236 13.84365964 10 16 10 C16 9.34 16 8.68 16 8 C15.113125 7.731875 14.22625 7.46375 13.3125 7.1875 C10.20992561 6.07525635 7.79249376 4.7184577 5 3 C3.34630643 2.30177383 1.68272986 1.62501395 0 1 C0 0.67 0 0.34 0 0 Z " fill="#5226BE" transform="translate(192,175)"/>
<path d="M0 0 C0.33 0.66 0.66 1.32 1 2 C2.92563771 2.7304143 4.8532038 3.45641325 6.79296875 4.1484375 C10.14550041 5.44198069 12.9870761 7.03237623 16 9 C16.495 10.485 16.495 10.485 17 12 C8.97613274 11.59200675 2.37635358 9.08963187 -5 6 C-5 5.34 -5 4.68 -5 4 C-8.63 3.67 -12.26 3.34 -16 3 C-15.67 2.34 -15.34 1.68 -15 1 C-14.34 1 -13.68 1 -13 1 C-13 0.34 -13 -0.32 -13 -1 C-8.07317325 -2.20166506 -4.74755815 -1.76869813 0 0 Z " fill="#5A19E3" transform="translate(192,174)"/>
<path d="M0 0 C0.33 0.99 0.66 1.98 1 3 C1.99 3.33 2.98 3.66 4 4 C6.73113794 8.54584754 6.26088515 13.56212629 6.1875 18.6875 C6.18685547 19.55439453 6.18621094 20.42128906 6.18554688 21.31445312 C6.14069283 27.71861434 6.14069283 27.71861434 5 30 C4.34 30 3.68 30 3 30 C3 31.32 3 32.64 3 34 C2.01 33.67 1.02 33.34 0 33 C0.33 24.09 0.66 15.18 1 6 C0.34 6 -0.32 6 -1 6 C-1.042721 4.33388095 -1.04063832 2.66617115 -1 1 C-0.67 0.67 -0.34 0.34 0 0 Z " fill="#5A1FDB" transform="translate(232,214)"/>
<path d="M0 0 C0.99 0 1.98 0 3 0 C3.05399736 1.45792884 3.09279177 2.91642712 3.125 4.375 C3.14820313 5.18710937 3.17140625 5.99921875 3.1953125 6.8359375 C3 9 3 9 1 11 C0.34 9.68 -0.32 8.36 -1 7 C-1.31751221 7.46374023 -1.63502441 7.92748047 -1.9621582 8.40527344 C-3.41136587 10.52080475 -4.8619201 12.63540938 -6.3125 14.75 C-6.81201172 15.47960937 -7.31152344 16.20921875 -7.82617188 16.9609375 C-8.31279297 17.66992188 -8.79941406 18.37890625 -9.30078125 19.109375 C-9.74591064 19.75874023 -10.19104004 20.40810547 -10.6496582 21.07714844 C-12.05895536 23.0839509 -13.51903314 25.04565605 -15 27 C-15 26.01 -15 25.02 -15 24 C-15.66 24 -16.32 24 -17 24 C-16.50528716 18.99578935 -14.12461764 15.82136815 -11.25 11.875 C-10.81945312 11.25496094 -10.38890625 10.63492187 -9.9453125 9.99609375 C-7.31810826 6.33845911 -5.03554669 4.15887638 -1 2 C-0.67 1.34 -0.34 0.68 0 0 Z " fill="#4C1DC8" transform="translate(270,335)"/>
<path d="M0 0 C5.68577793 1.83101323 8.98163235 3.40757982 13 8 C13.5775 8.495 14.155 8.99 14.75 9.5 C16.44395709 11.5327485 16.65107359 13.41794457 17 16 C18.65 16 20.3 16 22 16 C21.34 17.32 20.68 18.64 20 20 C17.03820059 20.4231142 14.88338416 20.59721746 12.3359375 18.875 C8.88993485 15.61572656 7.09360909 12.70251907 6 8 C6 7.67 6 7.34 6 7 C5.38125 6.95875 4.7625 6.9175 4.125 6.875 C3.42375 6.58625 2.7225 6.2975 2 6 C0.75 2.9375 0.75 2.9375 0 0 Z " fill="#5C2ACF" transform="translate(58,335)"/>
<path d="M0 0 C2.35588546 3.53382819 3.11608131 6.9925398 4.0625 11.0625 C5.15015368 16.16123186 5.15015368 16.16123186 7 21 C7.13415472 23.6723621 7.04318541 26.32250488 7 29 C5.68 29 4.36 29 3 29 C2.73445313 27.87980469 2.46890625 26.75960937 2.1953125 25.60546875 C1.83885504 24.13273662 1.48206692 22.66008449 1.125 21.1875 C0.95097656 20.44951172 0.77695312 19.71152344 0.59765625 18.95117188 C-0.24492511 15.50282963 -1.01285575 12.98071638 -3 10 C-3.046875 7.7734375 -3.046875 7.7734375 -2.75 5.375 C-2.66234375 4.57835937 -2.5746875 3.78171875 -2.484375 2.9609375 C-2.24460937 1.99027344 -2.24460937 1.99027344 -2 1 C-1.34 0.67 -0.68 0.34 0 0 Z " fill="#5121CC" transform="translate(275,143)"/>
<path d="M0 0 C0.99 0 1.98 0 3 0 C3.05428973 2.22889496 3.09292338 4.45817471 3.125 6.6875 C3.14820312 7.92886719 3.17140625 9.17023438 3.1953125 10.44921875 C2.97241017 14.50158319 2.11508041 17.32737939 -0.125 20.6875 C-3.14286183 22.80000328 -6.41593149 23.23618212 -10 24 C-10.66 22.68 -11.32 21.36 -12 20 C-10.906875 19.67 -9.81375 19.34 -8.6875 19 C-6.39307179 18.0153466 -5.2425918 17.37141642 -3.8671875 15.265625 C-2.06790473 10.75868368 -1.90287875 6.85606233 -2 2 C-1.34 1.34 -0.68 0.68 0 0 Z " fill="#591BDC" transform="translate(90,218)"/>
<path d="M0 0 C2.4375 0.75 2.4375 0.75 5 2 C5.8125 4.125 5.8125 4.125 6 6 C3 7 3 7 1 6.0625 C0.34 5.711875 -0.32 5.36125 -1 5 C-1.99 5 -2.98 5 -4 5 C-7.1063786 11.56882431 -9.83836487 18.06001352 -12 25 C-13.65 25.33 -15.3 25.66 -17 26 C-14.40947075 12.61559889 -14.40947075 12.61559889 -11 7 C-8.9921875 6.40625 -8.9921875 6.40625 -7 6 C-6.34 5.01 -5.68 4.02 -5 3 C-2.69 3.33 -0.38 3.66 2 4 C2 3.34 2 2.68 2 2 C1.34 2 0.68 2 0 2 C0 1.34 0 0.68 0 0 Z " fill="#4D1FC9" transform="translate(350,257)"/>
<path d="M0 0 C0 3 0 3 -1.5 4.6875 C-1.995 5.120625 -2.49 5.55375 -3 6 C-2.67 6.99 -2.34 7.98 -2 9 C-1.34 9.33 -0.68 9.66 0 10 C0 10.99 0 11.98 0 13 C2.22586858 15.51507453 2.22586858 15.51507453 5 18.0625 C6.70172991 19.67205287 8.37737425 21.31073069 10 23 C10 23.66 10 24.32 10 25 C8.125 24.75 8.125 24.75 6 24 C5.33333333 22.66666667 4.66666667 21.33333333 4 20 C1.46811352 18.24677063 1.46811352 18.24677063 -1 17 C-1.33 18.32 -1.66 19.64 -2 21 C-5.6953448 18.4053962 -7.59678101 16.91162554 -9.4375 12.75 C-8.73790385 6.75346156 -4.42292753 3.80216578 0 0 Z " fill="#4F1DC5" transform="translate(218,267)"/>
<path d="M0 0 C3.33973757 1.44946105 5.52304659 3.28172388 8.0625 5.875 C8.73410156 6.55304688 9.40570313 7.23109375 10.09765625 7.9296875 C14.07303798 12.2560783 16.00612058 16.2668316 18 21.75 C18.78431361 24.15703483 18.78431361 24.15703483 21 25 C19.02 25.99 19.02 25.99 17 27 C17 25.68 17 24.36 17 23 C16.39285156 22.91234375 15.78570312 22.8246875 15.16015625 22.734375 C12.39204003 21.7933156 11.86631234 20.75867381 10.4375 18.25 C10.0146875 17.528125 9.591875 16.80625 9.15625 16.0625 C8.7746875 15.381875 8.393125 14.70125 8 14 C6.42512982 11.22822848 5.19871626 9.18702707 2.875 7 C0.69095258 4.67034942 0.34746283 3.1271655 0 0 Z M10 12 C11 15 11 15 11 15 Z " fill="#5721D5" transform="translate(212,187)"/>
<path d="M0 0 C4.02124951 1.30418903 5.57012602 2.61930576 8 6 C10.05003955 7.19232613 10.05003955 7.19232613 12 8 C13 9 13 9 13.0625 11.5625 C13.041875 12.366875 13.02125 13.17125 13 14 C13.66 14 14.32 14 15 14 C16 17 17 20 18 23 C17.01 23.33 16.02 23.66 15 24 C14.60167969 23.21753906 14.20335937 22.43507813 13.79296875 21.62890625 C13.26316406 20.61699219 12.73335937 19.60507812 12.1875 18.5625 C11.40439453 17.04849609 11.40439453 17.04849609 10.60546875 15.50390625 C9.18581516 12.71308782 9.18581516 12.71308782 6 12 C2.78832291 9.09308059 0.18254478 6.42993412 -0.375 2.0625 C-0.25125 1.381875 -0.1275 0.70125 0 0 Z " fill="#5A1EDE" transform="translate(217,284)"/>
<path d="M0 0 C2.93737892 -0.42340597 5.10800299 -0.61939756 7.62011719 1.125 C9.281367 2.69140867 10.83630643 4.31313594 12.375 6 C12.92027344 6.57234375 13.46554688 7.1446875 14.02734375 7.734375 C15.36559012 9.14305539 16.68474975 10.56982497 18 12 C17.34 13.65 16.68 15.3 16 17 C15.01 16.67 14.02 16.34 13 16 C12.67 15.34 12.34 14.68 12 14 C11.38125 13.938125 10.7625 13.87625 10.125 13.8125 C8 13 8 13 6.25 9.4375 C5.63125 7.7359375 5.63125 7.7359375 5 6 C4.01 6 3.02 6 2 6 C2 5.01 2 4.02 2 3 C1.34 3 0.68 3 0 3 C0 2.01 0 1.02 0 0 Z " fill="#5C28CD" transform="translate(75,319)"/>
<path d="M0 0 C4.35992871 -0.04945386 8.71970862 -0.08574488 13.07983398 -0.10986328 C14.56293583 -0.11991821 16.04601788 -0.13356404 17.52905273 -0.15087891 C19.66134531 -0.17515006 21.79337569 -0.18648799 23.92578125 -0.1953125 C25.85031128 -0.21102295 25.85031128 -0.21102295 27.8137207 -0.22705078 C31 0 31 0 34 2 C34 2.66 34 3.32 34 4 C29.64011928 4.09890664 25.28083327 4.17148376 20.92016602 4.21972656 C19.43697739 4.23983759 17.95386801 4.26713074 16.47094727 4.30175781 C14.33850565 4.35030352 12.20711223 4.37297195 10.07421875 4.390625 C8.79119873 4.41157227 7.50817871 4.43251953 6.1862793 4.45410156 C3 4 3 4 1.05786133 1.97558594 C0.70876709 1.32364258 0.35967285 0.67169922 0 0 Z " fill="#351B90" transform="translate(356,164)"/>
<path d="M0 0 C0 0.66 0 1.32 0 2 C1.32 2.66 2.64 3.32 4 4 C2.19402344 4.18175781 2.19402344 4.18175781 0.3515625 4.3671875 C-1.22400766 4.53599859 -2.79952592 4.70529459 -4.375 4.875 C-5.1690625 4.95363281 -5.963125 5.03226563 -6.78125 5.11328125 C-11.3593122 5.46476858 -11.3593122 5.46476858 -15 8 C-15.99 8 -16.98 8 -18 8 C-18.33 10.64 -18.66 13.28 -19 16 C-19.99 15.67 -20.98 15.34 -22 15 C-22 13.35 -22 11.7 -22 10 C-21.34 10 -20.68 10 -20 10 C-19.9175 9.4225 -19.835 8.845 -19.75 8.25 C-18.52017657 4.56052971 -16.1678183 2.68695194 -12.875 0.75 C-8.59621901 -0.36620374 -4.39652836 -0.15366507 0 0 Z " fill="#5815E4" transform="translate(81,207)"/>
<path d="M0 0 C0.99 0.33 1.98 0.66 3 1 C2.01 1.495 2.01 1.495 1 2 C1 8.6 1 15.2 1 22 C0.67 22 0.34 22 0 22 C-0.33 18.37 -0.66 14.74 -1 11 C-1.86625 12.134375 -2.7325 13.26875 -3.625 14.4375 C-5.98359701 17.22289075 -6.72806207 17.92446169 -10.375 18.9375 C-11.674375 18.9684375 -11.674375 18.9684375 -13 19 C-11.68 18.34 -10.36 17.68 -9 17 C-9 16.34 -9 15.68 -9 15 C-10.65 14.67 -12.3 14.34 -14 14 C-13.67 13.34 -13.34 12.68 -13 12 C-11.68 12 -10.36 12 -9 12 C-7.04995929 10.13383307 -7.04995929 10.13383307 -5.375 7.6875 C-4.78460938 6.88699219 -4.19421875 6.08648437 -3.5859375 5.26171875 C-2.36736038 3.52389571 -1.17734501 1.76601751 0 0 Z " fill="#5124C7" transform="translate(427,310)"/>
<path d="M0 0 C1.86561385 5.59684155 0.13068982 12.17542505 -2.02734375 17.56640625 C-2.95458811 19.41099556 -3.96830707 21.21173226 -5 23 C-5.99 22.67 -6.98 22.34 -8 22 C-8.2396943 16.36718401 -7.38529821 11.45461169 -6 6 C-5.36578125 5.88785156 -4.7315625 5.77570313 -4.078125 5.66015625 C-3.39234375 5.44230469 -2.7065625 5.22445313 -2 5 C-0.70339566 2.50965614 -0.70339566 2.50965614 0 0 Z " fill="#5B25D8" transform="translate(396,314)"/>
<path d="M0 0 C2.2987284 3.4480926 2.24647447 4.7467671 2.23046875 8.8046875 C2.22853516 9.94550781 2.22660156 11.08632812 2.22460938 12.26171875 C2.21236328 13.45410156 2.20011719 14.64648438 2.1875 15.875 C2.18685547 17.05964844 2.18621094 18.24429688 2.18554688 19.46484375 C2.16022919 24.45524004 2.12658039 29.11946271 1 34 C0.34 34 -0.32 34 -1 34 C-2.0775164 28.612418 -2.66415749 23.17258702 -1.52734375 17.7421875 C-0.85382682 14.23989946 -0.64491185 10.74070295 -0.4375 7.1875 C-0.39431641 6.49462891 -0.35113281 5.80175781 -0.30664062 5.08789062 C-0.20138547 3.39211314 -0.10027137 1.69607948 0 0 Z " fill="#5C27E3" transform="translate(293,169)"/>
<path d="M0 0 C2.17652339 3.26478508 2.32108176 4.67840059 2.5625 8.5 C2.76817016 11.62282857 3.00550945 14.01652836 4 17 C5.98 16.34 7.96 15.68 10 15 C10.1875 17.375 10.1875 17.375 10 20 C7 22 7 22 4.5 21.875 C1.33806547 20.76832291 0.63595752 19.91463697 -1 17 C-1.24012667 14.36432397 -1.33036419 11.99688175 -1.25 9.375 C-1.24484375 8.694375 -1.2396875 8.01375 -1.234375 7.3125 C-1.15529337 2.31058673 -1.15529337 2.31058673 0 0 Z " fill="#4F18D5" transform="translate(242,392)"/>
<path d="M0 0 C3.64934161 0.24881875 5.5154357 0.55581606 8.25 3.0625 C10.42349403 6.71086497 11.15528473 9.84681658 12 14 C13.32 14.33 14.64 14.66 16 15 C16 15.66 16 16.32 16 17 C14.02 17.33 12.04 17.66 10 18 C7.11620245 14.0223482 5.27314011 10.42820061 3.80859375 5.734375 C3.01144808 3.63227048 3.01144808 3.63227048 0 2 C0 1.34 0 0.68 0 0 Z " fill="#5725CC" transform="translate(402,310)"/>
<path d="M0 0 C3.63 0.66 7.26 1.32 11 2 C10.34 3.32 9.68 4.64 9 6 C8.34 6 7.68 6 7 6 C6.79375 6.639375 6.5875 7.27875 6.375 7.9375 C5 10 5 10 2 10.875 C1.01 10.91625 0.02 10.9575 -1 11 C-3 9 -3 9 -3.3125 6.625 C-3 4 -3 4 0 0 Z " fill="#5D1BE6" transform="translate(74,219)"/>
<path d="M0 0 C2 2 2 2 2.1953125 3.9453125 C2.13020833 5.96354167 2.06510417 7.98177083 2 10 C0.68 10 -0.64 10 -2 10 C-2.33 9.34 -2.66 8.68 -3 8 C-2.67 7.01 -2.34 6.02 -2 5 C-2.66 5 -3.32 5 -4 5 C-5.66489182 8.92438786 -6.87204037 12.89100419 -8 17 C-8.33 17 -8.66 17 -9 17 C-9.25 10.375 -9.25 10.375 -7 7 C-7.66 7 -8.32 7 -9 7 C-8.04714378 1.47343393 -5.70407058 -0.7312911 0 0 Z " fill="#5928D0" transform="translate(440,305)"/>
<path d="M0 0 C0.66 0 1.32 0 2 0 C2 1.65 2 3.3 2 5 C2.99 5 3.98 5 5 5 C5.66 5.66 6.32 6.32 7 7 C7.33 4.69 7.66 2.38 8 0 C8.66 0 9.32 0 10 0 C10.03738281 0.68707031 10.07476562 1.37414062 10.11328125 2.08203125 C10.21189453 3.43361328 10.21189453 3.43361328 10.3125 4.8125 C10.39951172 6.15248047 10.39951172 6.15248047 10.48828125 7.51953125 C11.06313581 10.30604 11.8206856 11.24135754 14 13 C12.824375 13.185625 12.824375 13.185625 11.625 13.375 C8.85942178 13.79117993 8.85942178 13.79117993 7 16 C6.9175 15.38125 6.835 14.7625 6.75 14.125 C6.5025 13.42375 6.255 12.7225 6 12 C5.360625 11.71125 4.72125 11.4225 4.0625 11.125 C2 10 2 10 0.875 7 C0.58625 6.01 0.2975 5.02 0 4 C-0.66 3.34 -1.32 2.68 -2 2 C-1.34 1.34 -0.68 0.68 0 0 Z " fill="#5717E9" transform="translate(467,309)"/>
<path d="M0 0 C4.22783096 4.54100362 7.08205665 10.1235617 9 16 C8.63671875 18.33984375 8.63671875 18.33984375 8 20 C7.34 19.01 6.68 18.02 6 17 C5.67 20.96 5.34 24.92 5 29 C4.67 29 4.34 29 4 29 C3.93683594 28.36835938 3.87367188 27.73671875 3.80859375 27.0859375 C2.61877367 18.39398872 -0.87352942 11.60139318 -5 4 C-5.33 3.34 -5.66 2.68 -6 2 C-2.17090645 3.27636452 -1.8443512 4.59505446 0.0625 8.0625 C1.51498612 10.77852389 1.51498612 10.77852389 3 13 C3.66 13 4.32 13 5 13 C4.34 12.34 3.68 11.68 3 11 C2.59952556 8.67724823 2.2602896 6.34260643 2 4 C1.34 4 0.68 4 0 4 C0 2.68 0 1.36 0 0 Z " fill="#5829C2" transform="translate(230,294)"/>
<path d="M0 0 C1.82086605 0.8999338 3.63152033 1.82055314 5.4375 2.75 C6.44683594 3.26046875 7.45617187 3.7709375 8.49609375 4.296875 C11 6 11 6 11.67578125 8.0078125 C11.78277344 8.66523438 11.88976562 9.32265625 12 10 C14.95077622 13.90324196 18.25893312 16.60556856 23 18 C23 18.66 23 19.32 23 20 C18.44532781 19.02837874 14.82926186 16.84402074 10.8125 14.5625 C10.07580078 14.15451172 9.33910156 13.74652344 8.58007812 13.32617188 C7.87947266 12.93107422 7.17886719 12.53597656 6.45703125 12.12890625 C5.81741455 11.76869385 5.17779785 11.40848145 4.51879883 11.03735352 C3 10 3 10 2 8 C4.31 8.66 6.62 9.32 9 10 C8.505 9.54625 8.01 9.0925 7.5 8.625 C6 7 6 7 6 5 C5.38125 4.690625 4.7625 4.38125 4.125 4.0625 C2.75 3.375 1.375 2.6875 0 2 C0 1.34 0 0.68 0 0 Z " fill="#4D1EB6" transform="translate(103,356)"/>
<path d="M0 0 C0.33 0.66 0.66 1.32 1 2 C0.01 2 -0.98 2 -2 2 C-2 2.66 -2 3.32 -2 4 C-3.32 4 -4.64 4 -6 4 C-6 4.66 -6 5.32 -6 6 C-10.95 7.485 -10.95 7.485 -16 9 C-16 8.34 -16 7.68 -16 7 C-16.66 6.67 -17.32 6.34 -18 6 C-13.6854155 -0.47187674 -7.12579128 -0.43627294 0 0 Z " fill="#5B1EDD" transform="translate(142,179)"/>
<path d="M0 0 C1.2684375 0.12375 1.2684375 0.12375 2.5625 0.25 C4.5625 3.25 4.5625 3.25 4.1875 5.9375 C3.98125 6.700625 3.775 7.46375 3.5625 8.25 C-1.1875 9.25 -1.1875 9.25 -3.4375 9.25 C-4.0975 9.91 -4.7575 10.57 -5.4375 11.25 C-6.4275 10.92 -7.4175 10.59 -8.4375 10.25 C-7.7775 9.59 -7.1175 8.93 -6.4375 8.25 C-5.41784573 5.92518826 -4.41690398 3.59205301 -3.4375 1.25 C-2.4375 0.25 -2.4375 0.25 0 0 Z " fill="#552ABC" transform="translate(41.4375,262.75)"/>
<path d="M0 0 C0.6171875 1.8515625 0.6171875 1.8515625 1 4 C-2.76398564 8.76771514 -7.91459509 11.77591976 -13 15 C-13 13.68 -13 12.36 -13 11 C-16.72614153 12.11854586 -16.72614153 12.11854586 -19 15 C-19.99 14.67 -20.98 14.34 -22 14 C-19.48291835 11.43819863 -16.97529061 9.02319762 -14 7 C-13.01 7.185625 -12.02 7.37125 -11 7.5625 C-10.01 7.706875 -9.02 7.85125 -8 8 C-4.99026195 5.63598757 -2.49453445 2.89340671 0 0 Z " fill="#5321C4" transform="translate(112,193)"/>
<path d="M0 0 C-0.28144987 3.20419855 -1.00288207 4.00246392 -3.50390625 6.140625 C-4.51324219 6.83671875 -5.52257812 7.5328125 -6.5625 8.25 C-7.57441406 8.95640625 -8.58632813 9.6628125 -9.62890625 10.390625 C-10.41136719 10.92171875 -11.19382812 11.4528125 -12 12 C-12.33 11.34 -12.66 10.68 -13 10 C-12.67 9.34 -12.34 8.68 -12 8 C-13.65 8.66 -15.3 9.32 -17 10 C-6.04511278 -2.01503759 -6.04511278 -2.01503759 0 0 Z " fill="#5120C9" transform="translate(303,310)"/>
<path d="M0 0 C1.98 0 3.96 0 6 0 C6.33 2.31 6.66 4.62 7 7 C6.34 7 5.68 7 5 7 C4.87625 8.134375 4.7525 9.26875 4.625 10.4375 C4.41875 11.613125 4.2125 12.78875 4 14 C3.01 14.495 3.01 14.495 2 15 C-0.02558881 11.65060119 -0.21738987 9.13037449 -0.125 5.25 C-0.09792969 3.77273437 -0.09792969 3.77273437 -0.0703125 2.265625 C-0.04710937 1.51796875 -0.02390625 0.7703125 0 0 Z " fill="#5720DA" transform="translate(307,172)"/>
<path d="M0 0 C5.28 0 10.56 0 16 0 C16.66 1.32 17.32 2.64 18 4 C11.73 4 5.46 4 -1 4 C-0.67 2.68 -0.34 1.36 0 0 Z " fill="#5918E4" transform="translate(164,383)"/>
<path d="M0 0 C0.33 0 0.66 0 1 0 C0.42155945 9.0089039 -0.21285782 18.00648195 -1 27 C-1.33 27 -1.66 27 -2 27 C-2.33 24.36 -2.66 21.72 -3 19 C-3.33 23.29 -3.66 27.58 -4 32 C-4.33 32 -4.66 32 -5 32 C-5.02927632 28.47918442 -5.04689119 24.95840061 -5.0625 21.4375 C-5.07087891 20.44685547 -5.07925781 19.45621094 -5.08789062 18.43554688 C-5.10536914 13.17451301 -4.92308398 8.18235335 -4 3 C-3.67 3 -3.34 3 -3 3 C-2.67 6.63 -2.34 10.26 -2 14 C-1.34 9.38 -0.68 4.76 0 0 Z " fill="#552CB8" transform="translate(312,318)"/>
<path d="M0 0 C0.33 1.32 0.66 2.64 1 4 C1.66 4 2.32 4 3 4 C3 3.01 3 2.02 3 1 C3.66 1.33 4.32 1.66 5 2 C4.34 5.63 3.68 9.26 3 13 C1.68 13.33 0.36 13.66 -1 14 C-1.86375896 12.38007835 -2.71575854 10.75388139 -3.5625 9.125 C-4.03816406 8.22007812 -4.51382812 7.31515625 -5.00390625 6.3828125 C-5.33261719 5.59648437 -5.66132813 4.81015625 -6 4 C-5.67 3.34 -5.34 2.68 -5 2 C-3.68 2.99 -2.36 3.98 -1 5 C-0.67 3.35 -0.34 1.7 0 0 Z " fill="#5328C2" transform="translate(266,171)"/>
<path d="M0 0 C5.61 0 11.22 0 17 0 C21.125 8.625 21.125 8.625 20 12 C19.01830524 10.87720538 18.03972702 9.75168527 17.0625 8.625 C16.51722656 7.99851563 15.97195313 7.37203125 15.41015625 6.7265625 C14 5 14 5 13 3 C9.95418731 2.53045739 9.95418731 2.53045739 6.4375 2.375 C5.23996094 2.30023438 4.04242188 2.22546875 2.80859375 2.1484375 C1.88175781 2.09945312 0.95492187 2.05046875 0 2 C0 1.34 0 0.68 0 0 Z " fill="#471DB7" transform="translate(244,165)"/>
<path d="M0 0 C0.33 0 0.66 0 1 0 C1.06058594 0.63808594 1.12117188 1.27617187 1.18359375 1.93359375 C1.26738281 2.75988281 1.35117187 3.58617187 1.4375 4.4375 C1.55931641 5.67306641 1.55931641 5.67306641 1.68359375 6.93359375 C1.78930815 8.98662025 1.78930815 8.98662025 3 10 C3.23653523 12.52596259 3.42173692 15.03107207 3.5625 17.5625 C3.60568359 18.27341797 3.64886719 18.98433594 3.69335938 19.71679688 C3.79971777 21.47761912 3.90038846 23.2387832 4 25 C3.34 25 2.68 25 2 25 C1.67 23.02 1.34 21.04 1 19 C0.34 19 -0.32 19 -1 19 C-1.02683987 16.02077407 -1.04676037 13.04178705 -1.0625 10.0625 C-1.07087891 9.21236328 -1.07925781 8.36222656 -1.08789062 7.48632812 C-1.09111328 6.67744141 -1.09433594 5.86855469 -1.09765625 5.03515625 C-1.10289307 4.2862915 -1.10812988 3.53742676 -1.11352539 2.76586914 C-1 1 -1 1 0 0 Z " fill="#541FCA" transform="translate(309,336)"/>
<path d="M0 0 C3.3 0.66 6.6 1.32 10 2 C10 2.66 10 3.32 10 4 C11.32 4.33 12.64 4.66 14 5 C14 5.66 14 6.32 14 7 C8.06 7.495 8.06 7.495 2 8 C1.01 6.35 0.02 4.7 -1 3 C-0.67 2.01 -0.34 1.02 0 0 Z " fill="#6331D4" transform="translate(148,378)"/>
<path d="M0 0 C3.35111834 2.23407889 4.81553956 3.26215824 5.8125 7.25 C5.874375 8.1575 5.93625 9.065 6 10 C2.37 10 -1.26 10 -5 10 C-5 8.35 -5 6.7 -5 5 C-3.68 5 -2.36 5 -1 5 C-0.67 3.35 -0.34 1.7 0 0 Z " fill="#5A18E7" transform="translate(91,346)"/>
<path d="M0 0 C0.99 0 1.98 0 3 0 C2.85769192 1.41702513 2.71099254 2.8336096 2.5625 4.25 C2.48128906 5.03890625 2.40007812 5.8278125 2.31640625 6.640625 C2.02365007 8.82364639 1.57935581 10.8773182 1 13 C0.34 13 -0.32 13 -1 13 C-1.33 14.32 -1.66 15.64 -2 17 C-4.60329886 13.09505171 -3.80930803 10.37202275 -3 6 C-2.69830934 4.65915264 -2.38482319 3.3193938 -2 2 C-1.34 2 -0.68 2 0 2 C0 1.34 0 0.68 0 0 Z " fill="#5B29D3" transform="translate(334,281)"/>
<path d="M0 0 C0.66 0.33 1.32 0.66 2 1 C1.319375 1.556875 0.63875 2.11375 -0.0625 2.6875 C-0.701875 3.450625 -1.34125 4.21375 -2 5 C-1.72853977 6.67785525 -1.38374452 8.34421347 -1 10 C-0.88576907 11.99771308 -0.82526107 13.99906437 -0.8125 16 C-0.79832031 17.010625 -0.78414062 18.02125 -0.76953125 19.0625 C-1.00695069 22.0885919 -1.72675777 24.26227757 -3 27 C-4.22329074 23.33012779 -3.88021006 20.66032178 -3.5625 16.8125 C-3.46066406 15.54019531 -3.35882813 14.26789063 -3.25390625 12.95703125 C-3.17011719 11.98121094 -3.08632812 11.00539062 -3 10 C-4.65 10.66 -6.3 11.32 -8 12 C-8.66 10.68 -9.32 9.36 -10 8 C-8.35 7.67 -6.7 7.34 -5 7 C-5 6.01 -5 5.02 -5 4 C-4.34 4 -3.68 4 -3 4 C-2.67 3.01 -2.34 2.02 -2 1 C-1.34 0.67 -0.68 0.34 0 0 Z " fill="#5524BD" transform="translate(96,208)"/>
<path d="M0 0 C2 3 2 3 1.9375 4.8125 C0.48582033 8.19975256 -1.37123618 10.42965316 -4 13 C-7.3125 13.375 -7.3125 13.375 -10 13 C-10.33 12.34 -10.66 11.68 -11 11 C-10.34 10.67 -9.68 10.34 -9 10 C-8.34786708 7.97536745 -8.34786708 7.97536745 -8 6 C-8 6.99 -8 7.98 -8 9 C-5.06799526 6.14723863 -2.35684596 3.34920216 0 0 Z " fill="#4A19CC" transform="translate(271,312)"/>
<path d="M0 0 C0.66 0.33 1.32 0.66 2 1 C1.51327434 7.32743363 1.51327434 7.32743363 -0.8125 10.375 C-2.98842696 11.99140289 -4.31916169 12.73191617 -7 13 C-7.66 12.67 -8.32 12.34 -9 12 C-6.64168902 7.1019695 -4.64783954 3.04513625 0 0 Z " fill="#5B23DB" transform="translate(225,357)"/>
<path d="M0 0 C1.31538327 4.15771494 0.34433068 6.8879297 -1 11 C-0.01 9.02 0.98 7.04 2 5 C3 8 3 8 1.85546875 10.6640625 C1.30503906 11.64117187 0.75460937 12.61828125 0.1875 13.625 C-0.35519531 14.60726563 -0.89789063 15.58953125 -1.45703125 16.6015625 C-3 19 -3 19 -5 20 C-5.33 19.01 -5.66 18.02 -6 17 C-6.99 17 -7.98 17 -9 17 C-8.39671875 16.30519531 -7.7934375 15.61039062 -7.171875 14.89453125 C-4.92517838 11.9002827 -3.62324109 9.15874832 -2.25 5.6875 C-1.82203125 4.61886719 -1.3940625 3.55023438 -0.953125 2.44921875 C-0.63859375 1.64097656 -0.3240625 0.83273437 0 0 Z " fill="#5123C2" transform="translate(257,391)"/>
<path d="M0 0 C0 3.90838866 -1.50567876 5.11594107 -4 8 C-2.35 8 -0.7 8 1 8 C-1.85276137 10.93200474 -4.65079784 13.64315404 -8 16 C-8.66 15.67 -9.32 15.34 -10 15 C-9.01 14.67 -8.02 14.34 -7 14 C-7 13.01 -7 12.02 -7 11 C-8.32 11.33 -9.64 11.66 -11 12 C-9.55928394 8.58301375 -7.76769435 6.68041215 -4.9375 4.3125 C-3.86822266 3.40951172 -3.86822266 3.40951172 -2.77734375 2.48828125 C-1.89755859 1.75158203 -1.89755859 1.75158203 -1 1 C-0.67 0.67 -0.34 0.34 0 0 Z " fill="#4F20C1" transform="translate(220,361)"/>
<path d="M0 0 C0.68835938 0.59748047 0.68835938 0.59748047 1.390625 1.20703125 C4.52271585 3.91142062 7.63877459 6.57991771 11 9 C10.01 9 9.02 9 8 9 C7.67 9.66 7.34 10.32 7 11 C7.33 11.33 7.66 11.66 8 12 C8 12.99 8 13.98 8 15 C9.32 14.67 10.64 14.34 12 14 C14.125 18.625 14.125 18.625 13 22 C7.86684128 17.73151775 5.4686131 14.64726967 4.46484375 8.015625 C3.80786501 5.16687687 2.1967078 3.83058983 0 2 C0 1.34 0 0.68 0 0 Z " fill="#5224C3" transform="translate(69,310)"/>
<path d="M0 0 C0.33 0 0.66 0 1 0 C1.8410478 3.6464806 2.11764968 6.99950907 2.09765625 10.73828125 C2.09443359 11.80498047 2.09121094 12.87167969 2.08789062 13.97070312 C2.07951172 15.07349609 2.07113281 16.17628906 2.0625 17.3125 C2.05798828 18.43462891 2.05347656 19.55675781 2.04882812 20.71289062 C2.03707313 23.4753151 2.02064077 26.23762998 2 29 C1.67 29 1.34 29 1 29 C0.67 22.07 0.34 15.14 0 8 C-0.33 12.95 -0.66 17.9 -1 23 C-1.33 23 -1.66 23 -2 23 C-2.33 16.73 -2.66 10.46 -3 4 C-2.01 4.33 -1.02 4.66 0 5 C0 3.35 0 1.7 0 0 Z " fill="#5128BA" transform="translate(380,270)"/>
<path d="M0 0 C0.66 0.33 1.32 0.66 2 1 C2.02893932 4.62498334 2.04677792 8.24993713 2.0625 11.875 C2.07087891 12.90753906 2.07925781 13.94007813 2.08789062 15.00390625 C2.09111328 15.99003906 2.09433594 16.97617187 2.09765625 17.9921875 C2.10289307 18.90339355 2.10812988 19.81459961 2.11352539 20.75341797 C2 23 2 23 1 25 C0.34 25 -0.32 25 -1 25 C-1.33 22.03 -1.66 19.06 -2 16 C-1.34 16 -0.68 16 0 16 C0 10.72 0 5.44 0 0 Z " fill="#5B20EB" transform="translate(379,277)"/>
<path d="M0 0 C3.24271506 0.5590888 4.93057424 1.4132178 7 4 C7 4.66 7 5.32 7 6 C8.65 6 10.3 6 12 6 C11.34 7.32 10.68 8.64 10 10 C4.59950264 9.68232368 2.47662935 6.80003673 -1 3 C-0.67 2.01 -0.34 1.02 0 0 Z " fill="#5A18E8" transform="translate(68,345)"/>
<path d="M0 0 C0.33 0 0.66 0 1 0 C1 2.64 1 5.28 1 8 C1.66 8 2.32 8 3 8 C3.33 7.34 3.66 6.68 4 6 C3.88529863 7.75070517 3.75780972 9.50057536 3.625 11.25 C3.55539062 12.22453125 3.48578125 13.1990625 3.4140625 14.203125 C3 17 3 17 1 21 C1 17.37 1 13.74 1 10 C0.80664062 11.07121094 0.61328125 12.14242188 0.4140625 13.24609375 C0.15149745 14.64331489 -0.11154825 16.04044578 -0.375 17.4375 C-0.50132812 18.14455078 -0.62765625 18.85160156 -0.7578125 19.58007812 C-1.10622243 21.40052 -1.547043 23.20271648 -2 25 C-2.66 25.33 -3.32 25.66 -4 26 C-3.87882812 25.29617188 -3.75765625 24.59234375 -3.6328125 23.8671875 C-2.28565625 15.92932836 -1.10886916 7.97442074 0 0 Z " fill="#5026B9" transform="translate(377,294)"/>
<path d="M0 0 C0.99 0.66 1.98 1.32 3 2 C3 2.99 3 3.98 3 5 C3.66 5 4.32 5 5 5 C5 5.66 5 6.32 5 7 C3.88625 6.938125 2.7725 6.87625 1.625 6.8125 C-0.169375 6.9053125 -0.169375 6.9053125 -2 7 C-2.99 8.485 -2.99 8.485 -4 10 C-5.9375 9.1875 -5.9375 9.1875 -8 8 C-8.33 7.01 -8.66 6.02 -9 5 C-8.071875 4.731875 -7.14375 4.46375 -6.1875 4.1875 C-3.23759634 3.08851629 -1.94384814 2.37581439 0 0 Z " fill="#5A19E6" transform="translate(347,254)"/>
<path d="M0 0 C0.99 0.33 1.98 0.66 3 1 C4.1194613 3.8914086 4.10768197 6.67762612 4.0625 9.75 C4.05347656 10.54921875 4.04445313 11.3484375 4.03515625 12.171875 C4.01775391 13.07679688 4.01775391 13.07679688 4 14 C3.67 14 3.34 14 3 14 C2.67 11.69 2.34 9.38 2 7 C1.01 6.67 0.02 6.34 -1 6 C-0.85691406 6.90492188 -0.85691406 6.90492188 -0.7109375 7.828125 C-0.60007812 8.62734375 -0.48921875 9.4265625 -0.375 10.25 C-0.25898438 11.03890625 -0.14296875 11.8278125 -0.0234375 12.640625 C0.00319395 15.32152459 -0.63407916 16.72694089 -2 19 C-2.98262143 11.79016324 -3.6644984 6.44951718 0 0 Z " fill="#4F27C4" transform="translate(284,151)"/>
<path d="M0 0 C0.33 0 0.66 0 1 0 C1.13277344 0.71027344 1.26554687 1.42054688 1.40234375 2.15234375 C1.57894531 3.07144531 1.75554687 3.99054688 1.9375 4.9375 C2.11152344 5.85402344 2.28554688 6.77054688 2.46484375 7.71484375 C2.77714988 9.95289844 2.77714988 9.95289844 4 11 C4.66 8.69 5.32 6.38 6 4 C6.33 4 6.66 4 7 4 C7.21192221 9.19209404 6.5912689 13.126739 5 18 C4.01 18 3.02 18 2 18 C0.176679 11.84629161 -0.2361959 6.40353322 0 0 Z " fill="#582EBE" transform="translate(306,175)"/>
<path d="M0 0 C1.26977059 3.80931176 0.52074507 5.81618993 -0.4375 9.6875 C-0.72496094 10.86699219 -1.01242187 12.04648437 -1.30859375 13.26171875 C-1.53675781 14.16535156 -1.76492188 15.06898438 -2 16 C-2.99 16 -3.98 16 -5 16 C-4.93970033 14.08247047 -4.85083293 12.16582574 -4.75 10.25 C-4.70359375 9.18265625 -4.6571875 8.1153125 -4.609375 7.015625 C-3.89410286 3.47594492 -2.74415095 2.26118038 0 0 Z " fill="#501AD5" transform="translate(320,285)"/>
<path d="M0 0 C1.32 0.33 2.64 0.66 4 1 C3.77063276 4.44050866 3.60838078 6.39161922 1.125 8.875 C-3.54896596 10.55762774 -8.08393833 10.23245826 -13 10 C-13 9.67 -13 9.34 -13 9 C-10.36 9 -7.72 9 -5 9 C-5 8.34 -5 7.68 -5 7 C-3.125 4.875 -3.125 4.875 -1 3 C-0.34 3 0.32 3 1 3 C0.67 2.01 0.34 1.02 0 0 Z " fill="#481CBE" transform="translate(82,222)"/>
<path d="M0 0 C0.99 0.66 1.98 1.32 3 2 C3 2.66 3 3.32 3 4 C3.66 4.33 4.32 4.66 5 5 C5.268125 5.7425 5.53625 6.485 5.8125 7.25 C7.26830812 10.62134511 9.32061465 12.53214507 12 15 C11.67 15.66 11.34 16.32 11 17 C10.443125 16.40832031 9.88625 15.81664062 9.3125 15.20703125 C4.52515883 10.24986886 0.00466488 6.38444748 -6 3 C-3.92446352 2.4465236 -2.15634036 2 0 2 C0 1.34 0 0.68 0 0 Z " fill="#5221C8" transform="translate(208,183)"/>
<path d="M0 0 C1.32 0.33 2.64 0.66 4 1 C3.34 4.96 2.68 8.92 2 13 C1.34 12.67 0.68 12.34 0 12 C-0.33 15.63 -0.66 19.26 -1 23 C-1.33 23 -1.66 23 -2 23 C-2.22428282 15.05042008 -1.95403042 7.72888819 0 0 Z " fill="#5E27D1" transform="translate(242,382)"/>
<path d="M0 0 C3.45201639 1.47721422 5.64961936 3.43794001 8.25 6.125 C8.95640625 6.84945312 9.6628125 7.57390625 10.390625 8.3203125 C11.18726563 9.15175781 11.18726563 9.15175781 12 10 C11.01 11.485 11.01 11.485 10 13 C8 13 8 13 6.30859375 11.42578125 C5.69113281 10.72839844 5.07367188 10.03101563 4.4375 9.3125 C3.81746094 8.62800781 3.19742188 7.94351563 2.55859375 7.23828125 C0.84853137 4.78247738 0.3762292 2.94283389 0 0 Z " fill="#5A19E6" transform="translate(212,187)"/>
<path d="M0 0 C0.05399736 1.45792884 0.09279177 2.91642712 0.125 4.375 C0.14820313 5.18710937 0.17140625 5.99921875 0.1953125 6.8359375 C0 9 0 9 -2 11 C-2.66 9.68 -3.32 8.36 -4 7 C-4.99 7.99 -5.98 8.98 -7 10 C-7.66 9.01 -8.32 8.02 -9 7 C-8.07347299 5.82460004 -7.13336613 4.65989423 -6.1875 3.5 C-5.66542969 2.8503125 -5.14335937 2.200625 -4.60546875 1.53125 C-3 0 -3 0 0 0 Z " fill="#5A1AE9" transform="translate(273,335)"/>
<path d="M0 0 C2.4375 0.75 2.4375 0.75 5 2 C5.8125 4.125 5.8125 4.125 6 6 C3 7 3 7 1 6.0625 C0.34 5.711875 -0.32 5.36125 -1 5 C-1.99 5 -2.98 5 -4 5 C-5.32 7.64 -6.64 10.28 -8 13 C-8.33 12.01 -8.66 11.02 -9 10 C-8.67 9.34 -8.34 8.68 -8 8 C-8.99 8.33 -9.98 8.66 -11 9 C-10.67 8.01 -10.34 7.02 -10 6 C-9.01 6 -8.02 6 -7 6 C-6.34 5.01 -5.68 4.02 -5 3 C-2.69 3.33 -0.38 3.66 2 4 C2 3.34 2 2.68 2 2 C1.34 2 0.68 2 0 2 C0 1.34 0 0.68 0 0 Z " fill="#4D23BC" transform="translate(350,257)"/>
<path d="M0 0 C5.28 0 10.56 0 16 0 C15.01 1.485 15.01 1.485 14 3 C10.9609375 3.51171875 10.9609375 3.51171875 7.375 3.6875 C6.18648437 3.75324219 4.99796875 3.81898438 3.7734375 3.88671875 C2.85820312 3.92410156 1.94296875 3.96148437 1 4 C0.67 2.68 0.34 1.36 0 0 Z " fill="#5918E5" transform="translate(161,173)"/>
<path d="M0 0 C0.66 0 1.32 0 2 0 C2.08786771 4.88293431 1.79535278 9.53814689 1.125 14.375 C0.88136719 16.21191406 0.88136719 16.21191406 0.6328125 18.0859375 C0.42398437 19.04757812 0.21515625 20.00921875 0 21 C-0.66 21.33 -1.32 21.66 -2 22 C-2.2137731 14.31604457 -2.01670288 7.43659188 0 0 Z " fill="#5618E2" transform="translate(311,311)"/>
<path d="M0 0 C2.03219488 3.40351338 2.36891039 6.3232927 2.625 10.25 C2.69976562 11.32765625 2.77453125 12.4053125 2.8515625 13.515625 C2.92503906 14.74539062 2.92503906 14.74539062 3 16 C3.66 16 4.32 16 5 16 C5 14.35 5 12.7 5 11 C5.33 11 5.66 11 6 11 C6 13.64 6 16.28 6 19 C5.34 19 4.68 19 4 19 C4 20.65 4 22.3 4 24 C3.34 24 2.68 24 2 24 C1.66252452 21.12543208 1.32989537 18.25043941 1 15.375 C0.90460938 14.56675781 0.80921875 13.75851563 0.7109375 12.92578125 C0.21746383 8.59026261 -0.11320717 4.37262689 0 0 Z " fill="#4D19CE" transform="translate(289,187)"/>
<path d="M0 0 C1.32 0 2.64 0 4 0 C4.33 3.63 4.66 7.26 5 11 C2.8480563 7.77208445 2.79913557 6.71599191 3 3 C2.34 3 1.68 3 1 3 C1.02320313 4.04800781 1.04640625 5.09601563 1.0703125 6.17578125 C1.08907303 7.55468037 1.10727293 8.9335872 1.125 10.3125 C1.14175781 11.00279297 1.15851563 11.69308594 1.17578125 12.40429688 C1.21217794 16.17135396 1.14378864 17.78431704 -1 21 C-1.13794954 13.93391809 -0.74805717 7.02639415 0 0 Z " fill="#552CBD" transform="translate(298,107)"/>
<path d="M0 0 C0.66 0 1.32 0 2 0 C2 0.66 2 1.32 2 2 C2.66 2 3.32 2 4 2 C6.625 4.375 6.625 4.375 9 7 C9 7.66 9 8.32 9 9 C6.64656559 9.84051229 5.31555804 10.08353007 2.875 9.4375 C0.17698824 7.36902431 -0.25535686 5.24935188 -1 2 C-0.67 1.34 -0.34 0.68 0 0 Z " fill="#5414EA" transform="translate(61,230)"/>
<path d="M0 0 C0.33 0.66 0.66 1.32 1 2 C8.92 2 16.84 2 25 2 C25 2.33 25 2.66 25 3 C20.38 3 15.76 3 11 3 C11 3.66 11 4.32 11 5 C2.42857143 5.14285714 2.42857143 5.14285714 -1 4 C-0.67 2.68 -0.34 1.36 0 0 Z " fill="#836DD2" transform="translate(320,162)"/>
<path d="M0 0 C2 2 2 2 2.13525391 3.97119141 C2.08288574 4.75671387 2.03051758 5.54223633 1.9765625 6.3515625 C1.925 7.20234375 1.8734375 8.053125 1.8203125 8.9296875 C1.75585938 9.81914062 1.69140625 10.70859375 1.625 11.625 C1.56828125 12.5221875 1.5115625 13.419375 1.453125 14.34375 C1.31145247 16.56328624 1.1600296 18.78172402 1 21 C0.67 21 0.34 21 0 21 C-0.33 17.04 -0.66 13.08 -1 9 C-1.33 10.98 -1.66 12.96 -2 15 C-2.33 15 -2.66 15 -3 15 C-3 11.37 -3 7.74 -3 4 C-2.34 4 -1.68 4 -1 4 C-0.67 2.68 -0.34 1.36 0 0 Z " fill="#5C2BD5" transform="translate(299,124)"/>
<path d="M0 0 C0.33 0 0.66 0 1 0 C2.38529821 5.45461169 3.2396943 10.36718401 3 16 C2.34 16 1.68 16 1 16 C0.67 16.99 0.34 17.98 0 19 C-0.7591914 13.02136775 -1.45790557 7.03357931 -1 1 C-0.67 0.67 -0.34 0.34 0 0 Z " fill="#4714C4" transform="translate(306,156)"/>
<path d="M0 0 C1.32 0.33 2.64 0.66 4 1 C3.34 4.3 2.68 7.6 2 11 C1.34 9.68 0.68 8.36 0 7 C-0.33 8.65 -0.66 10.3 -1 12 C-1.66 12 -2.32 12 -3 12 C-2.69106068 10.3743193 -2.3777305 8.74947252 -2.0625 7.125 C-1.88847656 6.22007812 -1.71445312 5.31515625 -1.53515625 4.3828125 C-1 2 -1 2 0 0 Z " fill="#4D21C1" transform="translate(396,301)"/>
<path d="M0 0 C0.33 1.32 0.66 2.64 1 4 C1.66 4 2.32 4 3 4 C2.54738642 5.43931117 2.08767021 6.87638999 1.625 8.3125 C1.36976563 9.11300781 1.11453125 9.91351563 0.8515625 10.73828125 C0 13 0 13 -2 16 C-2 14.02 -2 12.04 -2 10 C-2.66 10 -3.32 10 -4 10 C-2.8905928 6.51329166 -1.73662334 3.22515763 0 0 Z " fill="#4D1BC7" transform="translate(322,276)"/>
<path d="M0 0 C3.77171831 0.08076198 7.54180596 0.19361435 11.3125 0.3125 C12.9202832 0.34633789 12.9202832 0.34633789 14.56054688 0.38085938 C16.10258789 0.4340332 16.10258789 0.4340332 17.67578125 0.48828125 C19.0975769 0.52755737 19.0975769 0.52755737 20.5480957 0.56762695 C23.40152576 1.07080575 24.16789095 1.83309627 26 4 C28.09989652 5.17574711 28.09989652 5.17574711 30 6 C27.125 6.1875 27.125 6.1875 24 6 C23.34 5.01 22.68 4.02 22 3 C19.24858808 2.75094978 16.74330188 2.67326428 14 2.75 C13.26265625 2.75515625 12.5253125 2.7603125 11.765625 2.765625 C7.75144333 2.75825741 7.75144333 2.75825741 4 4 C4 3.34 4 2.68 4 2 C2.68 1.34 1.36 0.68 0 0 Z " fill="#4D1DBA" transform="translate(158,381)"/>
<path d="M0 0 C2 3.75 2 3.75 2 6 C1.34 6 0.68 6 0 6 C0.7734375 6.495 0.7734375 6.495 1.5625 7 C3 9 3 9 2.8125 12.9375 C2.31707798 15.92654621 1.62391268 18.40173971 0 21 C0 18.36 0 15.72 0 13 C-0.99 13.495 -0.99 13.495 -2 14 C-1.03644647 4.58997722 -1.03644647 4.58997722 0 0 Z " fill="#5A2EC6" transform="translate(267,353)"/>
<path d="M0 0 C1.65 0.33 3.3 0.66 5 1 C4.34 4.3 3.68 7.6 3 11 C2.01 10.67 1.02 10.34 0 10 C-0.19412181 8.52168779 -0.38012131 7.04230684 -0.5625 5.5625 C-0.66691406 4.73878906 -0.77132813 3.91507812 -0.87890625 3.06640625 C-0.91886719 2.38449219 -0.95882813 1.70257813 -1 1 C-0.67 0.67 -0.34 0.34 0 0 Z " fill="#5A19E7" transform="translate(428,311)"/>
<path d="M0 0 C0.33 0.99 0.66 1.98 1 3 C1.99 3.33 2.98 3.66 4 4 C4 7.3 4 10.6 4 14 C3.01 14 2.02 14 1 14 C1 11.36 1 8.72 1 6 C0.34 6 -0.32 6 -1 6 C-1.042721 4.33388095 -1.04063832 2.66617115 -1 1 C-0.67 0.67 -0.34 0.34 0 0 Z " fill="#5918E6" transform="translate(232,214)"/>
<path d="M0 0 C0.99 0.33 1.98 0.66 3 1 C3.08082094 2.95766281 3.13910778 4.91626728 3.1875 6.875 C3.22230469 7.96554687 3.25710938 9.05609375 3.29296875 10.1796875 C3.19628906 11.11039062 3.09960938 12.04109375 3 13 C2.01 13.66 1.02 14.32 0 15 C-0.33 13.68 -0.66 12.36 -1 11 C-0.34 11 0.32 11 1 11 C0.67 10.34 0.34 9.68 0 9 C-0.06950541 7.45976004 -0.08452357 5.91665012 -0.0625 4.375 C-0.05347656 3.55773437 -0.04445313 2.74046875 -0.03515625 1.8984375 C-0.02355469 1.27195312 -0.01195312 0.64546875 0 0 Z " fill="#531AD3" transform="translate(268,348)"/>
<path d="M0 0 C0.66 0 1.32 0 2 0 C2 1.65 2 3.3 2 5 C2.99 5 3.98 5 5 5 C6.0625 7.375 6.0625 7.375 7 10 C6.67 10.66 6.34 11.32 6 12 C4.125 11.375 4.125 11.375 2 10 C0.875 7 0.875 7 0 4 C-0.66 3.34 -1.32 2.68 -2 2 C-1.34 1.34 -0.68 0.68 0 0 Z " fill="#531ADA" transform="translate(467,309)"/>
<path d="M0 0 C1.32 0.33 2.64 0.66 4 1 C3.34 6.61 2.68 12.22 2 18 C1.67 18 1.34 18 1 18 C0.97284617 16.25008666 0.95353449 14.50005055 0.9375 12.75 C0.92589844 11.77546875 0.91429687 10.8009375 0.90234375 9.796875 C0.98804423 7.34241322 1.29293934 5.33831086 2 3 C-0.97 5.475 -0.97 5.475 -4 8 C-2.87548273 5.0280615 -1.77706209 2.66559313 0 0 Z " fill="#5227BB" transform="translate(276,304)"/>
<path d="M0 0 C0 3 0 3 -1.5 4.6875 C-1.995 5.120625 -2.49 5.55375 -3 6 C-2.67 6.99 -2.34 7.98 -2 9 C-1.34 9.33 -0.68 9.66 0 10 C-1.8125 10.625 -1.8125 10.625 -4 11 C-4.99 10.34 -5.98 9.68 -7 9 C-6.67 10.98 -6.34 12.96 -6 15 C-6.99 15.495 -6.99 15.495 -8 16 C-9.49740933 11.86010363 -9.49740933 11.86010363 -9 9 C-6.33940896 5.60989207 -3.26229483 2.80442889 0 0 Z " fill="#5426BC" transform="translate(218,267)"/>
<path d="M0 0 C0.66 1.32 1.32 2.64 2 4 C-2.30769231 8.92307692 -2.30769231 8.92307692 -5.8125 9.3125 C-6.534375 9.209375 -7.25625 9.10625 -8 9 C-8 8.01 -8 7.02 -8 6 C-6.25 4.39453125 -6.25 4.39453125 -4 2.8125 C-3.2575 2.28269531 -2.515 1.75289062 -1.75 1.20703125 C-1.1725 0.80871094 -0.595 0.41039062 0 0 Z " fill="#662EDC" transform="translate(107,193)"/>
<path d="M0 0 C2 1 2 1 4 3 C4.556875 2.67 5.11375 2.34 5.6875 2 C8.30284522 0.8690399 10.1806646 0.84337026 13 1 C5.45054945 6.03296703 5.45054945 6.03296703 1.25 5.9375 C-1 5 -1 5 -2.3125 2.9375 C-2.539375 2.298125 -2.76625 1.65875 -3 1 C-2.01 0.67 -1.02 0.34 0 0 Z " fill="#5B29CE" transform="translate(123,184)"/>
<path d="M0 0 C0.33 0 0.66 0 1 0 C1 3.96 1 7.92 1 12 C0.34 12 -0.32 12 -1 12 C-1 12.99 -1 13.98 -1 15 C-1.66 15 -2.32 15 -3 15 C-3.22552339 9.36191513 -2.52663487 5.05326974 0 0 Z " fill="#4E1CCD" transform="translate(270,160)"/>
<path d="M0 0 C1.26823485 3.65393537 0.75715321 6.49070026 0.0625 10.25 C-0.13214844 11.32765625 -0.32679688 12.4053125 -0.52734375 13.515625 C-0.76130859 14.74539063 -0.76130859 14.74539063 -1 16 C-1.33 16 -1.66 16 -2 16 C-2.33 13.36 -2.66 10.72 -3 8 C-3.66 9.32 -4.32 10.64 -5 12 C-4.8864371 10.35333797 -4.75882619 8.70763918 -4.625 7.0625 C-4.55539062 6.14597656 -4.48578125 5.22945313 -4.4140625 4.28515625 C-4.27742188 3.53105469 -4.14078125 2.77695312 -4 2 C-3.34 1.67 -2.68 1.34 -2 1 C-1.67 1.66 -1.34 2.32 -1 3 C-0.67 2.01 -0.34 1.02 0 0 Z " fill="#5526BF" transform="translate(333,294)"/>
<path d="M0 0 C2 3 2 3 2 8 C5.3 8.66 8.6 9.32 12 10 C12 10.33 12 10.66 12 11 C10.02090602 11.02686553 8.04171029 11.04633375 6.0625 11.0625 C4.96035156 11.07410156 3.85820312 11.08570313 2.72265625 11.09765625 C0 11 0 11 -1 10 C-1.23880597 2.47761194 -1.23880597 2.47761194 0 0 Z " fill="#3C1892" transform="translate(318,157)"/>
<path d="M0 0 C4.29 0.66 8.58 1.32 13 2 C13 2.99 13 3.98 13 5 C11.56208484 4.85831863 10.1246763 4.71148957 8.6875 4.5625 C7.88699219 4.48128906 7.08648437 4.40007812 6.26171875 4.31640625 C4 4 4 4 1 3 C0.67 2.01 0.34 1.02 0 0 Z " fill="#5C18EB" transform="translate(132,376)"/>
<path d="M0 0 C1.06544301 3.19632902 1.19353531 3.97025652 0 7 C-2.0625 9.25 -2.0625 9.25 -4 11 C-4.99 10.67 -5.98 10.34 -7 10 C-5.6062718 5.56541027 -3.39417765 3.12621626 0 0 Z " fill="#5520D7" transform="translate(364,345)"/>
<path d="M0 0 C0.99 0 1.98 0 3 0 C3 0.99 3 1.98 3 3 C5.8684413 5.10232344 5.8684413 5.10232344 9 6 C9.6875 8.0625 9.6875 8.0625 10 10 C8.68 10 7.36 10 6 10 C5.67 9.34 5.34 8.68 5 8 C4.360625 7.9175 3.72125 7.835 3.0625 7.75 C2.381875 7.5025 1.70125 7.255 1 7 C-0.25 3.9375 -0.25 3.9375 -1 1 C-0.67 0.67 -0.34 0.34 0 0 Z " fill="#5D19EB" transform="translate(82,325)"/>
<path d="M0 0 C3.465 1.98 3.465 1.98 7 4 C7 5.65 7 7.3 7 9 C3.88626628 7.50079488 0.87771795 5.91847864 -2 4 C-2 3.34 -2 2.68 -2 2 C-1.34 2 -0.68 2 0 2 C0 1.34 0 0.68 0 0 Z " fill="#4E1FC6" transform="translate(50,296)"/>
<path d="M0 0 C-0.57575664 3.35250701 -1.59306263 4.93818629 -4.0625 7.25 C-4.88427734 8.03117187 -4.88427734 8.03117187 -5.72265625 8.828125 C-6.14417969 9.21484375 -6.56570312 9.6015625 -7 10 C-7.99 9.67 -8.98 9.34 -10 9 C-9.34 8.34 -8.68 7.68 -8 7 C-7.87625 6.360625 -7.7525 5.72125 -7.625 5.0625 C-6.4400514 1.15216963 -3.89796147 0 0 0 Z " fill="#5B26D9" transform="translate(43,264)"/>
<path d="M0 0 C1.57035335 2.49409061 2.0274945 3.70443416 1.75 6.6875 C1.5025 7.450625 1.255 8.21375 1 9 C0.01 9.495 0.01 9.495 -1 10 C-2.04808041 11.97522846 -3.0520411 13.97481509 -4 16 C-5.16344173 12.50967481 -4.76539718 11.43292372 -3.6875 8 C-3.42324219 7.13375 -3.15898437 6.2675 -2.88671875 5.375 C-2 3 -2 3 0 0 Z " fill="#5319DA" transform="translate(260,387)"/>
<path d="M0 0 C0.99 0.33 1.98 0.66 3 1 C2.33333333 3 1.66666667 5 1 7 C1.66 7 2.32 7 3 7 C2.67 8.98 2.34 10.96 2 13 C1.34 13 0.68 13 0 13 C-0.33 12.34 -0.66 11.68 -1 11 C-1.99 11.495 -1.99 11.495 -3 12 C-2.01 8.04 -1.02 4.08 0 0 Z " fill="#5D2FCB" transform="translate(261,378)"/>
<path d="M0 0 C0.66 0 1.32 0 2 0 C2 0.66 2 1.32 2 2 C2.66 2 3.32 2 4 2 C3.34 10.58 2.68 19.16 2 28 C1.67 28 1.34 28 1 28 C0.97293555 25.10410348 0.95312971 22.20846205 0.9375 19.3125 C0.92912109 18.49587891 0.92074219 17.67925781 0.91210938 16.83789062 C0.89557949 12.75500916 0.96964902 8.98348293 2 5 C1.34 4.67 0.68 4.34 0 4 C0 2.68 0 1.36 0 0 Z " fill="#562EB8" transform="translate(243,378)"/>
<path d="M0 0 C3.74815499 1.249385 4.22675643 2.89423471 5.9375 6.30859375 C7.04265597 8.32419272 7.04265597 8.32419272 10 10 C10 10.66 10 11.32 10 12 C8.68 12 7.36 12 6 12 C4.296875 10.13671875 4.296875 10.13671875 2.75 7.6875 C1.96882813 6.48673828 1.96882813 6.48673828 1.171875 5.26171875 C0 3 0 3 0 0 Z " fill="#4E18E2" transform="translate(314,363)"/>
<path d="M0 0 C1.485 0.99 1.485 0.99 3 2 C3.144375 2.825 3.28875 3.65 3.4375 4.5 C3.72912652 7.16822177 3.72912652 7.16822177 6.0625 8.3125 C6.701875 8.539375 7.34125 8.76625 8 9 C7.67 10.32 7.34 11.64 7 13 C4.10440971 10.85840368 1.3785683 8.71449367 -1 6 C-1 2.5625 -1 2.5625 0 0 Z " fill="#5F2DD4" transform="translate(66,307)"/>
<path d="M0 0 C5.99291003 0.41330414 9.25036599 1.31903365 14 5 C12.75 6.5625 12.75 6.5625 11 8 C8.8125 7.6875 8.8125 7.6875 7 7 C7 6.01 7 5.02 7 4 C6.1028125 3.566875 6.1028125 3.566875 5.1875 3.125 C3 2 3 2 0 0 Z " fill="#5E2FCF" transform="translate(358,245)"/>
<path d="M0 0 C0.66 0.99 1.32 1.98 2 3 C-0.76452033 4.38226016 -3.0461363 4.09525387 -6.125 4.0625 C-7.22070312 4.05347656 -8.31640625 4.04445312 -9.4453125 4.03515625 C-10.70988281 4.01775391 -10.70988281 4.01775391 -12 4 C-12 3.34 -12 2.68 -12 2 C-3.86503067 -0.55214724 -3.86503067 -0.55214724 0 0 Z " fill="#5A19E5" transform="translate(155,175)"/>
<path d="M0 0 C1.32 0.33 2.64 0.66 4 1 C4.33 4.96 4.66 8.92 5 13 C4.01 13.495 4.01 13.495 3 14 C3 11.69 3 9.38 3 7 C2.01 6.67 1.02 6.34 0 6 C0 4.02 0 2.04 0 0 Z " fill="#4E13D6" transform="translate(283,157)"/>
<path d="M0 0 C0 1.32 0 2.64 0 4 C-2.79870027 5.39935013 -4.90498792 5.25265405 -8 5 C-9.69140625 3.484375 -9.69140625 3.484375 -11 2 C-9.5422647 1.664061 -8.08378894 1.33133376 -6.625 1 C-5.40683594 0.7215625 -5.40683594 0.7215625 -4.1640625 0.4375 C-2 0 -2 0 0 0 Z " fill="#4D1AD3" transform="translate(489,317)"/>
<path d="M0 0 C0.66 0.33 1.32 0.66 2 1 C2.59355614 3.64860427 2.74209269 6.29197322 3 9 C2.01 8.34 1.02 7.68 0 7 C0.33 8.98 0.66 10.96 1 13 C-0.90318884 10.14521674 -1.4619099 8.58058692 -2.125 5.3125 C-2.29257812 4.50425781 -2.46015625 3.69601562 -2.6328125 2.86328125 C-2.75398438 2.24839844 -2.87515625 1.63351562 -3 1 C-2.01 0.67 -1.02 0.34 0 0 Z " fill="#5223C3" transform="translate(34,293)"/>
<path d="M0 0 C4.17906895 3.55994763 6.68559431 8.08663054 9 13 C9 13.66 9 14.32 9 15 C8.34 15 7.68 15 7 15 C4.37834975 11.47715747 2.58311405 8.07086469 1 4 C0.34 3.34 -0.32 2.68 -1 2 C-0.67 1.34 -0.34 0.68 0 0 Z " fill="#5F32C9" transform="translate(224,196)"/>
<path d="M0 0 C0.66 1.32 1.32 2.64 2 4 C1.34 4 0.68 4 0 4 C0.33 6.31 0.66 8.62 1 11 C0.01 11.33 -0.98 11.66 -2 12 C-3.35111663 4.19354839 -3.35111663 4.19354839 -2 1 C-1.34 0.67 -0.68 0.34 0 0 Z " fill="#5B20EA" transform="translate(275,143)"/>
<path d="M0 0 C0 1.32 0 2.64 0 4 C-2.97 4.66 -5.94 5.32 -9 6 C-8.3125 3.625 -8.3125 3.625 -7 1 C-2.71428571 -1.35714286 -2.71428571 -1.35714286 0 0 Z " fill="#5B19E5" transform="translate(204,377)"/>
<path d="M0 0 C1.32 1.65 2.64 3.3 4 5 C4.66 4.67 5.32 4.34 6 4 C5.67 6.64 5.34 9.28 5 12 C4.34 11.67 3.68 11.34 3 11 C3 10.01 3 9.02 3 8 C2.01 8 1.02 8 0 8 C-0.98120464 4.94736336 -0.98120464 3.05263664 0 0 Z " fill="#6C3DD9" transform="translate(235,326)"/>
<path d="M0 0 C0.66 0 1.32 0 2 0 C1.51058824 5.50588235 1.51058824 5.50588235 -0.9375 7.875 C-3 9 -3 9 -5 9 C-5 6.69 -5 4.38 -5 2 C-3.35 2 -1.7 2 0 2 C0 1.34 0 0.68 0 0 Z " fill="#5A1DE6" transform="translate(278,325)"/>
<path d="M0 0 C3.3 0.33 6.6 0.66 10 1 C9.01 1.495 9.01 1.495 8 2 C8 2.99 8 3.98 8 5 C4.37 4.34 0.74 3.68 -3 3 C-2.01 2.67 -1.02 2.34 0 2 C0 1.34 0 0.68 0 0 Z " fill="#5F29D4" transform="translate(324,373)"/>
<path d="M0 0 C0.33 0.99 0.66 1.98 1 3 C3.01508358 3.73323796 3.01508358 3.73323796 5 4 C3.69593116 6.01920337 2.36176581 8.01924973 1 10 C0.67 10 0.34 10 0 10 C0 8.35 0 6.7 0 5 C-1.98 5.99 -1.98 5.99 -4 7 C-2.79618552 4.50638429 -1.54571278 2.31856917 0 0 Z " fill="#5222C6" transform="translate(226,353)"/>
<path d="M0 0 C0.99 0 1.98 0 3 0 C2.67 2.64 2.34 5.28 2 8 C0.35 7.67 -1.3 7.34 -3 7 C-3.33 5.68 -3.66 4.36 -4 3 C-3.01 2.67 -2.02 2.34 -1 2 C-0.67 1.34 -0.34 0.68 0 0 Z " fill="#6527E4" transform="translate(230,349)"/>
<path d="M0 0 C1.875 0.25 1.875 0.25 4 1 C6.35535899 4.17973464 6.17494335 7.15124621 6 11 C4 10 4 10 3 7 C2.34 6.67 1.68 6.34 1 6 C0.375 2.9375 0.375 2.9375 0 0 Z " fill="#5B18E6" transform="translate(90,337)"/>
<path d="M0 0 C0 0.99 0 1.98 0 3 C-1.98 3.99 -3.96 4.98 -6 6 C-5.67 6.99 -5.34 7.98 -5 9 C-4.401875 8.649375 -3.80375 8.29875 -3.1875 7.9375 C-1 7 -1 7 2 8 C-1.13498292 9.85776765 -3.37471432 10.20140476 -7 10 C-7.66 8.35 -8.32 6.7 -9 5 C-8.43410156 4.72285156 -7.86820312 4.44570312 -7.28515625 4.16015625 C-6.55167969 3.79792969 -5.81820312 3.43570313 -5.0625 3.0625 C-3.96615234 2.52302734 -3.96615234 2.52302734 -2.84765625 1.97265625 C-1.03750973 1.13628173 -1.03750973 1.13628173 0 0 Z " fill="#4C1FB4" transform="translate(85,233)"/>
<path d="M0 0 C0.99 0 1.98 0 3 0 C3 2.97 3 5.94 3 9 C2.01 9.33 1.02 9.66 0 10 C-0.38922918 8.71254964 -0.76098036 7.41980403 -1.125 6.125 C-1.43824219 5.04605469 -1.43824219 5.04605469 -1.7578125 3.9453125 C-1.83773437 3.30335938 -1.91765625 2.66140625 -2 2 C-1.34 1.34 -0.68 0.68 0 0 Z " fill="#5B19E6" transform="translate(90,218)"/>
<path d="M0 0 C0.33 0 0.66 0 1 0 C2.125 5.625 2.125 5.625 1 9 C0.96125079 10.66621616 0.9549714 12.33394172 1 14 C1.66 14.33 2.32 14.66 3 15 C3.625 17.5625 3.625 17.5625 4 20 C1.21622453 17.59583028 -0.01765406 15.55155842 -1 12 C-1.56022409 3.12044818 -1.56022409 3.12044818 0 0 Z " fill="#4F25B5" transform="translate(58,217)"/>
<path d="M0 0 C0.6328125 1.8359375 0.6328125 1.8359375 1 4 C-1.9166062 7.60286648 -4.58256205 9.61166236 -9 11 C-6.62245212 6.50907623 -3.6393937 3.47764287 0 0 Z " fill="#471BB5" transform="translate(112,193)"/>
<path d="M0 0 C2.26273207 3.55818936 2.07331744 6.12547951 1.625 10.25 C1.51414062 11.32765625 1.40328125 12.4053125 1.2890625 13.515625 C1.19367188 14.33546875 1.09828125 15.1553125 1 16 C0.34 15.67 -0.32 15.34 -1 15 C-1.02703381 13.06257659 -1.04641125 11.12504521 -1.0625 9.1875 C-1.07410156 8.10855469 -1.08570313 7.02960938 -1.09765625 5.91796875 C-1 3 -1 3 0 0 Z " fill="#6425EF" transform="translate(292,186)"/>
<path d="M0 0 C0.66 0 1.32 0 2 0 C3.60725635 3.21451269 3.05748185 6.43612536 3 10 C1.68 10 0.36 10 -1 10 C-2.31223496 6.06329512 -1.24296256 3.87511856 0 0 Z " fill="#5C26DD" transform="translate(279,162)"/>
<path d="M0 0 C2.6486859 3.19668988 4.93992341 6.39486597 7 10 C6.34 10 5.68 10 5 10 C4.34 9.01 3.68 8.02 3 7 C2.34 7.66 1.68 8.32 1 9 C-2 5.25 -2 5.25 -2 3 C-1.34 3 -0.68 3 0 3 C0 2.01 0 1.02 0 0 Z " fill="#5529BD" transform="translate(42,312)"/>
<path d="M0 0 C2.79998966 0.50256225 3.69857595 1.24096435 5.4375 3.4375 C5.1075 4.0975 4.7775 4.7575 4.4375 5.4375 C2.1275 4.4475 -0.1825 3.4575 -2.5625 2.4375 C-2.253125 3.365625 -2.253125 3.365625 -1.9375 4.3125 C-1.81375 5.01375 -1.69 5.715 -1.5625 6.4375 C-2.2225 7.0975 -2.8825 7.7575 -3.5625 8.4375 C-3.5625 7.4475 -3.5625 6.4575 -3.5625 5.4375 C-4.5525 5.1075 -5.5425 4.7775 -6.5625 4.4375 C-3.292687 0.56216607 -3.292687 0.56216607 0 0 Z " fill="#4C21C3" transform="translate(404.5625,307.5625)"/>
<path d="M0 0 C0 0.33 0 0.66 0 1 C-1.27875 1.0825 -2.5575 1.165 -3.875 1.25 C-6.06861535 1.46608083 -6.06861535 1.46608083 -8 2 C-9.16666667 3.91666667 -9.16666667 3.91666667 -10 6 C-13.125 7.25 -13.125 7.25 -16 8 C-16 6 -16 6 -14 4 C-14 3.34 -14 2.68 -14 2 C-9.35150485 -0.3992233 -5.08913926 -0.19957409 0 0 Z " fill="#4B27B4" transform="translate(30,289)"/>
<path d="M0 0 C0.33 0.66 0.66 1.32 1 2 C1.66 2.33 2.32 2.66 3 3 C2.071875 3.3403125 2.071875 3.3403125 1.125 3.6875 C-1.61410209 5.37929835 -2.05024472 6.99244161 -3 10 C-3.66 9.34 -4.32 8.68 -5 8 C-5.99 8.495 -5.99 8.495 -7 9 C-6.8125 6.6875 -6.8125 6.6875 -6 4 C-3.5 2.25 -3.5 2.25 -1 1 C-0.67 0.67 -0.34 0.34 0 0 Z " fill="#4319AD" transform="translate(39,270)"/>
<path d="M0 0 C0 0.33 0 0.66 0 1 C-3.3 1 -6.6 1 -10 1 C-9.67 1.33 -9.34 1.66 -9 2 C-9 2.33 -9 2.66 -9 3 C-11.31 3 -13.62 3 -16 3 C-15.67 2.34 -15.34 1.68 -15 1 C-14.34 1 -13.68 1 -13 1 C-13 0.34 -13 -0.32 -13 -1 C-8.05632546 -2.20577428 -4.79137588 -1.6290678 0 0 Z " fill="#5721D7" transform="translate(192,174)"/>
<path d="M0 0 C4.85963179 0.60745397 8.7405518 2.72758967 13 5 C12.01 5.66 11.02 6.32 10 7 C10 6.34 10 5.68 10 5 C8.35 5.33 6.7 5.66 5 6 C3.35 4.02 1.7 2.04 0 0 Z " fill="#5B2CCE" transform="translate(113,364)"/>
<path d="M0 0 C2.31 0.66 4.62 1.32 7 2 C6.67 3.65 6.34 5.3 6 7 C4.125 6.875 4.125 6.875 2 6 C0.75 2.9375 0.75 2.9375 0 0 Z " fill="#591AE4" transform="translate(58,335)"/>
<path d="M0 0 C1.875 0.6875 1.875 0.6875 4 2 C4.72159424 3.64363134 5.39351421 5.31050386 6 7 C6.66 7.33 7.32 7.66 8 8 C6.02 8.99 6.02 8.99 4 10 C4 8.68 4 7.36 4 6 C3.01 6 2.02 6 1 6 C0.67 4.02 0.34 2.04 0 0 Z " fill="#591BE3" transform="translate(225,204)"/>
<path d="M0 0 C0.99 0.66 1.98 1.32 3 2 C2.4140625 8.15234375 2.4140625 8.15234375 2 10 C1.01 10.495 1.01 10.495 0 11 C0 10.01 0 9.02 0 8 C-0.66 8 -1.32 8 -2 8 C-1.125 2.25 -1.125 2.25 0 0 Z " fill="#481AB9" transform="translate(313,164)"/>
<path d="M0 0 C0.99 0.33 1.98 0.66 3 1 C2.60196439 3.88575819 2.20990931 4.82189513 -0.0625 6.75 C-0.701875 7.1625 -1.34125 7.575 -2 8 C-2.66 7.67 -3.32 7.34 -4 7 C-3.34 6.34 -2.68 5.68 -2 5 C-2.66 4.34 -3.32 3.68 -4 3 C-2.1875 1.4375 -2.1875 1.4375 0 0 Z " fill="#4F2ABD" transform="translate(300,309)"/>
<path d="M0 0 C2.34621048 4.69242096 -0.52933965 11.19584285 -2 16 C-2.33 16 -2.66 16 -3 16 C-3.25 9.375 -3.25 9.375 -1 6 C-1.66 6 -2.32 6 -3 6 C-2.42655063 3.13275314 -2.1385485 2.1385485 0 0 Z " fill="#5424C1" transform="translate(434,306)"/>
<path d="M0 0 C1.0326802 2.78823655 1.04509293 3.8677274 0.0625 6.75 C-0.288125 7.4925 -0.63875 8.235 -1 9 C-1.66 9 -2.32 9 -3 9 C-3.061875 9.5775 -3.12375 10.155 -3.1875 10.75 C-4.32027301 13.88690987 -6.34197595 15.09167504 -9 17 C-7.05119657 12.94234648 -4.6958185 9.17046284 -2.33984375 5.33984375 C-0.88020843 2.96895375 -0.88020843 2.96895375 0 0 Z " fill="#5326C3" transform="translate(228,250)"/>
<path d="M0 0 C-1.423125 0.928125 -1.423125 0.928125 -2.875 1.875 C-7.11576585 5.32562315 -7.41547115 9.80978696 -8 15 C-8.99 13.68 -9.98 12.36 -11 11 C-10.34 10.67 -9.68 10.34 -9 10 C-8.896875 8.72125 -8.79375 7.4425 -8.6875 6.125 C-8.30646349 2.26613935 -8.30646349 2.26613935 -5.625 -0.0625 C-3 -1 -3 -1 0 0 Z " fill="#4D21BB" transform="translate(71,213)"/>
<path d="M0 0 C3.3 0 6.6 0 10 0 C10 0.66 10 1.32 10 2 C11.32 2.66 12.64 3.32 14 4 C9.47118371 4.17760064 6.06668506 4.09143803 2 2 C1.34 1.34 0.68 0.68 0 0 Z " fill="#5A17EC" transform="translate(71,207)"/>
<path d="M0 0 C0.33 0 0.66 0 1 0 C1.95261487 4.76307437 2.08333357 9.1666528 2 14 C2.66 14 3.32 14 4 14 C4 12.35 4 10.7 4 9 C4.33 9 4.66 9 5 9 C5 11.31 5 13.62 5 16 C4.01 16 3.02 16 2 16 C0.13216954 10.51324804 -0.2358396 5.77807024 0 0 Z " fill="#5231B5" transform="translate(289,197)"/>
<path d="M0 0 C0.99 0.99 1.98 1.98 3 3 C-1.455 3.495 -1.455 3.495 -6 4 C-6 3.34 -6 2.68 -6 2 C-6.99 1.67 -7.98 1.34 -9 1 C-5.72429875 -0.09190042 -3.43202271 -0.28600189 0 0 Z " fill="#541AD5" transform="translate(75,208)"/>
<path d="M0 0 C7.75 -0.125 7.75 -0.125 10 1 C10 1.66 10 2.32 10 3 C6.37 3 2.74 3 -1 3 C-0.67 2.01 -0.34 1.02 0 0 Z " fill="#563EAE" transform="translate(345,164)"/>
<path d="M0 0 C0.99 0.495 0.99 0.495 2 1 C2.46806645 3.33744294 2.82669794 5.69739079 3.125 8.0625 C3.29257812 9.35285156 3.46015625 10.64320313 3.6328125 11.97265625 C3.75398438 12.97167969 3.87515625 13.97070312 4 15 C3.34 15 2.68 15 2 15 C-0.10428384 9.87080814 -0.21755666 5.4389165 0 0 Z " fill="#5516E3" transform="translate(309,346)"/>
<path d="M0 0 C0.99 0 1.98 0 3 0 C3 3.96 3 7.92 3 12 C0 8 0 8 -1 5 C-0.5625 2.3125 -0.5625 2.3125 0 0 Z " fill="#5B19E6" transform="translate(236,320)"/>
<path d="M0 0 C0.33 0.66 0.66 1.32 1 2 C0.06981474 3.46300982 -0.86944027 4.92025579 -1.8125 6.375 C-2.33457031 7.18710937 -2.85664063 7.99921875 -3.39453125 8.8359375 C-5 11 -5 11 -8 13 C-8 12.01 -8 11.02 -8 10 C-7.01 9.34 -6.02 8.68 -5 8 C-4.855625 7.01 -4.71125 6.02 -4.5625 5 C-4.376875 4.01 -4.19125 3.02 -4 2 C-1.9375 0.625 -1.9375 0.625 0 0 Z " fill="#5221C5" transform="translate(230,258)"/>
<path d="M0 0 C0.33 0 0.66 0 1 0 C1.33 3.3 1.66 6.6 2 10 C1.01 9.67 0.02 9.34 -1 9 C-1 12.63 -1 16.26 -1 20 C-1.33 20 -1.66 20 -2 20 C-2.21133202 12.95559921 -2.07965362 6.75887425 0 0 Z " fill="#5A34C9" transform="translate(304,130)"/>
<path d="M0 0 C0 0.99 0 1.98 0 3 C-0.99 3 -1.98 3 -3 3 C-3.33 3.66 -3.66 4.32 -4 5 C-8.875 3.25 -8.875 3.25 -10 1 C-6.56484998 0.37542727 -3.50935186 0 0 0 Z " fill="#6122E4" transform="translate(192,382)"/>
<path d="M0 0 C0.33 0.66 0.66 1.32 1 2 C2.98 1.34 4.96 0.68 7 0 C5.55527654 3.80881639 3.67396929 5.29742886 0 7 C-0.99 6.67 -1.98 6.34 -3 6 C-2.01 4.02 -1.02 2.04 0 0 Z " fill="#6122E6" transform="translate(208,371)"/>
<path d="M0 0 C2.97 0.33 5.94 0.66 9 1 C8.34 2.32 7.68 3.64 7 5 C4.0625 4.1875 4.0625 4.1875 1 3 C0.67 2.01 0.34 1.02 0 0 Z " fill="#591BDD" transform="translate(119,369)"/>
<path d="M0 0 C0.66 0 1.32 0 2 0 C2.66 1.32 3.32 2.64 4 4 C5.98 3.67 7.96 3.34 10 3 C9.67 3.763125 9.34 4.52625 9 5.3125 C7.82563314 7.99069135 7.82563314 7.99069135 8 11 C6.84501103 9.92643323 5.70132133 8.84070212 4.5625 7.75 C3.92441406 7.14671875 3.28632812 6.5434375 2.62890625 5.921875 C0.91483694 3.89951984 0.40641122 2.58729395 0 0 Z " fill="#4B1FBA" transform="translate(57,337)"/>
<path d="M0 0 C0.33 0.99 0.66 1.98 1 3 C2.32 2.34 3.64 1.68 5 1 C5.38218767 2.65614657 5.71395102 4.32457024 6 6 C5 7 5 7 1.9375 7.0625 C0.968125 7.041875 -0.00125 7.02125 -1 7 C-1.33 6.34 -1.66 5.68 -2 5 C-1.34 4.67 -0.68 4.34 0 4 C0 2.68 0 1.36 0 0 Z " fill="#4E1FBE" transform="translate(262,318)"/>
<path d="M0 0 C1.98 0.99 1.98 0.99 4 2 C3.67 2.66 3.34 3.32 3 4 C2.76827173 6.54615009 2.58105471 9.07396225 2.4375 11.625 C2.39431641 12.33140625 2.35113281 13.0378125 2.30664062 13.765625 C2.20055249 15.51018537 2.09977111 17.25506697 2 19 C1.67 19 1.34 19 1 19 C0.67 12.73 0.34 6.46 0 0 Z " fill="#5525C6" transform="translate(377,274)"/>
<path d="M0 0 C0.98120464 3.05263664 0.98120464 4.94736336 0 8 C-1.65 7.67 -3.3 7.34 -5 7 C-3.70700306 4.11562221 -2.34058637 2.12780579 0 0 Z " fill="#5C19E4" transform="translate(92,228)"/>
<path d="M0 0 C3.4375 1.3125 3.4375 1.3125 7 3 C7.33 3.99 7.66 4.98 8 6 C5.69 5.67 3.38 5.34 1 5 C1 4.34 1 3.68 1 3 C0.01 2.67 -0.98 2.34 -2 2 C-1.34 1.34 -0.68 0.68 0 0 Z " fill="#5C18E9" transform="translate(201,180)"/>
<path d="M0 0 C0.66 0 1.32 0 2 0 C0.64763423 2.93879484 -0.89942659 5.29232911 -3 7.75 C-3.515625 8.36359375 -4.03125 8.9771875 -4.5625 9.609375 C-6 11 -6 11 -8 11 C-8 10.34 -8 9.68 -8 9 C-7.34 9 -6.68 9 -6 9 C-6 8.34 -6 7.68 -6 7 C-5.34 7 -4.68 7 -4 7 C-4.33 6.01 -4.66 5.02 -5 4 C-4.360625 3.71125 -3.72125 3.4225 -3.0625 3.125 C-0.84793921 2.17176549 -0.84793921 2.17176549 0 0 Z " fill="#5A33C6" transform="translate(451,324)"/>
<path d="M0 0 C-0.33 1.65 -0.66 3.3 -1 5 C-3.97 4.505 -3.97 4.505 -7 4 C-7 3.01 -7 2.02 -7 1 C-4.53721199 -0.231394 -2.7204945 -0.07159196 0 0 Z " fill="#5A17EA" transform="translate(12,296)"/>
<path d="M0 0 C0.99 0.33 1.98 0.66 3 1 C2.67 4.3 2.34 7.6 2 11 C1.34 11 0.68 11 0 11 C0 7.37 0 3.74 0 0 Z " fill="#4D1BE0" transform="translate(303,139)"/>
<path d="M0 0 C1.98 0 3.96 0 6 0 C6 0.66 6 1.32 6 2 C6.99 2.33 7.98 2.66 9 3 C9 3.33 9 3.66 9 4 C6.69 4 4.38 4 2 4 C1.34 2.68 0.68 1.36 0 0 Z " fill="#5918EF" transform="translate(150,381)"/>
<path d="M0 0 C2.31 1.65 4.62 3.3 7 5 C6.01 5.495 6.01 5.495 5 6 C4.01 5.67 3.02 5.34 2 5 C2 6.32 2 7.64 2 9 C0.68 8.34 -0.64 7.68 -2 7 C-1.01 6.67 -0.02 6.34 1 6 C0.67 4.02 0.34 2.04 0 0 Z " fill="#4B21B9" transform="translate(96,350)"/>
<path d="M0 0 C3.88862987 1.26117725 5.89375599 2.45264167 8 6 C8 6.66 8 7.32 8 8 C7.01 7.67 6.02 7.34 5 7 C5 6.01 5 5.02 5 4 C3.35 4 1.7 4 0 4 C0 2.68 0 1.36 0 0 Z " fill="#5A17EB" transform="translate(217,284)"/>
<path d="M0 0 C0.33 0 0.66 0 1 0 C1.07654536 4.51617599 1.10228696 8.59085217 0 13 C-2.32590854 9.36576791 -2.16265833 6.22911669 -2 2 C-1.34 2 -0.68 2 0 2 C0 1.34 0 0.68 0 0 Z " fill="#400BCC" transform="translate(296,163)"/>
<path d="M0 0 C0.99 0 1.98 0 3 0 C3.144375 0.78375 3.28875 1.5675 3.4375 2.375 C3.87798925 4.96421018 3.87798925 4.96421018 5 7 C2.03 6.505 2.03 6.505 -1 6 C-1 5.34 -1 4.68 -1 4 C-1.66 3.67 -2.32 3.34 -3 3 C-2.01 3 -1.02 3 0 3 C0 2.01 0 1.02 0 0 Z " fill="#541DD3" transform="translate(145,378)"/>
<path d="M0 0 C2.62187494 1.04874998 3.79371361 1.64931313 5.25 4.125 C5.4975 4.74375 5.745 5.3625 6 6 C5.01 5.67 4.02 5.34 3 5 C2.67 4.34 2.34 3.68 2 3 C1.34 4.32 0.68 5.64 0 7 C-1.32 6.67 -2.64 6.34 -4 6 C-3.525625 5.566875 -3.05125 5.13375 -2.5625 4.6875 C-0.76313043 2.97690387 -0.76313043 2.97690387 0 0 Z " fill="#4F1DC2" transform="translate(90,344)"/>
<path d="M0 0 C2 1 2 1 3.125 2.9375 C4.37069969 7.29744893 4.15742081 11.49601581 4 16 C3.67 16 3.34 16 3 16 C2.86722656 15.28972656 2.73445313 14.57945312 2.59765625 13.84765625 C2.42105469 12.92855469 2.24445313 12.00945312 2.0625 11.0625 C1.88847656 10.14597656 1.71445313 9.22945313 1.53515625 8.28515625 C1.22285012 6.04710156 1.22285012 6.04710156 0 5 C-0.04063832 3.33382885 -0.042721 1.66611905 0 0 Z " fill="#5D30C0" transform="translate(93,333)"/>
<path d="M0 0 C0.66 0 1.32 0 2 0 C2.33 0.66 2.66 1.32 3 2 C5.02463255 2.65213292 5.02463255 2.65213292 7 3 C7 3.66 7 4.32 7 5 C5.0085944 5.38133299 3.00720923 5.71325582 1 6 C0 5 0 5 -0.0625 2.4375 C-0.041875 1.633125 -0.02125 0.82875 0 0 Z " fill="#521BDA" transform="translate(411,322)"/>
<path d="M0 0 C1.65 0 3.3 0 5 0 C5.33 1.65 5.66 3.3 6 5 C4.68 5.33 3.36 5.66 2 6 C2 5.01 2 4.02 2 3 C1.34 3 0.68 3 0 3 C0 2.01 0 1.02 0 0 Z " fill="#5B1AE9" transform="translate(75,319)"/>
<path d="M0 0 C0.33 0 0.66 0 1 0 C1.08159574 4.16138263 0.98248524 7.9472484 0 12 C-0.99 12 -1.98 12 -3 12 C-2.25749403 7.91621717 -1.17076699 3.98060777 0 0 Z " fill="#5627C9" transform="translate(312,179)"/>
<path d="M0 0 C0.66 0 1.32 0 2 0 C2.22162329 1.62324086 2.42689803 3.248721 2.625 4.875 C2.74101562 5.77992188 2.85703125 6.68484375 2.9765625 7.6171875 C2.98429687 8.40351563 2.99203125 9.18984375 3 10 C2.34 10.66 1.68 11.32 1 12 C0 11 0 11 -0.09765625 8.49609375 C-0.08605469 7.48675781 -0.07445312 6.47742188 -0.0625 5.4375 C-0.05347656 4.42558594 -0.04445313 3.41367188 -0.03515625 2.37109375 C-0.02355469 1.58863281 -0.01195312 0.80617187 0 0 Z " fill="#5319DF" transform="translate(307,172)"/>
<path d="M0 0 C0.33 0.66 0.66 1.32 1 2 C1.99 2 2.98 2 4 2 C3.34 3.65 2.68 5.3 2 7 C1.34 7 0.68 7 0 7 C0 6.34 0 5.68 0 5 C-1.98 5.99 -1.98 5.99 -4 7 C-2.79618552 4.50638429 -1.54571278 2.31856917 0 0 Z " fill="#5625C2" transform="translate(357,353)"/>
<path d="M0 0 C0 4.27598198 -0.15286766 7.1004984 -2 11 C-2.99 11.495 -2.99 11.495 -4 12 C-4.33292585 7.75519536 -4.43885872 5.64457375 -2 2.0625 C-1.34 1.381875 -0.68 0.70125 0 0 Z " fill="#5226C3" transform="translate(266,338)"/>
<path d="M0 0 C1.32 0 2.64 0 4 0 C4.33 1.32 4.66 2.64 5 4 C3.35 4.33 1.7 4.66 0 5 C-0.5625 3.0625 -0.5625 3.0625 -1 1 C-0.67 0.67 -0.34 0.34 0 0 Z " fill="#5E27E5" transform="translate(73,239)"/>
<path d="M0 0 C2.64 0.33 5.28 0.66 8 1 C8 1.99 8 2.98 8 4 C5.03 4 2.06 4 -1 4 C-0.01 3.34 0.98 2.68 2 2 C1.34 1.34 0.68 0.68 0 0 Z " fill="#5E49A4" transform="translate(382,164)"/>
<path d="M0 0 C4.62 0 9.24 0 14 0 C13.01 0.66 12.02 1.32 11 2 C10.01 1.67 9.02 1.34 8 1 C8 1.66 8 2.32 8 3 C2.25 2.25 2.25 2.25 0 0 Z " fill="#9E92CE" transform="translate(356,164)"/>
<path d="M0 0 C1.32 0 2.64 0 4 0 C4.33 3.63 4.66 7.26 5 11 C2.8480563 7.77208445 2.79913557 6.71599191 3 3 C2.01 3.33 1.02 3.66 0 4 C0 2.68 0 1.36 0 0 Z " fill="#4727A7" transform="translate(298,107)"/>
<path d="M0 0 C0.66 0 1.32 0 2 0 C2.33 1.65 2.66 3.3 3 5 C2.01 5.33 1.02 5.66 0 6 C0 6.99 0 7.98 0 9 C-0.66 9 -1.32 9 -2 9 C-1.34 6.03 -0.68 3.06 0 0 Z " fill="#5B22DD" transform="translate(373,321)"/>
<path d="M0 0 C0.99 0 1.98 0 3 0 C2.125 4.75 2.125 4.75 1 7 C0.01 7 -0.98 7 -2 7 C-2 5.68 -2 4.36 -2 3 C-1.34 3 -0.68 3 0 3 C0 2.01 0 1.02 0 0 Z " fill="#4612D6" transform="translate(325,273)"/>
<path d="M0 0 C2.97 0.33 5.94 0.66 9 1 C7 3 7 3 4.8359375 3.1953125 C3.61777344 3.16050781 3.61777344 3.16050781 2.375 3.125 C1.55773437 3.10695312 0.74046875 3.08890625 -0.1015625 3.0703125 C-0.72804688 3.04710937 -1.35453125 3.02390625 -2 3 C-1.34 2.67 -0.68 2.34 0 2 C0 1.34 0 0.68 0 0 Z " fill="#5218E0" transform="translate(356,246)"/>
<path d="M0 0 C2.20914 3.31371 2.22481553 4.3446021 2.125 8.1875 C2.10695313 9.08855469 2.08890625 9.98960937 2.0703125 10.91796875 C2.03550781 11.94857422 2.03550781 11.94857422 2 13 C1.01 13.495 1.01 13.495 0 14 C-1.11256539 10.66230383 -0.80685967 10.22743866 0 7 C0.03888349 4.66699067 0.0448635 2.33290199 0 0 Z " fill="#6E32F1" transform="translate(309,173)"/>
<path d="M0 0 C-0.33 0.99 -0.66 1.98 -1 3 C-3.5625 4.1875 -3.5625 4.1875 -6 5 C-6 4.34 -6 3.68 -6 3 C-6.66 2.67 -7.32 2.34 -8 2 C-4.77208445 -0.1519437 -3.71599191 -0.20086443 0 0 Z " fill="#5D19E8" transform="translate(132,183)"/>
<path d="M0 0 C0.99 0 1.98 0 3 0 C2.6875 2.875 2.6875 2.875 2 6 C1.01 6.66 0.02 7.32 -1 8 C-1.125 2.25 -1.125 2.25 0 0 Z " fill="#521FD3" transform="translate(368,332)"/>
<path d="M0 0 C2.125 0.9375 2.125 0.9375 4 2 C4 2.99 4 3.98 4 5 C2.68 5 1.36 5 0 5 C0 4.34 0 3.68 0 3 C-0.66 3 -1.32 3 -2 3 C-2 2.34 -2 1.68 -2 1 C-1.34 0.67 -0.68 0.34 0 0 Z " fill="#5A1AE1" transform="translate(30,289)"/>
<path d="M0 0 C0.66 0.33 1.32 0.66 2 1 C2.59355614 3.64860427 2.74209269 6.29197322 3 9 C2.01 8.67 1.02 8.34 0 8 C-0.79953138 4.71303767 -1.09658936 3.28976808 0 0 Z " fill="#6638D9" transform="translate(245,372)"/>
<path d="M0 0 C1.09658936 3.28976808 0.79953138 4.71303767 0 8 C-1.65 8.33 -3.3 8.66 -5 9 C-5.33 8.01 -5.66 7.02 -6 6 C-5.38125 5.938125 -4.7625 5.87625 -4.125 5.8125 C-1.72238859 5.171081 -1.72238859 5.171081 -0.75 2.4375 C-0.5025 1.633125 -0.255 0.82875 0 0 Z " fill="#6729ED" transform="translate(396,314)"/>
<path d="M0 0 C0.99 0.99 1.98 1.98 3 3 C2.01 4.485 2.01 4.485 1 6 C0.01 6 -0.98 6 -2 6 C-2 4.35 -2 2.7 -2 1 C-1.34 0.67 -0.68 0.34 0 0 Z " fill="#5126C6" transform="translate(459,309)"/>
<path d="M0 0 C2.5 1.3125 2.5 1.3125 5 3 C5 3.99 5 4.98 5 6 C3.35 5.67 1.7 5.34 0 5 C-0.33 4.01 -0.66 3.02 -1 2 C-0.67 1.34 -0.34 0.68 0 0 Z " fill="#5E30D4" transform="translate(57,300)"/>
<path d="M0 0 C0.99 0 1.98 0 3 0 C3.125 5.75 3.125 5.75 2 8 C1.34 8 0.68 8 0 8 C0 5.36 0 2.72 0 0 Z " fill="#5219D6" transform="translate(378,294)"/>
<path d="M0 0 C1.20628008 2.33214148 2.1654738 4.49642139 3 7 C2.0625 9.6875 2.0625 9.6875 1 12 C0.4465236 9.92446352 0 8.15634036 0 6 C-0.66 6 -1.32 6 -2 6 C-1.34 4.02 -0.68 2.04 0 0 Z " fill="#572EC1" transform="translate(320,280)"/>
<path d="M0 0 C1.32 0.66 2.64 1.32 4 2 C3.34 3.65 2.68 5.3 2 7 C1.67 6.01 1.34 5.02 1 4 C0.01 4.99 -0.98 5.98 -2 7 C-2.66 6.67 -3.32 6.34 -4 6 C-2.68 4.02 -1.36 2.04 0 0 Z " fill="#4820B8" transform="translate(329,265)"/>
<path d="M0 0 C1.32 0.66 2.64 1.32 4 2 C4 2.66 4 3.32 4 4 C1.39417629 4.93065133 0.35801776 5.14917407 -2.25 4.0625 C-2.8275 3.711875 -3.405 3.36125 -4 3 C-2.68 2.01 -1.36 1.02 0 0 Z " fill="#5519DA" transform="translate(66,235)"/>
<path d="M0 0 C0.33 0 0.66 0 1 0 C1 1.98 1 3.96 1 6 C1.66 6.33 2.32 6.66 3 7 C1.68 8.32 0.36 9.64 -1 11 C-1.66 10.67 -2.32 10.34 -3 10 C-2.01 6.7 -1.02 3.4 0 0 Z " fill="#5D2CC9" transform="translate(89,222)"/>
<path d="M0 0 C0.33 1.32 0.66 2.64 1 4 C1.66 4 2.32 4 3 4 C3 3.01 3 2.02 3 1 C3.66 1.33 4.32 1.66 5 2 C4.6875 3.9375 4.6875 3.9375 4 6 C3.01 6.33 2.02 6.66 1 7 C0.34 7.66 -0.32 8.32 -1 9 C-0.67 6.03 -0.34 3.06 0 0 Z " fill="#6E42D8" transform="translate(266,171)"/>
<path d="M0 0 C0.33 0 0.66 0 1 0 C1.33 1.98 1.66 3.96 2 6 C2.66 4.68 3.32 3.36 4 2 C3.67 4.31 3.34 6.62 3 9 C2.01 9.33 1.02 9.66 0 10 C0 6.7 0 3.4 0 0 Z " fill="#5933B9" transform="translate(285,164)"/>
<path d="M0 0 C0.66 0 1.32 0 2 0 C2 3.3 2 6.6 2 10 C1.01 9.34 0.02 8.68 -1 8 C-0.67 5.36 -0.34 2.72 0 0 Z " fill="#400BC6" transform="translate(296,148)"/>
<path d="M0 0 C1.39195915 4.17587745 -0.17676781 6.13474776 -2 10 C-4 7 -4 7 -4 4 C-3.01 4 -2.02 4 -1 4 C-0.67 2.68 -0.34 1.36 0 0 Z " fill="#541BDE" transform="translate(250,366)"/>
<path d="M0 0 C0.66 0.33 1.32 0.66 2 1 C1.34 1.66 0.68 2.32 0 3 C-0.144375 3.825 -0.28875 4.65 -0.4375 5.5 C-1 8 -1 8 -4 10 C-3.38461538 3.47692308 -3.38461538 3.47692308 -1.4375 1.0625 C-0.7259375 0.5365625 -0.7259375 0.5365625 0 0 Z " fill="#4D1CC2" transform="translate(283,321)"/>
<path d="M0 0 C1.98 0 3.96 0 6 0 C6 0.99 6 1.98 6 3 C2.25 4.125 2.25 4.125 0 3 C0 2.01 0 1.02 0 0 Z " fill="#5927D4" transform="translate(44,295)"/>
<path d="M0 0 C3 1 3 1 5 4 C4.67 4.99 4.34 5.98 4 7 C3.34 7 2.68 7 2 7 C0.5393715 4.35261084 0 3.10551666 0 0 Z " fill="#4B17D2" transform="translate(314,363)"/>
<path d="M0 0 C1.051875 0.474375 2.10375 0.94875 3.1875 1.4375 C6.10175851 2.69323741 8.84746914 3.52234381 12 4 C12 4.33 12 4.66 12 5 C8.37 4.67 4.74 4.34 1 4 C0.67 2.68 0.34 1.36 0 0 Z " fill="#5C2FC5" transform="translate(74,347)"/>
<path d="M0 0 C0.66 0 1.32 0 2 0 C1.67 2.31 1.34 4.62 1 7 C0.01 7 -0.98 7 -2 7 C-1.34 4.69 -0.68 2.38 0 0 Z " fill="#4B12D6" transform="translate(261,344)"/>
<path d="M0 0 C0.33 0.99 0.66 1.98 1 3 C1.66 3 2.32 3 3 3 C3 4.65 3 6.3 3 8 C2.01 8 1.02 8 0 8 C-0.38063221 5.6739143 -0.71269945 3.33944736 -1 1 C-0.67 0.67 -0.34 0.34 0 0 Z " fill="#531ADD" transform="translate(374,257)"/>
<path d="M0 0 C1.98 1.32 3.96 2.64 6 4 C4.02 4.99 4.02 4.99 2 6 C2 5.34 2 4.68 2 4 C0.35 4 -1.3 4 -3 4 C-2.67 3.01 -2.34 2.02 -2 1 C-1.34 0.67 -0.68 0.34 0 0 Z " fill="#4618AC" transform="translate(119,186)"/>
<path d="M0 0 C0.66 0 1.32 0 2 0 C1.67 1.65 1.34 3.3 1 5 C-0.32 5 -1.64 5 -3 5 C-1.125 1.125 -1.125 1.125 0 0 Z " fill="#6030E1" transform="translate(352,362)"/>
<path d="M0 0 C0.99 0.33 1.98 0.66 3 1 C3 2.65 3 4.3 3 6 C3.99 6.33 4.98 6.66 6 7 C5.67 7.66 5.34 8.32 5 9 C1.7457985 6.16569547 0.4793247 4.31392226 0 0 Z " fill="#5623CC" transform="translate(88,337)"/>
<path d="M0 0 C-0.33 1.98 -0.66 3.96 -1 6 C-1.99 6 -2.98 6 -4 6 C-4 4.35 -4 2.7 -4 1 C-2 0 -2 0 0 0 Z " fill="#4310D4" transform="translate(342,265)"/>
<path d="M0 0 C1.65 0.33 3.3 0.66 5 1 C4.67 1.99 4.34 2.98 4 4 C2.35 4 0.7 4 -1 4 C-0.67 2.68 -0.34 1.36 0 0 Z " fill="#561DDD" transform="translate(117,189)"/>
<path d="M0 0 C2.64 0 5.28 0 8 0 C8 0.66 8 1.32 8 2 C8.99 2.33 9.98 2.66 11 3 C9 4 9 4 6.8359375 3.44140625 C6.02382812 3.15136719 5.21171875 2.86132812 4.375 2.5625 C3.55773437 2.27503906 2.74046875 1.98757812 1.8984375 1.69140625 C1.27195313 1.46324219 0.64546875 1.23507813 0 1 C0 0.67 0 0.34 0 0 Z " fill="#5426BD" transform="translate(187,179)"/>
<path d="M0 0 C2.31 0 4.62 0 7 0 C7 0.99 7 1.98 7 3 C5.02 3 3.04 3 1 3 C0.67 2.01 0.34 1.02 0 0 Z " fill="#8062E3" transform="translate(222,164)"/>
<path d="M0 0 C1.32 0.33 2.64 0.66 4 1 C3.34 2.98 2.68 4.96 2 7 C1.34 6.67 0.68 6.34 0 6 C0 4.02 0 2.04 0 0 Z " fill="#5A17EE" transform="translate(283,157)"/>
<path d="M0 0 C3.96 1.98 3.96 1.98 8 4 C8 4.66 8 5.32 8 6 C5.07120629 5.37240135 2.63904371 4.41377341 0 3 C0 2.01 0 1.02 0 0 Z " fill="#4315A3" transform="translate(118,370)"/>
<path d="M0 0 C0.66 0 1.32 0 2 0 C2.33 0.99 2.66 1.98 3 3 C1.68 3.99 0.36 4.98 -1 6 C-1.625 4.125 -1.625 4.125 -2 2 C-1.34 1.34 -0.68 0.68 0 0 Z " fill="#4D18D1" transform="translate(355,358)"/>
<path d="M0 0 C0.66 0.33 1.32 0.66 2 1 C1.67 2.65 1.34 4.3 1 6 C-0.32 6 -1.64 6 -3 6 C-1.125 1.125 -1.125 1.125 0 0 Z " fill="#5D17EB" transform="translate(225,357)"/>
<path d="M0 0 C0.66 1.32 1.32 2.64 2 4 C1.01 4.99 0.02 5.98 -1 7 C-1.66 6.01 -2.32 5.02 -3 4 C-2.01 2.68 -1.02 1.36 0 0 Z " fill="#4D1AD9" transform="translate(267,338)"/>
<path d="M0 0 C2.64 0.33 5.28 0.66 8 1 C8 1.66 8 2.32 8 3 C5.69 3 3.38 3 1 3 C0.67 2.01 0.34 1.02 0 0 Z " fill="#4B11E7" transform="translate(431,334)"/>
<path d="M0 0 C0.99 0 1.98 0 3 0 C2.67 2.31 2.34 4.62 2 7 C1.34 7 0.68 7 0 7 C0 4.69 0 2.38 0 0 Z " fill="#5918EC" transform="translate(235,334)"/>
<path d="M0 0 C1.65 0 3.3 0 5 0 C5 0.66 5 1.32 5 2 C2 4 2 4 -1 4 C-0.67 2.68 -0.34 1.36 0 0 Z " fill="#4A18E0" transform="translate(468,325)"/>
<path d="M0 0 C2.97 0.495 2.97 0.495 6 1 C6.33 1.99 6.66 2.98 7 4 C4.69 3.34 2.38 2.68 0 2 C0 1.34 0 0.68 0 0 Z " fill="#5A25E6" transform="translate(402,310)"/>
<path d="M0 0 C0.99 0.33 1.98 0.66 3 1 C2.67 2.98 2.34 4.96 2 7 C1.67 5.68 1.34 4.36 1 3 C0.01 3.33 -0.98 3.66 -2 4 C-1.34 2.68 -0.68 1.36 0 0 Z " fill="#5731B9" transform="translate(262,302)"/>
<path d="M0 0 C0.33 0.99 0.66 1.98 1 3 C2.65 3.33 4.3 3.66 6 4 C5.01 4.99 4.02 5.98 3 7 C2.01 6.34 1.02 5.68 0 5 C-0.1875 2.375 -0.1875 2.375 0 0 Z " fill="#5E31CB" transform="translate(4,297)"/>
<path d="M0 0 C2.475 0.99 2.475 0.99 5 2 C4.67 2.66 4.34 3.32 4 4 C3.34 4 2.68 4 2 4 C1.67 4.66 1.34 5.32 1 6 C0 5 0 5 -0.0625 2.4375 C-0.041875 1.633125 -0.02125 0.82875 0 0 Z " fill="#5917DE" transform="translate(211,276)"/>
<path d="M0 0 C0.66 1.32 1.32 2.64 2 4 C1.34 4 0.68 4 0 4 C0 4.99 0 5.98 0 7 C-0.66 7 -1.32 7 -2 7 C-2 5.02 -2 3.04 -2 1 C-1.34 0.67 -0.68 0.34 0 0 Z " fill="#6C33E5" transform="translate(275,143)"/>
</svg>
