<svg xmlns="http://www.w3.org/2000/svg" width="500" height="500" version="1.2" viewBox="0 0 375 375"><defs><clipPath id="a"><path d="M10 35h336v306H10Zm0 0"/></clipPath><clipPath id="b"><path d="m334.9 29.3 16.5 306.3-334.8 18.1L.1 47.4Zm0 0"/></clipPath><clipPath id="c"><path d="m334.9 29.3 16.5 306.3-334.8 18.1L.1 47.4Zm0 0"/></clipPath><clipPath id="d"><path d="M10 30h336v307H10Zm0 0"/></clipPath><clipPath id="e"><path d="m334.9 25.3 16.5 306.3-334.8 18L.1 43.3Zm0 0"/></clipPath><clipPath id="f"><path d="m334.9 25.3 16.5 306.3-334.8 18L.1 43.3Zm0 0"/></clipPath></defs><g clip-path="url(#a)"><g clip-path="url(#b)"><g clip-path="url(#c)"><path d="M111.8 109.8c1.7-.6 13-3.5 10.6 5.5-2.6 10-22.5 8-22.5 8-.6-2.4-4.4-19.6 5.1-23.3 8.7-3.5 7.2 8 6.8 9.8Zm126 229.8a169.4 169.4 0 0 1-65-20.3 258.1 258.1 0 0 1-35.5-22.8c-8.3 7.6-23 5.8-33.3-4.3l-15-14.7a4.5 4.5 0 0 1-1.2-4c-5-4.9-15.9-15.8-25.1-29.4a87.8 87.8 0 0 1-14.5-32.4c-8.3-.8-16.5.7-24 5.7l-.4.3c0 2.8-2.1 6.6-4 8.2-2.5 2-6 1.7-8-.7-2-2.5-1.8-6 .7-8 1.9-1.6 5.8-3 8.6-2.6 0-.2.2-.4.4-.6l.3-.3a39.5 39.5 0 0 1 25.8-6.5A39.8 39.8 0 0 1 54 181c.2-.2.4-.4.6-.4a13 13 0 0 1 2.4-8.7 5.7 5.7 0 1 1 9 7.2c-1.6 2-5.5 4.3-8.2 4.2l-.3.5a35 35 0 0 0-5.2 24c10 1.7 21 6.3 32.6 13.9a185 185 0 0 1 29.7 24.6c1.5-.4 3 0 4.3 1.2l15 14.6c8.4 8.4 11.3 20 7.8 28.4a252.5 252.5 0 0 0 34.8 22.4c11 5.8 22.2 10.4 33.2 13.7 9.7 2.9 19.4 4.8 29 5.7a101 101 0 0 0 36.5-2.8 88.4 88.4 0 0 0 37.5-21.5 85.4 85.4 0 0 0 22.7-37.2 65 65 0 0 0 .5-35.9 75.6 75.6 0 0 0-14.8-27.5c-5.5-6.6-12.1-13-19.8-18.7a3.8 3.8 0 0 1-1.4-3.9 3.8 3.8 0 0 1 1-4c7-6.5 13-13.5 17.6-20.7a76.7 76.7 0 0 0 11.8-29c2-11.5.4-23.9-4.4-35.4A85.3 85.3 0 0 0 299.4 61a89.1 89.1 0 0 0-39.6-17.3 98.8 98.8 0 0 0-36.6 1.2c-9.4 1.9-18.9 4.9-28.3 8.8A190 190 0 0 0 163.4 71a250 250 0 0 0-32.7 26.5 26.4 26.4 0 0 1-20 42.1A26.5 26.5 0 1 1 125.6 92c11-10.5 22.4-19.7 33.8-27.3A192.3 192.3 0 0 1 192 46.8c9.7-4.2 19.8-7.3 29.6-9.3 13.9-2.8 27.1-3.2 39.3-1.2a96.4 96.4 0 0 1 43 18.8 95 95 0 0 1 28.6 37.7c5.3 12.9 7 26.6 4.8 39.6a83 83 0 0 1-12.9 31.8c-4.5 7-10.2 13.8-16.8 20.2 7.2 5.7 13.6 11.9 19 18.3a82.7 82.7 0 0 1 16.1 30.2 72.5 72.5 0 0 1-.5 39.9 93 93 0 0 1-24.6 40.5 96.4 96.4 0 0 1-40.7 23.3c-11.9 3.4-25 4.4-39.1 3ZM128.3 112a19.1 19.1 0 0 0-38 2 19.1 19.1 0 0 0 38-2Zm3.4 177.7c4.6-4.7 2.7-14.5-4.2-21.3l-15-14.7a4.4 4.4 0 0 1-1.1-4.3c-8-8.1-33.2-32-58.4-37 5.3 25.1 29.7 50 38 57.7 1.5-.4 3.2 0 4.4 1.1l15 14.7c6.9 6.8 16.6 8.5 21.3 3.8Zm0 0" style="stroke:none;fill-rule:nonzero;fill:#1800ad;fill-opacity:1"/><path d="M111.8 109.8c1.7-.6 13-3.5 10.6 5.5-2.6 10-22.5 8-22.5 8-.6-2.4-4.4-19.6 5.1-23.3 8.7-3.5 7.2 8 6.8 9.8Zm126 229.8a169.4 169.4 0 0 1-65-20.3 258.1 258.1 0 0 1-35.5-22.8c-8.3 7.6-23 5.8-33.3-4.3l-15-14.7a4.5 4.5 0 0 1-1.2-4c-5-4.9-15.9-15.8-25.1-29.4a87.8 87.8 0 0 1-14.5-32.4c-8.3-.8-16.5.7-24 5.7l-.4.3c0 2.8-2.1 6.6-4 8.2-2.5 2-6 1.7-8-.7-2-2.5-1.8-6 .7-8 1.9-1.6 5.8-3 8.6-2.6 0-.2.2-.4.4-.6l.3-.3a39.5 39.5 0 0 1 25.8-6.5A39.8 39.8 0 0 1 54 181c.2-.2.4-.4.6-.4a13 13 0 0 1 2.4-8.7 5.7 5.7 0 1 1 9 7.2c-1.6 2-5.5 4.3-8.2 4.2l-.3.5a35 35 0 0 0-5.2 24c10 1.7 21 6.3 32.6 13.9a185 185 0 0 1 29.7 24.6c1.5-.4 3 0 4.3 1.2l15 14.6c8.4 8.4 11.3 20 7.8 28.4a252.5 252.5 0 0 0 34.8 22.4c11 5.8 22.2 10.4 33.2 13.7 9.7 2.9 19.4 4.8 29 5.7a101 101 0 0 0 36.5-2.8 88.4 88.4 0 0 0 37.5-21.5 85.4 85.4 0 0 0 22.7-37.2 65 65 0 0 0 .5-35.9 75.6 75.6 0 0 0-14.8-27.5c-5.5-6.6-12.1-13-19.8-18.7a3.8 3.8 0 0 1-1.4-3.9 3.8 3.8 0 0 1 1-4c7-6.5 13-13.5 17.6-20.7a76.7 76.7 0 0 0 11.8-29c2-11.5.4-23.9-4.4-35.4A85.3 85.3 0 0 0 299.4 61a89.1 89.1 0 0 0-39.6-17.3 98.8 98.8 0 0 0-36.6 1.2c-9.4 1.9-18.9 4.9-28.3 8.8A190 190 0 0 0 163.4 71a250 250 0 0 0-32.7 26.5 26.4 26.4 0 0 1-20 42.1A26.5 26.5 0 1 1 125.6 92c11-10.5 22.4-19.7 33.8-27.3A192.3 192.3 0 0 1 192 46.8c9.7-4.2 19.8-7.3 29.6-9.3 13.9-2.8 27.1-3.2 39.3-1.2a96.4 96.4 0 0 1 43 18.8 95 95 0 0 1 28.6 37.7c5.3 12.9 7 26.6 4.8 39.6a83 83 0 0 1-12.9 31.8c-4.5 7-10.2 13.8-16.8 20.2 7.2 5.7 13.6 11.9 19 18.3a82.7 82.7 0 0 1 16.1 30.2 72.5 72.5 0 0 1-.5 39.9 93 93 0 0 1-24.6 40.5 96.4 96.4 0 0 1-40.7 23.3c-11.9 3.4-25 4.4-39.1 3ZM128.3 112a19.1 19.1 0 0 0-38 2 19.1 19.1 0 0 0 38-2Zm3.4 177.7c4.6-4.7 2.7-14.5-4.2-21.3l-15-14.7a4.4 4.4 0 0 1-1.1-4.3c-8-8.1-33.2-32-58.4-37 5.3 25.1 29.7 50 38 57.7 1.5-.4 3.2 0 4.4 1.1l15 14.7c6.9 6.8 16.6 8.5 21.3 3.8Zm0 0" style="stroke:none;fill-rule:nonzero;fill:#1800ad;fill-opacity:1"/><path d="M111.8 109.8c1.7-.6 13-3.5 10.6 5.5-2.6 10-22.5 8-22.5 8-.6-2.4-4.4-19.6 5.1-23.3 8.7-3.5 7.2 8 6.8 9.8Zm126 229.8a169.4 169.4 0 0 1-65-20.3 258.1 258.1 0 0 1-35.5-22.8c-8.3 7.6-23 5.8-33.3-4.3l-15-14.7a4.5 4.5 0 0 1-1.2-4c-5-4.9-15.9-15.8-25.1-29.4a87.8 87.8 0 0 1-14.5-32.4c-8.3-.8-16.5.7-24 5.7l-.4.3c0 2.8-2.1 6.6-4 8.2-2.5 2-6 1.7-8-.7-2-2.5-1.8-6 .7-8 1.9-1.6 5.8-3 8.6-2.6 0-.2.2-.4.4-.6l.3-.3a39.5 39.5 0 0 1 25.8-6.5A39.8 39.8 0 0 1 54 181c.2-.2.4-.4.6-.4a13 13 0 0 1 2.4-8.7 5.7 5.7 0 1 1 9 7.2c-1.6 2-5.5 4.3-8.2 4.2l-.3.5a35 35 0 0 0-5.2 24c10 1.7 21 6.3 32.6 13.9a185 185 0 0 1 29.7 24.6c1.5-.4 3 0 4.3 1.2l15 14.6c8.4 8.4 11.3 20 7.8 28.4a252.5 252.5 0 0 0 34.8 22.4c11 5.8 22.2 10.4 33.2 13.7 9.7 2.9 19.4 4.8 29 5.7a101 101 0 0 0 36.5-2.8 88.4 88.4 0 0 0 37.5-21.5 85.4 85.4 0 0 0 22.7-37.2 65 65 0 0 0 .5-35.9 75.6 75.6 0 0 0-14.8-27.5c-5.5-6.6-12.1-13-19.8-18.7a3.8 3.8 0 0 1-1.4-3.9 3.8 3.8 0 0 1 1-4c7-6.5 13-13.5 17.6-20.7a76.7 76.7 0 0 0 11.8-29c2-11.5.4-23.9-4.4-35.4A85.3 85.3 0 0 0 299.4 61a89.1 89.1 0 0 0-39.6-17.3 98.8 98.8 0 0 0-36.6 1.2c-9.4 1.9-18.9 4.9-28.3 8.8A190 190 0 0 0 163.4 71a250 250 0 0 0-32.7 26.5 26.4 26.4 0 0 1-20 42.1A26.5 26.5 0 1 1 125.6 92c11-10.5 22.4-19.7 33.8-27.3A192.3 192.3 0 0 1 192 46.8c9.7-4.2 19.8-7.3 29.6-9.3 13.9-2.8 27.1-3.2 39.3-1.2a96.4 96.4 0 0 1 43 18.8 95 95 0 0 1 28.6 37.7c5.3 12.9 7 26.6 4.8 39.6a83 83 0 0 1-12.9 31.8c-4.5 7-10.2 13.8-16.8 20.2 7.2 5.7 13.6 11.9 19 18.3a82.7 82.7 0 0 1 16.1 30.2 72.5 72.5 0 0 1-.5 39.9 93 93 0 0 1-24.6 40.5 96.4 96.4 0 0 1-40.7 23.3c-11.9 3.4-25 4.4-39.1 3ZM128.3 112a19.1 19.1 0 0 0-38 2 19.1 19.1 0 0 0 38-2Zm3.4 177.7c4.6-4.7 2.7-14.5-4.2-21.3l-15-14.7a4.4 4.4 0 0 1-1.1-4.3c-8-8.1-33.2-32-58.4-37 5.3 25.1 29.7 50 38 57.7 1.5-.4 3.2 0 4.4 1.1l15 14.7c6.9 6.8 16.6 8.5 21.3 3.8Zm0 0" style="stroke:none;fill-rule:nonzero;fill:#1800ad;fill-opacity:1"/><path d="M111.8 109.8c1.7-.6 13-3.5 10.6 5.5-2.6 10-22.5 8-22.5 8-.6-2.4-4.4-19.6 5.1-23.3 8.7-3.5 7.2 8 6.8 9.8Zm126 229.8a169.4 169.4 0 0 1-65-20.3 258.1 258.1 0 0 1-35.5-22.8c-8.3 7.6-23 5.8-33.3-4.3l-15-14.7a4.5 4.5 0 0 1-1.2-4c-5-4.9-15.9-15.8-25.1-29.4a87.8 87.8 0 0 1-14.5-32.4c-8.3-.8-16.5.7-24 5.7l-.4.3c0 2.8-2.1 6.6-4 8.2-2.5 2-6 1.7-8-.7-2-2.5-1.8-6 .7-8 1.9-1.6 5.8-3 8.6-2.6 0-.2.2-.4.4-.6l.3-.3a39.5 39.5 0 0 1 25.8-6.5A39.8 39.8 0 0 1 54 181c.2-.2.4-.4.6-.4a13 13 0 0 1 2.4-8.7 5.7 5.7 0 1 1 9 7.2c-1.6 2-5.5 4.3-8.2 4.2l-.3.5a35 35 0 0 0-5.2 24c10 1.7 21 6.3 32.6 13.9a185 185 0 0 1 29.7 24.6c1.5-.4 3 0 4.3 1.2l15 14.6c8.4 8.4 11.3 20 7.8 28.4a252.5 252.5 0 0 0 34.8 22.4c11 5.8 22.2 10.4 33.2 13.7 9.7 2.9 19.4 4.8 29 5.7a101 101 0 0 0 36.5-2.8 88.4 88.4 0 0 0 37.5-21.5 85.4 85.4 0 0 0 22.7-37.2 65 65 0 0 0 .5-35.9 75.6 75.6 0 0 0-14.8-27.5c-5.5-6.6-12.1-13-19.8-18.7a3.8 3.8 0 0 1-1.4-3.9 3.8 3.8 0 0 1 1-4c7-6.5 13-13.5 17.6-20.7a76.7 76.7 0 0 0 11.8-29c2-11.5.4-23.9-4.4-35.4A85.3 85.3 0 0 0 299.4 61a89.1 89.1 0 0 0-39.6-17.3 98.8 98.8 0 0 0-36.6 1.2c-9.4 1.9-18.9 4.9-28.3 8.8A190 190 0 0 0 163.4 71a250 250 0 0 0-32.7 26.5 26.4 26.4 0 0 1-20 42.1A26.5 26.5 0 1 1 125.6 92c11-10.5 22.4-19.7 33.8-27.3A192.3 192.3 0 0 1 192 46.8c9.7-4.2 19.8-7.3 29.6-9.3 13.9-2.8 27.1-3.2 39.3-1.2a96.4 96.4 0 0 1 43 18.8 95 95 0 0 1 28.6 37.7c5.3 12.9 7 26.6 4.8 39.6a83 83 0 0 1-12.9 31.8c-4.5 7-10.2 13.8-16.8 20.2 7.2 5.7 13.6 11.9 19 18.3a82.7 82.7 0 0 1 16.1 30.2 72.5 72.5 0 0 1-.5 39.9 93 93 0 0 1-24.6 40.5 96.4 96.4 0 0 1-40.7 23.3c-11.9 3.4-25 4.4-39.1 3ZM128.3 112a19.1 19.1 0 0 0-38 2 19.1 19.1 0 0 0 38-2Zm3.4 177.7c4.6-4.7 2.7-14.5-4.2-21.3l-15-14.7a4.4 4.4 0 0 1-1.1-4.3c-8-8.1-33.2-32-58.4-37 5.3 25.1 29.7 50 38 57.7 1.5-.4 3.2 0 4.4 1.1l15 14.7c6.9 6.8 16.6 8.5 21.3 3.8Zm0 0" style="stroke:none;fill-rule:nonzero;fill:#1800ad;fill-opacity:1"/><path d="M111.8 109.8c1.7-.6 13-3.5 10.6 5.5-2.6 10-22.5 8-22.5 8-.6-2.4-4.4-19.6 5.1-23.3 8.7-3.5 7.2 8 6.8 9.8Zm126 229.8a169.4 169.4 0 0 1-65-20.3 258.1 258.1 0 0 1-35.5-22.8c-8.3 7.6-23 5.8-33.3-4.3l-15-14.7a4.5 4.5 0 0 1-1.2-4c-5-4.9-15.9-15.8-25.1-29.4a87.8 87.8 0 0 1-14.5-32.4c-8.3-.8-16.5.7-24 5.7l-.4.3c0 2.8-2.1 6.6-4 8.2-2.5 2-6 1.7-8-.7-2-2.5-1.8-6 .7-8 1.9-1.6 5.8-3 8.6-2.6 0-.2.2-.4.4-.6l.3-.3a39.5 39.5 0 0 1 25.8-6.5A39.8 39.8 0 0 1 54 181c.2-.2.4-.4.6-.4a13 13 0 0 1 2.4-8.7 5.7 5.7 0 1 1 9 7.2c-1.6 2-5.5 4.3-8.2 4.2l-.3.5a35 35 0 0 0-5.2 24c10 1.7 21 6.3 32.6 13.9a185 185 0 0 1 29.7 24.6c1.5-.4 3 0 4.3 1.2l15 14.6c8.4 8.4 11.3 20 7.8 28.4a252.5 252.5 0 0 0 34.8 22.4c11 5.8 22.2 10.4 33.2 13.7 9.7 2.9 19.4 4.8 29 5.7a101 101 0 0 0 36.5-2.8 88.4 88.4 0 0 0 37.5-21.5 85.4 85.4 0 0 0 22.7-37.2 65 65 0 0 0 .5-35.9 75.6 75.6 0 0 0-14.8-27.5c-5.5-6.6-12.1-13-19.8-18.7a3.8 3.8 0 0 1-1.4-3.9 3.8 3.8 0 0 1 1-4c7-6.5 13-13.5 17.6-20.7a76.7 76.7 0 0 0 11.8-29c2-11.5.4-23.9-4.4-35.4A85.3 85.3 0 0 0 299.4 61a89.1 89.1 0 0 0-39.6-17.3 98.8 98.8 0 0 0-36.6 1.2c-9.4 1.9-18.9 4.9-28.3 8.8A190 190 0 0 0 163.4 71a250 250 0 0 0-32.7 26.5 26.4 26.4 0 0 1-20 42.1A26.5 26.5 0 1 1 125.6 92c11-10.5 22.4-19.7 33.8-27.3A192.3 192.3 0 0 1 192 46.8c9.7-4.2 19.8-7.3 29.6-9.3 13.9-2.8 27.1-3.2 39.3-1.2a96.4 96.4 0 0 1 43 18.8 95 95 0 0 1 28.6 37.7c5.3 12.9 7 26.6 4.8 39.6a83 83 0 0 1-12.9 31.8c-4.5 7-10.2 13.8-16.8 20.2 7.2 5.7 13.6 11.9 19 18.3a82.7 82.7 0 0 1 16.1 30.2 72.5 72.5 0 0 1-.5 39.9 93 93 0 0 1-24.6 40.5 96.4 96.4 0 0 1-40.7 23.3c-11.9 3.4-25 4.4-39.1 3ZM128.3 112a19.1 19.1 0 0 0-38 2 19.1 19.1 0 0 0 38-2Zm3.4 177.7c4.6-4.7 2.7-14.5-4.2-21.3l-15-14.7a4.4 4.4 0 0 1-1.1-4.3c-8-8.1-33.2-32-58.4-37 5.3 25.1 29.7 50 38 57.7 1.5-.4 3.2 0 4.4 1.1l15 14.7c6.9 6.8 16.6 8.5 21.3 3.8Zm0 0" style="stroke:none;fill-rule:nonzero;fill:#1800ad;fill-opacity:1"/><path d="M111.8 109.8c1.7-.6 13-3.5 10.6 5.5-2.6 10-22.5 8-22.5 8-.6-2.4-4.4-19.6 5.1-23.3 8.7-3.5 7.2 8 6.8 9.8Zm126 229.8a169.4 169.4 0 0 1-65-20.3 258.1 258.1 0 0 1-35.5-22.8c-8.3 7.6-23 5.8-33.3-4.3l-15-14.7a4.5 4.5 0 0 1-1.2-4c-5-4.9-15.9-15.8-25.1-29.4a87.8 87.8 0 0 1-14.5-32.4c-8.3-.8-16.5.7-24 5.7l-.4.3c0 2.8-2.1 6.6-4 8.2-2.5 2-6 1.7-8-.7-2-2.5-1.8-6 .7-8 1.9-1.6 5.8-3 8.6-2.6 0-.2.2-.4.4-.6l.3-.3a39.5 39.5 0 0 1 25.8-6.5A39.8 39.8 0 0 1 54 181c.2-.2.4-.4.6-.4a13 13 0 0 1 2.4-8.7 5.7 5.7 0 1 1 9 7.2c-1.6 2-5.5 4.3-8.2 4.2l-.3.5a35 35 0 0 0-5.2 24c10 1.7 21 6.3 32.6 13.9a185 185 0 0 1 29.7 24.6c1.5-.4 3 0 4.3 1.2l15 14.6c8.4 8.4 11.3 20 7.8 28.4a252.5 252.5 0 0 0 34.8 22.4c11 5.8 22.2 10.4 33.2 13.7 9.7 2.9 19.4 4.8 29 5.7a101 101 0 0 0 36.5-2.8 88.4 88.4 0 0 0 37.5-21.5 85.4 85.4 0 0 0 22.7-37.2 65 65 0 0 0 .5-35.9 75.6 75.6 0 0 0-14.8-27.5c-5.5-6.6-12.1-13-19.8-18.7a3.8 3.8 0 0 1-1.4-3.9 3.8 3.8 0 0 1 1-4c7-6.5 13-13.5 17.6-20.7a76.7 76.7 0 0 0 11.8-29c2-11.5.4-23.9-4.4-35.4A85.3 85.3 0 0 0 299.4 61a89.1 89.1 0 0 0-39.6-17.3 98.8 98.8 0 0 0-36.6 1.2c-9.4 1.9-18.9 4.9-28.3 8.8A190 190 0 0 0 163.4 71a250 250 0 0 0-32.7 26.5 26.4 26.4 0 0 1-20 42.1A26.5 26.5 0 1 1 125.6 92c11-10.5 22.4-19.7 33.8-27.3A192.3 192.3 0 0 1 192 46.8c9.7-4.2 19.8-7.3 29.6-9.3 13.9-2.8 27.1-3.2 39.3-1.2a96.4 96.4 0 0 1 43 18.8 95 95 0 0 1 28.6 37.7c5.3 12.9 7 26.6 4.8 39.6a83 83 0 0 1-12.9 31.8c-4.5 7-10.2 13.8-16.8 20.2 7.2 5.7 13.6 11.9 19 18.3a82.7 82.7 0 0 1 16.1 30.2 72.5 72.5 0 0 1-.5 39.9 93 93 0 0 1-24.6 40.5 96.4 96.4 0 0 1-40.7 23.3c-11.9 3.4-25 4.4-39.1 3ZM128.3 112a19.1 19.1 0 0 0-38 2 19.1 19.1 0 0 0 38-2Zm3.4 177.7c4.6-4.7 2.7-14.5-4.2-21.3l-15-14.7a4.4 4.4 0 0 1-1.1-4.3c-8-8.1-33.2-32-58.4-37 5.3 25.1 29.7 50 38 57.7 1.5-.4 3.2 0 4.4 1.1l15 14.7c6.9 6.8 16.6 8.5 21.3 3.8Zm0 0" style="stroke:none;fill-rule:nonzero;fill:#1800ad;fill-opacity:1"/><path d="M111.8 109.8c1.7-.6 13-3.5 10.6 5.5-2.6 10-22.5 8-22.5 8-.6-2.4-4.4-19.6 5.1-23.3 8.7-3.5 7.2 8 6.8 9.8Zm126 229.8a169.4 169.4 0 0 1-65-20.3 258.1 258.1 0 0 1-35.5-22.8c-8.3 7.6-23 5.8-33.3-4.3l-15-14.7a4.5 4.5 0 0 1-1.2-4c-5-4.9-15.9-15.8-25.1-29.4a87.8 87.8 0 0 1-14.5-32.4c-8.3-.8-16.5.7-24 5.7l-.4.3c0 2.8-2.1 6.6-4 8.2-2.5 2-6 1.7-8-.7-2-2.5-1.8-6 .7-8 1.9-1.6 5.8-3 8.6-2.6 0-.2.2-.4.4-.6l.3-.3a39.5 39.5 0 0 1 25.8-6.5A39.8 39.8 0 0 1 54 181c.2-.2.4-.4.6-.4a13 13 0 0 1 2.4-8.7 5.7 5.7 0 1 1 9 7.2c-1.6 2-5.5 4.3-8.2 4.2l-.3.5a35 35 0 0 0-5.2 24c10 1.7 21 6.3 32.6 13.9a185 185 0 0 1 29.7 24.6c1.5-.4 3 0 4.3 1.2l15 14.6c8.4 8.4 11.3 20 7.8 28.4a252.5 252.5 0 0 0 34.8 22.4c11 5.8 22.2 10.4 33.2 13.7 9.7 2.9 19.4 4.8 29 5.7a101 101 0 0 0 36.5-2.8 88.4 88.4 0 0 0 37.5-21.5 85.4 85.4 0 0 0 22.7-37.2 65 65 0 0 0 .5-35.9 75.6 75.6 0 0 0-14.8-27.5c-5.5-6.6-12.1-13-19.8-18.7a3.8 3.8 0 0 1-1.4-3.9 3.8 3.8 0 0 1 1-4c7-6.5 13-13.5 17.6-20.7a76.7 76.7 0 0 0 11.8-29c2-11.5.4-23.9-4.4-35.4A85.3 85.3 0 0 0 299.4 61a89.1 89.1 0 0 0-39.6-17.3 98.8 98.8 0 0 0-36.6 1.2c-9.4 1.9-18.9 4.9-28.3 8.8A190 190 0 0 0 163.4 71a250 250 0 0 0-32.7 26.5 26.4 26.4 0 0 1-20 42.1A26.5 26.5 0 1 1 125.6 92c11-10.5 22.4-19.7 33.8-27.3A192.3 192.3 0 0 1 192 46.8c9.7-4.2 19.8-7.3 29.6-9.3 13.9-2.8 27.1-3.2 39.3-1.2a96.4 96.4 0 0 1 43 18.8 95 95 0 0 1 28.6 37.7c5.3 12.9 7 26.6 4.8 39.6a83 83 0 0 1-12.9 31.8c-4.5 7-10.2 13.8-16.8 20.2 7.2 5.7 13.6 11.9 19 18.3a82.7 82.7 0 0 1 16.1 30.2 72.5 72.5 0 0 1-.5 39.9 93 93 0 0 1-24.6 40.5 96.4 96.4 0 0 1-40.7 23.3c-11.9 3.4-25 4.4-39.1 3ZM128.3 112a19.1 19.1 0 0 0-38 2 19.1 19.1 0 0 0 38-2Zm3.4 177.7c4.6-4.7 2.7-14.5-4.2-21.3l-15-14.7a4.4 4.4 0 0 1-1.1-4.3c-8-8.1-33.2-32-58.4-37 5.3 25.1 29.7 50 38 57.7 1.5-.4 3.2 0 4.4 1.1l15 14.7c6.9 6.8 16.6 8.5 21.3 3.8Zm0 0" style="stroke:none;fill-rule:nonzero;fill:#1800ad;fill-opacity:1"/><path d="M111.8 109.8c1.7-.6 13-3.5 10.6 5.5-2.6 10-22.5 8-22.5 8-.6-2.4-4.4-19.6 5.1-23.3 8.7-3.5 7.2 8 6.8 9.8Zm126 229.8a169.4 169.4 0 0 1-65-20.3 258.1 258.1 0 0 1-35.5-22.8c-8.3 7.6-23 5.8-33.3-4.3l-15-14.7a4.5 4.5 0 0 1-1.2-4c-5-4.9-15.9-15.8-25.1-29.4a87.8 87.8 0 0 1-14.5-32.4c-8.3-.8-16.5.7-24 5.7l-.4.3c0 2.8-2.1 6.6-4 8.2-2.5 2-6 1.7-8-.7-2-2.5-1.8-6 .7-8 1.9-1.6 5.8-3 8.6-2.6 0-.2.2-.4.4-.6l.3-.3a39.5 39.5 0 0 1 25.8-6.5A39.8 39.8 0 0 1 54 181c.2-.2.4-.4.6-.4a13 13 0 0 1 2.4-8.7 5.7 5.7 0 1 1 9 7.2c-1.6 2-5.5 4.3-8.2 4.2l-.3.5a35 35 0 0 0-5.2 24c10 1.7 21 6.3 32.6 13.9a185 185 0 0 1 29.7 24.6c1.5-.4 3 0 4.3 1.2l15 14.6c8.4 8.4 11.3 20 7.8 28.4a252.5 252.5 0 0 0 34.8 22.4c11 5.8 22.2 10.4 33.2 13.7 9.7 2.9 19.4 4.8 29 5.7a101 101 0 0 0 36.5-2.8 88.4 88.4 0 0 0 37.5-21.5 85.4 85.4 0 0 0 22.7-37.2 65 65 0 0 0 .5-35.9 75.6 75.6 0 0 0-14.8-27.5c-5.5-6.6-12.1-13-19.8-18.7a3.8 3.8 0 0 1-1.4-3.9 3.8 3.8 0 0 1 1-4c7-6.5 13-13.5 17.6-20.7a76.7 76.7 0 0 0 11.8-29c2-11.5.4-23.9-4.4-35.4A85.3 85.3 0 0 0 299.4 61a89.1 89.1 0 0 0-39.6-17.3 98.8 98.8 0 0 0-36.6 1.2c-9.4 1.9-18.9 4.9-28.3 8.8A190 190 0 0 0 163.4 71a250 250 0 0 0-32.7 26.5 26.4 26.4 0 0 1-20 42.1A26.5 26.5 0 1 1 125.6 92c11-10.5 22.4-19.7 33.8-27.3A192.3 192.3 0 0 1 192 46.8c9.7-4.2 19.8-7.3 29.6-9.3 13.9-2.8 27.1-3.2 39.3-1.2a96.4 96.4 0 0 1 43 18.8 95 95 0 0 1 28.6 37.7c5.3 12.9 7 26.6 4.8 39.6a83 83 0 0 1-12.9 31.8c-4.5 7-10.2 13.8-16.8 20.2 7.2 5.7 13.6 11.9 19 18.3a82.7 82.7 0 0 1 16.1 30.2 72.5 72.5 0 0 1-.5 39.9 93 93 0 0 1-24.6 40.5 96.4 96.4 0 0 1-40.7 23.3c-11.9 3.4-25 4.4-39.1 3ZM128.3 112a19.1 19.1 0 0 0-38 2 19.1 19.1 0 0 0 38-2Zm3.4 177.7c4.6-4.7 2.7-14.5-4.2-21.3l-15-14.7a4.4 4.4 0 0 1-1.1-4.3c-8-8.1-33.2-32-58.4-37 5.3 25.1 29.7 50 38 57.7 1.5-.4 3.2 0 4.4 1.1l15 14.7c6.9 6.8 16.6 8.5 21.3 3.8Zm0 0" style="stroke:none;fill-rule:nonzero;fill:#1800ad;fill-opacity:1"/><path d="M111.8 109.8c1.7-.6 13-3.5 10.6 5.5-2.6 10-22.5 8-22.5 8-.6-2.4-4.4-19.6 5.1-23.3 8.7-3.5 7.2 8 6.8 9.8Zm126 229.8a169.4 169.4 0 0 1-65-20.3 258.1 258.1 0 0 1-35.5-22.8c-8.3 7.6-23 5.8-33.3-4.3l-15-14.7a4.5 4.5 0 0 1-1.2-4c-5-4.9-15.9-15.8-25.1-29.4a87.8 87.8 0 0 1-14.5-32.4c-8.3-.8-16.5.7-24 5.7l-.4.3c0 2.8-2.1 6.6-4 8.2-2.5 2-6 1.7-8-.7-2-2.5-1.8-6 .7-8 1.9-1.6 5.8-3 8.6-2.6 0-.2.2-.4.4-.6l.3-.3a39.5 39.5 0 0 1 25.8-6.5A39.8 39.8 0 0 1 54 181c.2-.2.4-.4.6-.4a13 13 0 0 1 2.4-8.7 5.7 5.7 0 1 1 9 7.2c-1.6 2-5.5 4.3-8.2 4.2l-.3.5a35 35 0 0 0-5.2 24c10 1.7 21 6.3 32.6 13.9a185 185 0 0 1 29.7 24.6c1.5-.4 3 0 4.3 1.2l15 14.6c8.4 8.4 11.3 20 7.8 28.4a252.5 252.5 0 0 0 34.8 22.4c11 5.8 22.2 10.4 33.2 13.7 9.7 2.9 19.4 4.8 29 5.7a101 101 0 0 0 36.5-2.8 88.4 88.4 0 0 0 37.5-21.5 85.4 85.4 0 0 0 22.7-37.2 65 65 0 0 0 .5-35.9 75.6 75.6 0 0 0-14.8-27.5c-5.5-6.6-12.1-13-19.8-18.7a3.8 3.8 0 0 1-1.4-3.9 3.8 3.8 0 0 1 1-4c7-6.5 13-13.5 17.6-20.7a76.7 76.7 0 0 0 11.8-29c2-11.5.4-23.9-4.4-35.4A85.3 85.3 0 0 0 299.4 61a89.1 89.1 0 0 0-39.6-17.3 98.8 98.8 0 0 0-36.6 1.2c-9.4 1.9-18.9 4.9-28.3 8.8A190 190 0 0 0 163.4 71a250 250 0 0 0-32.7 26.5 26.4 26.4 0 0 1-20 42.1A26.5 26.5 0 1 1 125.6 92c11-10.5 22.4-19.7 33.8-27.3A192.3 192.3 0 0 1 192 46.8c9.7-4.2 19.8-7.3 29.6-9.3 13.9-2.8 27.1-3.2 39.3-1.2a96.4 96.4 0 0 1 43 18.8 95 95 0 0 1 28.6 37.7c5.3 12.9 7 26.6 4.8 39.6a83 83 0 0 1-12.9 31.8c-4.5 7-10.2 13.8-16.8 20.2 7.2 5.7 13.6 11.9 19 18.3a82.7 82.7 0 0 1 16.1 30.2 72.5 72.5 0 0 1-.5 39.9 93 93 0 0 1-24.6 40.5 96.4 96.4 0 0 1-40.7 23.3c-11.9 3.4-25 4.4-39.1 3ZM128.3 112a19.1 19.1 0 0 0-38 2 19.1 19.1 0 0 0 38-2Zm3.4 177.7c4.6-4.7 2.7-14.5-4.2-21.3l-15-14.7a4.4 4.4 0 0 1-1.1-4.3c-8-8.1-33.2-32-58.4-37 5.3 25.1 29.7 50 38 57.7 1.5-.4 3.2 0 4.4 1.1l15 14.7c6.9 6.8 16.6 8.5 21.3 3.8Zm0 0" style="stroke:none;fill-rule:nonzero;fill:#1800ad;fill-opacity:1"/><path d="M111.8 109.8c1.7-.6 13-3.5 10.6 5.5-2.6 10-22.5 8-22.5 8-.6-2.4-4.4-19.6 5.1-23.3 8.7-3.5 7.2 8 6.8 9.8Zm126 229.8a169.4 169.4 0 0 1-65-20.3 258.1 258.1 0 0 1-35.5-22.8c-8.3 7.6-23 5.8-33.3-4.3l-15-14.7a4.5 4.5 0 0 1-1.2-4c-5-4.9-15.9-15.8-25.1-29.4a87.8 87.8 0 0 1-14.5-32.4c-8.3-.8-16.5.7-24 5.7l-.4.3c0 2.8-2.1 6.6-4 8.2-2.5 2-6 1.7-8-.7-2-2.5-1.8-6 .7-8 1.9-1.6 5.8-3 8.6-2.6 0-.2.2-.4.4-.6l.3-.3a39.5 39.5 0 0 1 25.8-6.5A39.8 39.8 0 0 1 54 181c.2-.2.4-.4.6-.4a13 13 0 0 1 2.4-8.7 5.7 5.7 0 1 1 9 7.2c-1.6 2-5.5 4.3-8.2 4.2l-.3.5a35 35 0 0 0-5.2 24c10 1.7 21 6.3 32.6 13.9a185 185 0 0 1 29.7 24.6c1.5-.4 3 0 4.3 1.2l15 14.6c8.4 8.4 11.3 20 7.8 28.4a252.5 252.5 0 0 0 34.8 22.4c11 5.8 22.2 10.4 33.2 13.7 9.7 2.9 19.4 4.8 29 5.7a101 101 0 0 0 36.5-2.8 88.4 88.4 0 0 0 37.5-21.5 85.4 85.4 0 0 0 22.7-37.2 65 65 0 0 0 .5-35.9 75.6 75.6 0 0 0-14.8-27.5c-5.5-6.6-12.1-13-19.8-18.7a3.8 3.8 0 0 1-1.4-3.9 3.8 3.8 0 0 1 1-4c7-6.5 13-13.5 17.6-20.7a76.7 76.7 0 0 0 11.8-29c2-11.5.4-23.9-4.4-35.4A85.3 85.3 0 0 0 299.4 61a89.1 89.1 0 0 0-39.6-17.3 98.8 98.8 0 0 0-36.6 1.2c-9.4 1.9-18.9 4.9-28.3 8.8A190 190 0 0 0 163.4 71a250 250 0 0 0-32.7 26.5 26.4 26.4 0 0 1-20 42.1A26.5 26.5 0 1 1 125.6 92c11-10.5 22.4-19.7 33.8-27.3A192.3 192.3 0 0 1 192 46.8c9.7-4.2 19.8-7.3 29.6-9.3 13.9-2.8 27.1-3.2 39.3-1.2a96.4 96.4 0 0 1 43 18.8 95 95 0 0 1 28.6 37.7c5.3 12.9 7 26.6 4.8 39.6a83 83 0 0 1-12.9 31.8c-4.5 7-10.2 13.8-16.8 20.2 7.2 5.7 13.6 11.9 19 18.3a82.7 82.7 0 0 1 16.1 30.2 72.5 72.5 0 0 1-.5 39.9 93 93 0 0 1-24.6 40.5 96.4 96.4 0 0 1-40.7 23.3c-11.9 3.4-25 4.4-39.1 3ZM128.3 112a19.1 19.1 0 0 0-38 2 19.1 19.1 0 0 0 38-2Zm3.4 177.7c4.6-4.7 2.7-14.5-4.2-21.3l-15-14.7a4.4 4.4 0 0 1-1.1-4.3c-8-8.1-33.2-32-58.4-37 5.3 25.1 29.7 50 38 57.7 1.5-.4 3.2 0 4.4 1.1l15 14.7c6.9 6.8 16.6 8.5 21.3 3.8Zm0 0" style="stroke:none;fill-rule:nonzero;fill:#1800ad;fill-opacity:1"/><path d="M111.8 109.8c1.7-.6 13-3.5 10.6 5.5-2.6 10-22.5 8-22.5 8-.6-2.4-4.4-19.6 5.1-23.3 8.7-3.5 7.2 8 6.8 9.8Zm126 229.8a169.4 169.4 0 0 1-65-20.3 258.1 258.1 0 0 1-35.5-22.8c-8.3 7.6-23 5.8-33.3-4.3l-15-14.7a4.5 4.5 0 0 1-1.2-4c-5-4.9-15.9-15.8-25.1-29.4a87.8 87.8 0 0 1-14.5-32.4c-8.3-.8-16.5.7-24 5.7l-.4.3c0 2.8-2.1 6.6-4 8.2-2.5 2-6 1.7-8-.7-2-2.5-1.8-6 .7-8 1.9-1.6 5.8-3 8.6-2.6 0-.2.2-.4.4-.6l.3-.3a39.5 39.5 0 0 1 25.8-6.5A39.8 39.8 0 0 1 54 181c.2-.2.4-.4.6-.4a13 13 0 0 1 2.4-8.7 5.7 5.7 0 1 1 9 7.2c-1.6 2-5.5 4.3-8.2 4.2l-.3.5a35 35 0 0 0-5.2 24c10 1.7 21 6.3 32.6 13.9a185 185 0 0 1 29.7 24.6c1.5-.4 3 0 4.3 1.2l15 14.6c8.4 8.4 11.3 20 7.8 28.4a252.5 252.5 0 0 0 34.8 22.4c11 5.8 22.2 10.4 33.2 13.7 9.7 2.9 19.4 4.8 29 5.7a101 101 0 0 0 36.5-2.8 88.4 88.4 0 0 0 37.5-21.5 85.4 85.4 0 0 0 22.7-37.2 65 65 0 0 0 .5-35.9 75.6 75.6 0 0 0-14.8-27.5c-5.5-6.6-12.1-13-19.8-18.7a3.8 3.8 0 0 1-1.4-3.9 3.8 3.8 0 0 1 1-4c7-6.5 13-13.5 17.6-20.7a76.7 76.7 0 0 0 11.8-29c2-11.5.4-23.9-4.4-35.4A85.3 85.3 0 0 0 299.4 61a89.1 89.1 0 0 0-39.6-17.3 98.8 98.8 0 0 0-36.6 1.2c-9.4 1.9-18.9 4.9-28.3 8.8A190 190 0 0 0 163.4 71a250 250 0 0 0-32.7 26.5 26.4 26.4 0 0 1-20 42.1A26.5 26.5 0 1 1 125.6 92c11-10.5 22.4-19.7 33.8-27.3A192.3 192.3 0 0 1 192 46.8c9.7-4.2 19.8-7.3 29.6-9.3 13.9-2.8 27.1-3.2 39.3-1.2a96.4 96.4 0 0 1 43 18.8 95 95 0 0 1 28.6 37.7c5.3 12.9 7 26.6 4.8 39.6a83 83 0 0 1-12.9 31.8c-4.5 7-10.2 13.8-16.8 20.2 7.2 5.7 13.6 11.9 19 18.3a82.7 82.7 0 0 1 16.1 30.2 72.5 72.5 0 0 1-.5 39.9 93 93 0 0 1-24.6 40.5 96.4 96.4 0 0 1-40.7 23.3c-11.9 3.4-25 4.4-39.1 3ZM128.3 112a19.1 19.1 0 0 0-38 2 19.1 19.1 0 0 0 38-2Zm3.4 177.7c4.6-4.7 2.7-14.5-4.2-21.3l-15-14.7a4.4 4.4 0 0 1-1.1-4.3c-8-8.1-33.2-32-58.4-37 5.3 25.1 29.7 50 38 57.7 1.5-.4 3.2 0 4.4 1.1l15 14.7c6.9 6.8 16.6 8.5 21.3 3.8Zm0 0" style="stroke:none;fill-rule:nonzero;fill:#1800ad;fill-opacity:1"/><path d="M111.8 109.8c1.7-.6 13-3.5 10.6 5.5-2.6 10-22.5 8-22.5 8-.6-2.4-4.4-19.6 5.1-23.3 8.7-3.5 7.2 8 6.8 9.8Zm126 229.8a169.4 169.4 0 0 1-65-20.3 258.1 258.1 0 0 1-35.5-22.8c-8.3 7.6-23 5.8-33.3-4.3l-15-14.7a4.5 4.5 0 0 1-1.2-4c-5-4.9-15.9-15.8-25.1-29.4a87.8 87.8 0 0 1-14.5-32.4c-8.3-.8-16.5.7-24 5.7l-.4.3c0 2.8-2.1 6.6-4 8.2-2.5 2-6 1.7-8-.7-2-2.5-1.8-6 .7-8 1.9-1.6 5.8-3 8.6-2.6 0-.2.2-.4.4-.6l.3-.3a39.5 39.5 0 0 1 25.8-6.5A39.8 39.8 0 0 1 54 181c.2-.2.4-.4.6-.4a13 13 0 0 1 2.4-8.7 5.7 5.7 0 1 1 9 7.2c-1.6 2-5.5 4.3-8.2 4.2l-.3.5a35 35 0 0 0-5.2 24c10 1.7 21 6.3 32.6 13.9a185 185 0 0 1 29.7 24.6c1.5-.4 3 0 4.3 1.2l15 14.6c8.4 8.4 11.3 20 7.8 28.4a252.5 252.5 0 0 0 34.8 22.4c11 5.8 22.2 10.4 33.2 13.7 9.7 2.9 19.4 4.8 29 5.7a101 101 0 0 0 36.5-2.8 88.4 88.4 0 0 0 37.5-21.5 85.4 85.4 0 0 0 22.7-37.2 65 65 0 0 0 .5-35.9 75.6 75.6 0 0 0-14.8-27.5c-5.5-6.6-12.1-13-19.8-18.7a3.8 3.8 0 0 1-1.4-3.9 3.8 3.8 0 0 1 1-4c7-6.5 13-13.5 17.6-20.7a76.7 76.7 0 0 0 11.8-29c2-11.5.4-23.9-4.4-35.4A85.3 85.3 0 0 0 299.4 61a89.1 89.1 0 0 0-39.6-17.3 98.8 98.8 0 0 0-36.6 1.2c-9.4 1.9-18.9 4.9-28.3 8.8A190 190 0 0 0 163.4 71a250 250 0 0 0-32.7 26.5 26.4 26.4 0 0 1-20 42.1A26.5 26.5 0 1 1 125.6 92c11-10.5 22.4-19.7 33.8-27.3A192.3 192.3 0 0 1 192 46.8c9.7-4.2 19.8-7.3 29.6-9.3 13.9-2.8 27.1-3.2 39.3-1.2a96.4 96.4 0 0 1 43 18.8 95 95 0 0 1 28.6 37.7c5.3 12.9 7 26.6 4.8 39.6a83 83 0 0 1-12.9 31.8c-4.5 7-10.2 13.8-16.8 20.2 7.2 5.7 13.6 11.9 19 18.3a82.7 82.7 0 0 1 16.1 30.2 72.5 72.5 0 0 1-.5 39.9 93 93 0 0 1-24.6 40.5 96.4 96.4 0 0 1-40.7 23.3c-11.9 3.4-25 4.4-39.1 3ZM128.3 112a19.1 19.1 0 0 0-38 2 19.1 19.1 0 0 0 38-2Zm3.4 177.7c4.6-4.7 2.7-14.5-4.2-21.3l-15-14.7a4.4 4.4 0 0 1-1.1-4.3c-8-8.1-33.2-32-58.4-37 5.3 25.1 29.7 50 38 57.7 1.5-.4 3.2 0 4.4 1.1l15 14.7c6.9 6.8 16.6 8.5 21.3 3.8Zm0 0" style="stroke:none;fill-rule:nonzero;fill:#1800ad;fill-opacity:1"/><path d="M111.8 109.8c1.7-.6 13-3.5 10.6 5.5-2.6 10-22.5 8-22.5 8-.6-2.4-4.4-19.6 5.1-23.3 8.7-3.5 7.2 8 6.8 9.8Zm126 229.8a169.4 169.4 0 0 1-65-20.3 258.1 258.1 0 0 1-35.5-22.8c-8.3 7.6-23 5.8-33.3-4.3l-15-14.7a4.5 4.5 0 0 1-1.2-4c-5-4.9-15.9-15.8-25.1-29.4a87.8 87.8 0 0 1-14.5-32.4c-8.3-.8-16.5.7-24 5.7l-.4.3c0 2.8-2.1 6.6-4 8.2-2.5 2-6 1.7-8-.7-2-2.5-1.8-6 .7-8 1.9-1.6 5.8-3 8.6-2.6 0-.2.2-.4.4-.6l.3-.3a39.5 39.5 0 0 1 25.8-6.5A39.8 39.8 0 0 1 54 181c.2-.2.4-.4.6-.4a13 13 0 0 1 2.4-8.7 5.7 5.7 0 1 1 9 7.2c-1.6 2-5.5 4.3-8.2 4.2l-.3.5a35 35 0 0 0-5.2 24c10 1.7 21 6.3 32.6 13.9a185 185 0 0 1 29.7 24.6c1.5-.4 3 0 4.3 1.2l15 14.6c8.4 8.4 11.3 20 7.8 28.4a252.5 252.5 0 0 0 34.8 22.4c11 5.8 22.2 10.4 33.2 13.7 9.7 2.9 19.4 4.8 29 5.7a101 101 0 0 0 36.5-2.8 88.4 88.4 0 0 0 37.5-21.5 85.4 85.4 0 0 0 22.7-37.2 65 65 0 0 0 .5-35.9 75.6 75.6 0 0 0-14.8-27.5c-5.5-6.6-12.1-13-19.8-18.7a3.8 3.8 0 0 1-1.4-3.9 3.8 3.8 0 0 1 1-4c7-6.5 13-13.5 17.6-20.7a76.7 76.7 0 0 0 11.8-29c2-11.5.4-23.9-4.4-35.4A85.3 85.3 0 0 0 299.4 61a89.1 89.1 0 0 0-39.6-17.3 98.8 98.8 0 0 0-36.6 1.2c-9.4 1.9-18.9 4.9-28.3 8.8A190 190 0 0 0 163.4 71a250 250 0 0 0-32.7 26.5 26.4 26.4 0 0 1-20 42.1A26.5 26.5 0 1 1 125.6 92c11-10.5 22.4-19.7 33.8-27.3A192.3 192.3 0 0 1 192 46.8c9.7-4.2 19.8-7.3 29.6-9.3 13.9-2.8 27.1-3.2 39.3-1.2a96.4 96.4 0 0 1 43 18.8 95 95 0 0 1 28.6 37.7c5.3 12.9 7 26.6 4.8 39.6a83 83 0 0 1-12.9 31.8c-4.5 7-10.2 13.8-16.8 20.2 7.2 5.7 13.6 11.9 19 18.3a82.7 82.7 0 0 1 16.1 30.2 72.5 72.5 0 0 1-.5 39.9 93 93 0 0 1-24.6 40.5 96.4 96.4 0 0 1-40.7 23.3c-11.9 3.4-25 4.4-39.1 3ZM128.3 112a19.1 19.1 0 0 0-38 2 19.1 19.1 0 0 0 38-2Zm3.4 177.7c4.6-4.7 2.7-14.5-4.2-21.3l-15-14.7a4.4 4.4 0 0 1-1.1-4.3c-8-8.1-33.2-32-58.4-37 5.3 25.1 29.7 50 38 57.7 1.5-.4 3.2 0 4.4 1.1l15 14.7c6.9 6.8 16.6 8.5 21.3 3.8Zm0 0" style="stroke:none;fill-rule:nonzero;fill:#1800ad;fill-opacity:1"/><path d="M111.8 109.8c1.7-.6 13-3.5 10.6 5.5-2.6 10-22.5 8-22.5 8-.6-2.4-4.4-19.6 5.1-23.3 8.7-3.5 7.2 8 6.8 9.8Zm126 229.8a169.4 169.4 0 0 1-65-20.3 258.1 258.1 0 0 1-35.5-22.8c-8.3 7.6-23 5.8-33.3-4.3l-15-14.7a4.5 4.5 0 0 1-1.2-4c-5-4.9-15.9-15.8-25.1-29.4a87.8 87.8 0 0 1-14.5-32.4c-8.3-.8-16.5.7-24 5.7l-.4.3c0 2.8-2.1 6.6-4 8.2-2.5 2-6 1.7-8-.7-2-2.5-1.8-6 .7-8 1.9-1.6 5.8-3 8.6-2.6 0-.2.2-.4.4-.6l.3-.3a39.5 39.5 0 0 1 25.8-6.5A39.8 39.8 0 0 1 54 181c.2-.2.4-.4.6-.4a13 13 0 0 1 2.4-8.7 5.7 5.7 0 1 1 9 7.2c-1.6 2-5.5 4.3-8.2 4.2l-.3.5a35 35 0 0 0-5.2 24c10 1.7 21 6.3 32.6 13.9a185 185 0 0 1 29.7 24.6c1.5-.4 3 0 4.3 1.2l15 14.6c8.4 8.4 11.3 20 7.8 28.4a252.5 252.5 0 0 0 34.8 22.4c11 5.8 22.2 10.4 33.2 13.7 9.7 2.9 19.4 4.8 29 5.7a101 101 0 0 0 36.5-2.8 88.4 88.4 0 0 0 37.5-21.5 85.4 85.4 0 0 0 22.7-37.2 65 65 0 0 0 .5-35.9 75.6 75.6 0 0 0-14.8-27.5c-5.5-6.6-12.1-13-19.8-18.7a3.8 3.8 0 0 1-1.4-3.9 3.8 3.8 0 0 1 1-4c7-6.5 13-13.5 17.6-20.7a76.7 76.7 0 0 0 11.8-29c2-11.5.4-23.9-4.4-35.4A85.3 85.3 0 0 0 299.4 61a89.1 89.1 0 0 0-39.6-17.3 98.8 98.8 0 0 0-36.6 1.2c-9.4 1.9-18.9 4.9-28.3 8.8A190 190 0 0 0 163.4 71a250 250 0 0 0-32.7 26.5 26.4 26.4 0 0 1-20 42.1A26.5 26.5 0 1 1 125.6 92c11-10.5 22.4-19.7 33.8-27.3A192.3 192.3 0 0 1 192 46.8c9.7-4.2 19.8-7.3 29.6-9.3 13.9-2.8 27.1-3.2 39.3-1.2a96.4 96.4 0 0 1 43 18.8 95 95 0 0 1 28.6 37.7c5.3 12.9 7 26.6 4.8 39.6a83 83 0 0 1-12.9 31.8c-4.5 7-10.2 13.8-16.8 20.2 7.2 5.7 13.6 11.9 19 18.3a82.7 82.7 0 0 1 16.1 30.2 72.5 72.5 0 0 1-.5 39.9 93 93 0 0 1-24.6 40.5 96.4 96.4 0 0 1-40.7 23.3c-11.9 3.4-25 4.4-39.1 3ZM128.3 112a19.1 19.1 0 0 0-38 2 19.1 19.1 0 0 0 38-2Zm3.4 177.7c4.6-4.7 2.7-14.5-4.2-21.3l-15-14.7a4.4 4.4 0 0 1-1.1-4.3c-8-8.1-33.2-32-58.4-37 5.3 25.1 29.7 50 38 57.7 1.5-.4 3.2 0 4.4 1.1l15 14.7c6.9 6.8 16.6 8.5 21.3 3.8Zm0 0" style="stroke:none;fill-rule:nonzero;fill:#1800ad;fill-opacity:1"/><path d="M111.8 109.8c1.7-.6 13-3.5 10.6 5.5-2.6 10-22.5 8-22.5 8-.6-2.4-4.4-19.6 5.1-23.3 8.7-3.5 7.2 8 6.8 9.8Zm126 229.8a169.4 169.4 0 0 1-65-20.3 258.1 258.1 0 0 1-35.5-22.8c-8.3 7.6-23 5.8-33.3-4.3l-15-14.7a4.5 4.5 0 0 1-1.2-4c-5-4.9-15.9-15.8-25.1-29.4a87.8 87.8 0 0 1-14.5-32.4c-8.3-.8-16.5.7-24 5.7l-.4.3c0 2.8-2.1 6.6-4 8.2-2.5 2-6 1.7-8-.7-2-2.5-1.8-6 .7-8 1.9-1.6 5.8-3 8.6-2.6 0-.2.2-.4.4-.6l.3-.3a39.5 39.5 0 0 1 25.8-6.5A39.8 39.8 0 0 1 54 181c.2-.2.4-.4.6-.4a13 13 0 0 1 2.4-8.7 5.7 5.7 0 1 1 9 7.2c-1.6 2-5.5 4.3-8.2 4.2l-.3.5a35 35 0 0 0-5.2 24c10 1.7 21 6.3 32.6 13.9a185 185 0 0 1 29.7 24.6c1.5-.4 3 0 4.3 1.2l15 14.6c8.4 8.4 11.3 20 7.8 28.4a252.5 252.5 0 0 0 34.8 22.4c11 5.8 22.2 10.4 33.2 13.7 9.7 2.9 19.4 4.8 29 5.7a101 101 0 0 0 36.5-2.8 88.4 88.4 0 0 0 37.5-21.5 85.4 85.4 0 0 0 22.7-37.2 65 65 0 0 0 .5-35.9 75.6 75.6 0 0 0-14.8-27.5c-5.5-6.6-12.1-13-19.8-18.7a3.8 3.8 0 0 1-1.4-3.9 3.8 3.8 0 0 1 1-4c7-6.5 13-13.5 17.6-20.7a76.7 76.7 0 0 0 11.8-29c2-11.5.4-23.9-4.4-35.4A85.3 85.3 0 0 0 299.4 61a89.1 89.1 0 0 0-39.6-17.3 98.8 98.8 0 0 0-36.6 1.2c-9.4 1.9-18.9 4.9-28.3 8.8A190 190 0 0 0 163.4 71a250 250 0 0 0-32.7 26.5 26.4 26.4 0 0 1-20 42.1A26.5 26.5 0 1 1 125.6 92c11-10.5 22.4-19.7 33.8-27.3A192.3 192.3 0 0 1 192 46.8c9.7-4.2 19.8-7.3 29.6-9.3 13.9-2.8 27.1-3.2 39.3-1.2a96.4 96.4 0 0 1 43 18.8 95 95 0 0 1 28.6 37.7c5.3 12.9 7 26.6 4.8 39.6a83 83 0 0 1-12.9 31.8c-4.5 7-10.2 13.8-16.8 20.2 7.2 5.7 13.6 11.9 19 18.3a82.7 82.7 0 0 1 16.1 30.2 72.5 72.5 0 0 1-.5 39.9 93 93 0 0 1-24.6 40.5 96.4 96.4 0 0 1-40.7 23.3c-11.9 3.4-25 4.4-39.1 3ZM128.3 112a19.1 19.1 0 0 0-38 2 19.1 19.1 0 0 0 38-2Zm3.4 177.7c4.6-4.7 2.7-14.5-4.2-21.3l-15-14.7a4.4 4.4 0 0 1-1.1-4.3c-8-8.1-33.2-32-58.4-37 5.3 25.1 29.7 50 38 57.7 1.5-.4 3.2 0 4.4 1.1l15 14.7c6.9 6.8 16.6 8.5 21.3 3.8Zm0 0" style="stroke:none;fill-rule:nonzero;fill:#1800ad;fill-opacity:1"/><path d="M111.8 109.8c1.7-.6 13-3.5 10.6 5.5-2.6 10-22.5 8-22.5 8-.6-2.4-4.4-19.6 5.1-23.3 8.7-3.5 7.2 8 6.8 9.8Zm126 229.8a169.4 169.4 0 0 1-65-20.3 258.1 258.1 0 0 1-35.5-22.8c-8.3 7.6-23 5.8-33.3-4.3l-15-14.7a4.5 4.5 0 0 1-1.2-4c-5-4.9-15.9-15.8-25.1-29.4a87.8 87.8 0 0 1-14.5-32.4c-8.3-.8-16.5.7-24 5.7l-.4.3c0 2.8-2.1 6.6-4 8.2-2.5 2-6 1.7-8-.7-2-2.5-1.8-6 .7-8 1.9-1.6 5.8-3 8.6-2.6 0-.2.2-.4.4-.6l.3-.3a39.5 39.5 0 0 1 25.8-6.5A39.8 39.8 0 0 1 54 181c.2-.2.4-.4.6-.4a13 13 0 0 1 2.4-8.7 5.7 5.7 0 1 1 9 7.2c-1.6 2-5.5 4.3-8.2 4.2l-.3.5a35 35 0 0 0-5.2 24c10 1.7 21 6.3 32.6 13.9a185 185 0 0 1 29.7 24.6c1.5-.4 3 0 4.3 1.2l15 14.6c8.4 8.4 11.3 20 7.8 28.4a252.5 252.5 0 0 0 34.8 22.4c11 5.8 22.2 10.4 33.2 13.7 9.7 2.9 19.4 4.8 29 5.7a101 101 0 0 0 36.5-2.8 88.4 88.4 0 0 0 37.5-21.5 85.4 85.4 0 0 0 22.7-37.2 65 65 0 0 0 .5-35.9 75.6 75.6 0 0 0-14.8-27.5c-5.5-6.6-12.1-13-19.8-18.7a3.8 3.8 0 0 1-1.4-3.9 3.8 3.8 0 0 1 1-4c7-6.5 13-13.5 17.6-20.7a76.7 76.7 0 0 0 11.8-29c2-11.5.4-23.9-4.4-35.4A85.3 85.3 0 0 0 299.4 61a89.1 89.1 0 0 0-39.6-17.3 98.8 98.8 0 0 0-36.6 1.2c-9.4 1.9-18.9 4.9-28.3 8.8A190 190 0 0 0 163.4 71a250 250 0 0 0-32.7 26.5 26.4 26.4 0 0 1-20 42.1A26.5 26.5 0 1 1 125.6 92c11-10.5 22.4-19.7 33.8-27.3A192.3 192.3 0 0 1 192 46.8c9.7-4.2 19.8-7.3 29.6-9.3 13.9-2.8 27.1-3.2 39.3-1.2a96.4 96.4 0 0 1 43 18.8 95 95 0 0 1 28.6 37.7c5.3 12.9 7 26.6 4.8 39.6a83 83 0 0 1-12.9 31.8c-4.5 7-10.2 13.8-16.8 20.2 7.2 5.7 13.6 11.9 19 18.3a82.7 82.7 0 0 1 16.1 30.2 72.5 72.5 0 0 1-.5 39.9 93 93 0 0 1-24.6 40.5 96.4 96.4 0 0 1-40.7 23.3c-11.9 3.4-25 4.4-39.1 3ZM128.3 112a19.1 19.1 0 0 0-38 2 19.1 19.1 0 0 0 38-2Zm3.4 177.7c4.6-4.7 2.7-14.5-4.2-21.3l-15-14.7a4.4 4.4 0 0 1-1.1-4.3c-8-8.1-33.2-32-58.4-37 5.3 25.1 29.7 50 38 57.7 1.5-.4 3.2 0 4.4 1.1l15 14.7c6.9 6.8 16.6 8.5 21.3 3.8Zm0 0" style="stroke:none;fill-rule:nonzero;fill:#1800ad;fill-opacity:1"/></g></g></g><g clip-path="url(#d)"><g clip-path="url(#e)"><g clip-path="url(#f)"><path d="M111.8 105.7c1.7-.6 13-3.5 10.6 5.5-2.6 10-22.5 8-22.5 8-.6-2.4-4.4-19.5 5.1-23.3 8.7-3.4 7.2 8 6.8 9.8Zm126 229.9c-10-1-20.2-3-30.5-6.1-11.3-3.5-23-8.2-34.5-14.2a258.5 258.5 0 0 1-35.5-22.8c-8.3 7.6-23 5.7-33.3-4.4l-15-14.6a4.5 4.5 0 0 1-1.2-4.2c-5-4.8-15.9-15.6-25.1-29.3a87.7 87.7 0 0 1-14.5-32.4c-8.3-.8-16.5.7-24 5.8l-.4.2a13 13 0 0 1-4 8.3c-2.5 2-6 1.7-8-.8-2-2.4-1.8-6 .7-8 1.9-1.6 5.8-3 8.6-2.6 0-.2.2-.4.4-.6l.3-.2a39.5 39.5 0 0 1 25.8-6.5 39.8 39.8 0 0 1 6.4-26.3l.6-.4a13 13 0 0 1 2.4-8.7c2-2.4 5.6-2.8 8.1-.8 2.5 2 2.9 5.6.9 8a13 13 0 0 1-8.2 4.3l-.3.4a35 35 0 0 0-5.2 24c10 1.7 21 6.3 32.6 14 13.8 9 24.8 19.5 29.7 24.5 1.5-.4 3 0 4.3 1.2l15 14.6c8.4 8.4 11.3 20 7.8 28.5a253.3 253.3 0 0 0 34.8 22.3 186 186 0 0 0 33.2 13.7 143 143 0 0 0 29 5.7c13.2 1.3 25.5.4 36.5-2.7a88.5 88.5 0 0 0 37.5-21.5 85.4 85.4 0 0 0 22.7-37.3 65 65 0 0 0 .5-35.9 75.7 75.7 0 0 0-14.8-27.4 115 115 0 0 0-19.8-18.8 3.8 3.8 0 0 1-1.4-3.8c-.5-1.4-.1-3 1-4 7-6.6 13-13.6 17.6-20.8a76.6 76.6 0 0 0 11.8-28.9c2-11.6.4-24-4.4-35.5A85.4 85.4 0 0 0 299.4 57a89.1 89.1 0 0 0-39.6-17.4 98.8 98.8 0 0 0-36.6 1.2c-9.4 1.9-18.9 4.9-28.3 8.8a190.4 190.4 0 0 0-31.5 17.2 257 257 0 0 0-32.7 26.5 26.4 26.4 0 0 1-20 42.1A26.5 26.5 0 1 1 125.6 88c11-10.5 22.4-19.8 33.8-27.4A192 192 0 0 1 192 42.7a166 166 0 0 1 29.6-9.3c13.9-2.8 27.1-3.2 39.3-1.2A96.3 96.3 0 0 1 304 51a95 95 0 0 1 28.6 37.7c5.3 12.9 7 26.6 4.8 39.6a83 83 0 0 1-12.9 31.8c-4.5 7-10.2 13.8-16.8 20.2a128 128 0 0 1 19 18.4 82.8 82.8 0 0 1 16.1 30 72.5 72.5 0 0 1-.5 40 93 93 0 0 1-24.6 40.5 96.4 96.4 0 0 1-40.7 23.3c-11.9 3.4-25 4.4-39.1 3ZM128.3 108a19.1 19.1 0 0 0-38 2 19.1 19.1 0 0 0 38-2Zm3.4 177.6c4.6-4.7 2.7-14.4-4.2-21.3l-15-14.6a4.4 4.4 0 0 1-1.1-4.3c-8-8.2-33.2-32-58.4-37 5.3 25 29.7 49.8 38 57.7 1.5-.5 3.2-.2 4.4 1l15 14.7c6.9 6.8 16.6 8.5 21.3 3.8Zm0 0" style="stroke:none;fill-rule:nonzero;fill:#1800ad;fill-opacity:1"/></g></g></g></svg>