<svg xmlns="http://www.w3.org/2000/svg" width="1123" height="294" viewBox="0 0 282 74"><path d="M115.379 50.055c0-.57-.367-.992-1.125-1.157v-.37c.418 0 1.812.058 2.207.058.336 0 1.687-.059 2.11-.059v.371c-.704.137-1.071.555-1.071 1.157v7.242c0 2.293 1.25 3.59 3.875 3.59 2.254 0 4.012-1.02 4.012-3.418v-7.442c0-.539-.332-.965-1.18-1.129v-.37c.309 0 1.461.058 1.856.058.335 0 1.542-.059 1.855-.059v.371c-.82.196-1.18.563-1.18 1.13v7.042c0 3.16-1.828 4.973-5.777 4.973-3.676 0-5.582-1.676-5.582-4.648Zm15.766 11.422c.859-.16 1.19-.594 1.19-1.13v-10.01c0-.848-.448-1.23-1.214-1.441v-.368c.434.032 1.16.051 1.535.051.336 0 .86-.004 1.215-.05l8.637 10.206v-8.707c0-.539-.34-.965-1.18-1.132v-.368c.309 0 1.422.059 1.817.059.34 0 1.535-.059 1.851-.059v.368c-.828.199-1.226.566-1.226 1.132v12.016h-.52c-.328-.074-.95-.43-1.89-1.469l-7.731-9.047v8.82c0 .536.309.962 1.156 1.13v.37c-.312 0-1.422-.058-1.816-.058-.344 0-1.508.059-1.824.059Zm68.167-2.7h.364c.195.75.62 1.43 1.219 1.825.62.441 1.593.652 2.382.652 1.739 0 2.836-.867 2.836-2.238 0-1.418-1.41-2.153-3.101-3-1.258-.633-3.727-1.68-3.727-4.078 0-2.239 1.695-3.63 4.414-3.63 1.785 0 2.63.442 3.836.387l-.023 2.711h-.371c-.48-1.597-1.926-2.156-3.508-2.156-1.766 0-2.43 1.02-2.43 2.05 0 1.481 1.442 2.227 3.074 2.962 1.836.82 3.832 1.86 3.832 4.172 0 2.191-1.703 3.777-4.82 3.777-1.851 0-2.969-.531-3.941-.652Zm37.125-2.441-3.519-5.672c-.602-.992-1.063-1.52-1.73-1.766v-.37c.484 0 1.785.058 2.156.058.336 0 1.738-.059 2.242-.059v.368c-.445.082-.656.308-.656.648 0 .3.203.687.406 1.023l2.594 4.325 2.496-4.32c.254-.434.433-.864.433-1.15 0-.257-.183-.468-.609-.526v-.368c.422 0 1.316.059 1.598.059.28 0 1.304-.059 1.722-.059v.344c-.96.395-1.562 1.242-2.14 2.227l-3.2 5.37m.22-.679v4.531c0 .45.343 1.016 1.109 1.157v.37c-.43 0-1.829-.058-2.235-.058-.344 0-1.683.059-2.168.059v-.371c.77-.141 1.145-.707 1.145-1.157v-4.332m-65.223-7.46h8.246c.258 0 .703-.028.957-.141h.367l-.054 2.695h-.367c-.313-.848-.637-1.527-2.235-1.527h-3.582v4.695h2.758c.406 0 .894-.035 1.105-.086.618-.137.891-.484 1.016-1.012h.371c-.027.403-.027 1.328-.027 1.606 0 .273.027 1.25.027 1.691h-.37c-.177-.531-.419-.933-1.017-1.082-.21-.054-.71-.101-1.105-.101h-2.758v5.504h3.899c1.699 0 2.191-.711 2.617-1.72l.363.087-.363 2.765c-1.266-.113-2.028-.113-3.461-.113h-4.113c-.399 0-1.856.059-2.278.059v-.371c.746-.141 1.176-.508 1.176-1.223V50.07c0-.633-.336-1.027-1.172-1.168Zm-21.066 1.613c0-.684-.407-1.059-1.203-1.23v-.368c.445 0 1.875.055 2.293.055.351 0 1.82-.055 2.273-.055v.367c-.793.172-1.21.512-1.21 1.23v10.114c0 .684.41 1.055 1.21 1.223v.37c-.45 0-1.86-.058-2.273-.058-.356 0-1.848.059-2.293.059v-.371c.812-.153 1.203-.508 1.203-1.223Zm62.57 0c0-.684-.414-1.059-1.203-1.23v-.368c.437 0 1.875.055 2.285.055.356 0 1.824-.055 2.274-.055v.367c-.79.172-1.204.512-1.204 1.23v10.114c0 .684.407 1.055 1.203 1.223v.37c-.445 0-1.855-.058-2.273-.058-.348 0-1.848.059-2.285.059v-.371c.809-.153 1.203-.508 1.203-1.223Zm11.461-1.555c-4.52 0-5.242-.086-6.168-.145l.008 2.746h.37c.337-1.218 1.009-1.5 1.884-1.5h2.836v10.567c0 .715-.391 1.07-1.203 1.223v.37c.449 0 1.949-.058 2.3-.058.414 0 1.828.059 2.27.059v-.371c-.797-.168-1.203-.54-1.203-1.223V49.688h2.812c.903 0 1.555.308 1.89 1.5h.368l.004-2.747c-.918.059-1.645.145-6.168.145m-36.078 11.668c0 .684.433 1.055 1.23 1.223v.37c-.445 0-1.89-.058-2.3-.058-.356 0-1.77.059-2.211.059v-.371c.738-.141 1.175-.508 1.175-1.223V50.039c0-.629-.343-1.027-1.172-1.168v-.367c.438 0 1.84.055 2.231.055.652 0 2.492-.11 3.215-.11 3.172 0 4.933 1.317 4.933 3.578 0 1.774-1.312 2.973-3.336 3.465 0 0 .461.27.922.809.559.66 2.07 2.836 2.696 3.597.625.766 1.425 1.614 2.28 1.657v.297c-.41.09-1.065.168-1.573.168-1.075 0-1.934-.383-2.766-1.399-.726-.883-1.95-2.715-2.672-3.64-.457-.59-1.02-1.051-2.043-1.22a11 11 0 0 0-.61-.09Zm0-5.43c.426.059 1.043.086 1.656.086 2.48 0 3.262-1.433 3.262-2.707 0-1.793-1.192-2.906-3.363-2.906a10 10 0 0 0-1.555.14Zm-31.414-4.64c-.29-.641-.735-1.114-1.488-1.282v-.375c.468 0 2.097.059 2.453.059.332 0 1.754-.059 2.242-.059v.364c-.434.086-.922.324-.922.765 0 .317.191.746.555 1.555l3.414 7.805 3.23-7.82c.258-.63.442-1.122.442-1.493 0-.414-.38-.7-.918-.812v-.364c.43 0 1.484.059 1.808.059.301 0 1.535-.059 2.008-.059v.375c-.805.22-1.297.664-1.75 1.723l-4.754 11.27h-1.074Zm12.191-35.547c-.547-1.219-1.394-2.106-2.82-2.426v-.707c.89 0 3.84.105 4.516.105.628 0 3.484-.105 4.398-.105v.687c-.813.16-1.738.614-1.738 1.45 0 .593.367 1.41 1.043 2.941l6.476 14.797 6.125-14.824c.48-1.2.836-2.117.836-2.825 0-.789-.723-1.324-1.738-1.539v-.687c.812 0 2.777.105 3.406.105.57 0 2.91-.105 3.8-.105v.668c-1.526.414-2.46 1.297-3.312 3.3l-9.007 21.364h-2.04ZM81.543 36.023c1.176-.273 2-.808 2-2.148V14.289c0-1.285-.77-1.82-2-2.144v-.696c.613 0 3.277.106 3.922.106.75 0 3.535-.106 4.148-.106v.696c-1.175.27-2.043.804-2.043 2.144v8.18h14.516v-8.18c0-1.34-.773-1.875-2.004-2.144v-.696c.617 0 3.36.106 4.102.106.644 0 3.363-.106 3.972-.106v.696c-1.18.27-2.047.804-2.047 2.144v19.586c0 1.285.817 1.824 2.047 2.148v.641c-.61 0-3.328-.055-3.972-.055-.743 0-3.485.055-4.102.055v-.64c1.172-.274 2.004-.81 2.004-2.149v-9.258H87.57v9.258c0 1.34.817 1.824 2.043 2.148v.641c-.613 0-3.398-.055-4.148-.055-.645 0-3.309.055-3.922.055Zm167.922 0c1.504-.273 2.34-.875 2.34-2.253V14.29c0-1.345-.825-1.876-2.278-2.145v-.696c.836 0 3.567.106 4.325.106 1.222 0 4.628-.266 7.277-.266 8.93 0 14.351 5.012 14.351 12.633 0 7.41-5.64 12.898-14.851 12.898-2.652 0-5.8-.21-7.031-.21-.75 0-3.297.105-4.133.105Zm6.355-1.293c.914.168 2.594.27 3.918.27 7.504 0 11.407-4.535 11.407-10.867 0-6.563-4.122-11.18-11.133-11.18-1.434 0-3.223.11-4.192.266Zm-107.44-1.035c0 1.301.816 2.004 2.32 2.328v.696c-.836 0-3.57-.11-4.351-.11-.668 0-3.344.11-4.184.11v-.696c1.395-.27 2.223-.968 2.223-2.328v-19.34c0-1.187-.64-1.94-2.219-2.21v-.696c.84 0 3.484.106 4.23.106 1.227 0 4.711-.203 6.082-.203 6.008 0 9.348 2.496 9.348 6.765 0 3.367-2.492 5.633-6.32 6.567 0 0 .867.507 1.742 1.53 1.063 1.255 3.984 5.462 5.168 6.903 1.18 1.446 2.7 3.055 4.32 3.13v.57a16 16 0 0 1-2.972.312c-2.047 0-3.672-.723-5.258-2.649-1.363-1.671-3.746-5.222-5.11-6.976-.875-1.121-1.925-1.988-3.859-2.313a24 24 0 0 0-1.16-.16Zm0-10.27c.793.106 1.969.157 3.137.157 4.695 0 6.168-2.715 6.168-5.117 0-3.41-2.258-5.512-6.371-5.512-.848 0-2.086.11-2.934.266Zm79.156 10.27c0 1.301.824 2.004 2.328 2.328v.696c-.84 0-3.566-.11-4.351-.11-.676 0-3.348.11-4.188.11v-.696c1.395-.27 2.219-.968 2.219-2.328v-19.34c0-1.187-.645-1.94-2.211-2.21v-.696c.84 0 3.48.106 4.227.106 1.234 0 4.71-.203 6.078-.203 6.015 0 9.347 2.496 9.347 6.765 0 3.367-2.488 5.633-6.316 6.567 0 0 .867.507 1.738 1.53 1.067 1.255 3.996 5.462 5.172 6.903 1.188 1.446 2.703 3.055 4.317 3.13v.57a16 16 0 0 1-2.961.312c-2.051 0-3.684-.723-5.262-2.649-1.363-1.671-3.742-5.222-5.121-6.976-.871-1.121-1.922-1.988-3.852-2.313a17 17 0 0 0-1.164-.16Zm0-10.27c.809.106 1.973.157 3.137.157 4.7 0 6.176-2.715 6.176-5.117 0-3.41-2.262-5.512-6.368-5.512a18.8 18.8 0 0 0-2.945.266Zm-115.562 12.59c1.59-.37 2.465-1.406 3.047-2.788l8.039-19.446c.34-.804.738-2.457.738-2.457h2.25s.402 1.656.738 2.465l8.5 19.488c.602 1.344 1.258 2.313 2.95 2.739l-.005.648c-.921 0-3.78-.05-4.433-.05-.645 0-3.379.05-4.297.05l.004-.648c1.234-.305 1.629-.934 1.629-1.547 0-.52-.215-1.11-.477-1.715l-1.828-4.191h-9.36l-1.671 4.214c-.188.477-.414 1.149-.414 1.606 0 .703.367 1.262 1.77 1.633v.648c-.833 0-3.028-.05-3.544-.05l-3.636.05Zm16.011-9.437-4-9.363-3.722 9.363Zm63.645 9.438c1.59-.371 2.46-1.407 3.039-2.79l8.043-19.445c.344-.804.746-2.457.746-2.457h2.246s.402 1.656.734 2.465l8.5 19.488c.602 1.344 1.262 2.313 2.946 2.739l-.004.648c-.914 0-3.781-.05-4.434-.05-.64 0-3.37.05-4.293.05v-.648c1.25-.305 1.63-.934 1.63-1.547 0-.52-.212-1.11-.466-1.715l-1.836-4.191h-9.359l-1.676 4.214c-.187.477-.41 1.149-.41 1.606 0 .703.367 1.262 1.77 1.633v.648c-.832 0-3.024-.05-3.54-.05l-3.636.05Zm16.008-9.438-4.004-9.363-3.715 9.363Zm0 0" style="stroke:none;fill-rule:nonzero;fill:#1d1d1b;fill-opacity:1"/><path d="M7.309 3.59H63.37v21.285c0 9.75-3.613 30.434-27.82 45.824 0 0-26.23-11.011-28.242-45.824Zm0 0" style="stroke:none;fill-rule:nonzero;fill:#a81d28;fill-opacity:1"/><path d="M0 .005h168.055v-63.47c0-29.076-10.821-90.731-83.401-136.626 0 0-78.628 32.835-84.653 136.625Zm0 0" style="fill:none;stroke-width:.23;stroke-linecap:butt;stroke-linejoin:miter;stroke:#12110c;stroke-opacity:1;stroke-miterlimit:4" transform="matrix(.334 0 0 -.336 7.195 3.533)"/><path d="M49.742 30.941s-.5 1.602-2.722-.046l-7.633-.184s-1 .324-1.133-.727c0 0 .18-2.101.09-2.285 0 0 .043-.594-.961-.594 0 0-1.54.184-1.586-1.187 0 0-.27-1.461 1.863-1.414 0 0 .684.32.727-.55 0 0-.09-5.938-.043-6.392 0 0 .18-.542-.867-.636 0 0-1.497.316-1.68-.684 0 0-.09-1.508.914-1.601 0 0 1.223.093 1.45-.227 0 0 .273.18.226-.91l.047-1.879s.132-.5.906-.45c0 0 1.41.09 1.594-.05 0 0 .312-.406.406-.594 0 0 .726-.043.863.14 0 0 1.09.731 5.223.454 0 0 .64 0 .77.184 0 0 .777.593 1.23-.043 0 0 .683-.141 2.722-.09 0 0 2.23.59 3.77-.688l.504.09s.633 1.047 1.086.73c0 0 1.363-.132 1.59.141 0 0 .453.68.226 2.465 0 0-.27.774 1.047.774 0 0 1.504-.274 1.316 1.14 0 0 .41 1.598-2.085 1.371 0 0-.32.457-.278.778 0 0-.043 5.203-.09 5.8 0 0-.043.82 1.043.774 0 0 1.457-.094 1.508 1.23 0 0 .18 1.735-1.914 1.414 0 0-.637.094-.73.504l-.086 2.285s.043 1.137-1.227.864c-.18 0-7.086.14-7.68-.043 0 0-.316-.043-.406.136m-14.676 7.63s.32-.133.41-.36c0 0 .958-.094 1.087-.23l3.003.23s2.954.227 4.223-.691c0 0 .457 0 .777.14 0 0 .63.137.813.406l1.726-.046s1.004.324.907.964v.82s-.18 1.645.27 1.735h1.323s1.09.504.954 1.14c0 0 .046.91-.907 1.098 0 0-.957.27-1.273.227 0 0-.316.41-.363.914l-.133 5.98s-.094.641.86.547c0 0 1.405-.136 1.816.64 0 0 .363 1.325-.364 1.552l-.543.273-1.187.188s-.492.043-.54.91v1.594s.048 1.101-.82 1.101l-1.27.09s-.32.27-.952.086c0 0-7.727.144-7.996.05l-.91.184s-1 .914-1.817.227l-.637-.504s-.453.094-.632.047c-.18-.047-8.54.09-8.54.09s-1.773.187-1.91-.41c0 0-.226-2.325-.132-2.606 0 0 0-.68-.41-.727 0 0-1.774-.09-1.82-.277 0 0-.954-.68-.68-1.363 0 0 .316-.918 1.269-1.008 0 0 1.457.234 1.457-.18 0 0 .09-.273.09-.73 0 0 .094-5.434.047-5.8 0 0 .133-.684-.457-.684 0 0-.633.18-1.043-.09 0 0-1.09.043-1.317-.825 0 0-.183-.546.09-1.007 0 0 .5-1.004 1.953-.68 0 0 .82.227.907-.363l-.04-2.196s-.187-.59.95-.91c0 0 1.457.41 1.906-.32 0 0 .504-1.008.906-.324 0 0 .867.824 3.23.738 0 0 4.09-.324 4.176-.145 0 0 1.004.145 1.274.461ZM22.72 30.94s-.5 1.602-2.723-.046l-7.633-.184s-1 .32-1.136-.73c0 0 .183-2.098.09-2.282 0 0 .046-.597-.958-.597 0 0-1.539.187-1.586-1.184 0 0-.273-1.465 1.864-1.414 0 0 .68.32.726-.547 0 0-.09-5.937-.047-6.395 0 0 .18-.542-.863-.636 0 0-1.5.316-1.68-.688 0 0-.093-1.504.91-1.597 0 0 1.223.093 1.454-.223 0 0 .273.176.226-.918l.047-1.871s.133-.504.902-.457c0 0 1.415.09 1.598-.047 0 0 .317-.406.402-.594 0 0 .731-.043.864.137 0 0 1.094.734 5.226.457 0 0 .637 0 .774.184 0 0 .77.593 1.222-.047 0 0 .684-.137 2.727-.09 0 0 2.223.594 3.77-.684l.5.094s.636 1.047 1.093.727c0 0 1.36-.137 1.586.14 0 0 .457.684.227 2.465 0 0-.27.774 1.047.774 0 0 1.5-.27 1.316 1.14 0 0 .406 1.598-2.09 1.371 0 0-.32.457-.273.778 0 0-.047 5.203-.09 5.796 0 0-.043.82 1.047.778 0 0 1.453-.098 1.5 1.23 0 0 .18 1.735-1.91 1.414 0 0-.637.094-.73.504l-.087 2.281s.043 1.141-1.23.872c-.18 0-7.082.132-7.672-.047 0 0-.32-.043-.41.136" style="stroke:none;fill-rule:nonzero;fill:#fff;fill-opacity:1"/><path d="M49.742 30.941s-.5 1.602-2.722-.046l-7.633-.184s-1 .324-1.133-.727c0 0 .18-2.101.09-2.285 0 0 .043-.594-.961-.594 0 0-1.54.184-1.586-1.187 0 0-.27-1.461 1.863-1.414 0 0 .684.32.727-.55 0 0-.09-5.938-.043-6.392 0 0 .18-.542-.867-.636 0 0-1.497.316-1.68-.684 0 0-.09-1.508.914-1.601 0 0 1.223.093 1.45-.227 0 0 .273.18.226-.91l.047-1.879s.132-.5.906-.45c0 0 1.41.09 1.594-.05 0 0 .312-.406.406-.594 0 0 .726-.043.863.14 0 0 1.09.731 5.223.454 0 0 .64 0 .77.184 0 0 .777.593 1.23-.043 0 0 .683-.141 2.722-.09 0 0 2.23.59 3.77-.688l.504.09s.633 1.047 1.086.73c0 0 1.363-.132 1.59.141 0 0 .453.68.226 2.465 0 0-.27.774 1.047.774 0 0 1.504-.274 1.316 1.14 0 0 .41 1.598-2.085 1.371 0 0-.32.457-.278.778 0 0-.043 5.203-.09 5.8 0 0-.043.82 1.043.774 0 0 1.457-.094 1.508 1.23 0 0 .18 1.735-1.914 1.414 0 0-.637.094-.73.504l-.086 2.285s.043 1.137-1.227.864c-.18 0-7.086.14-7.68-.043 0 0-.316-.043-.406.136" style="stroke:none;fill-rule:nonzero;fill:#12110c;fill-opacity:1"/><path d="M.002-.001s-1.498-4.772-8.154.128l-22.86.559s-3.006-.967-3.404 2.176c0 0 .55 6.25.257 6.798 0 0 .14 1.769-2.854 1.769 0 0-4.621-.547-4.75 3.538 0 0-.807 4.354 5.58 4.214 0 0 2.024-.955 2.165 1.63 0 0-.27 17.692-.14 19.053 0 0 .56 1.63-2.575 1.898 0 0-4.48-.943-5.03 2.037 0 0-.27 4.492 2.714 4.772 0 0 3.685-.28 4.364.675 0 0 .819-.535.667 2.724l.152 5.587s.386 1.49 2.714 1.338c0 0 4.223-.268 4.773.151 0 0 .936 1.211 1.217 1.77 0 0 2.176.14 2.585-.42 0 0 3.252-2.176 15.641-1.35 0 0 1.92 0 2.305-.547 0 0 2.328-1.769 3.685.128 0 0 2.036.42 8.154.268 0 0 6.68-1.757 11.302 2.06l1.497-.279s1.895-3.12 3.252-2.177c0 0 4.083.396 4.762-.407 0 0 1.369-2.037.69-7.345 0 0-.819-2.316 3.124-2.316 0 0 4.492.815 3.942-3.387 0 0 1.229-4.772-6.247-4.097 0 0-.96-1.362-.819-2.316 0 0-.14-15.504-.269-17.274 0 0-.14-2.455 3.112-2.316 0 0 4.364.28 4.504-3.666 0 0 .538-5.168-5.72-4.214 0 0-1.896-.28-2.177-1.501l-.269-6.798s.129-3.41-3.662-2.584c-.55 0-21.233-.418-23.01.128 0 0-.96.128-1.217-.407Zm0 0" style="fill:none;stroke-width:.01;stroke-linecap:butt;stroke-linejoin:miter;stroke:#12110c;stroke-opacity:1;stroke-miterlimit:4" transform="matrix(.334 0 0 -.336 49.742 30.941)"/><path d="M41.16 12.129s.086.914.086 1.144-.133 13.192-.133 13.192.133 1.008-.726 1.512c0 0-.23.085-.274-.551l.09-13.692s.09-1.695.957-1.605" style="stroke:none;fill-rule:nonzero;fill:#fff;fill-opacity:1"/><path d="M.005 0s.257-2.723.257-3.41c0-.675-.398-39.319-.398-39.319s.398-2.991-2.176-4.493c0 0-.69-.267-.83 1.642l.28 40.808S-2.592.268.005 0Zm0 0" style="fill:none;stroke-width:.012;stroke-linecap:butt;stroke-linejoin:miter;stroke:#12110c;stroke-opacity:1;stroke-miterlimit:4" transform="matrix(.334 0 0 -.336 41.159 12.129)"/><path d="M39.66 28.11s.09-12.876.047-13.102c-.047-.227.043.187.043.187s-.137-2.242.453-3.156c0 0-.183-.773-1.226.184l-.047 1.87s0 1.052-.95 1.009c0 0-1.093-.051-1.59.453 0 0-.273 1.004.766.824 0 0 1.64 0 1.73.68l-.09 6.898s.364 1.145-.905 1.145c0 0-1.551-.098-1.5.863 0 0 .32.82 1.636.547 0 0 .95.18.903 1.097v1.735s-.09.687.816.73h7.086s.363.043.363-.41c0 0-.043-.367-.586-.367l-5.906-.09s-.953.32-1.043-1.098" style="stroke:none;fill-rule:nonzero;fill:#fff;fill-opacity:1"/><path d="M41.023 28.09s-.183.637.5.504h4.68l1.266.277s1.316-.32 0-1.05c0 0-4.176.042-4.54-.048l-1.05-.273s-.45-.184-.856.59" style="stroke:none;fill-rule:nonzero;fill:#fff;fill-opacity:1"/><path d="M.004 0s-.55-1.908 1.498-1.513h14.015l3.79-.826s3.943.966 0 3.143c0 0-12.505-.117-13.593.14 0 0-2.598.686-3.147.826 0 0-1.346.535-2.563-1.77Zm0 0" style="fill:none;stroke-width:.012;stroke-linecap:butt;stroke-linejoin:miter;stroke:#12110c;stroke-opacity:1;stroke-miterlimit:4" transform="matrix(.334 0 0 -.336 41.022 28.09)"/><path d="M48.785 28.73s-.86 0-.816 1.145c0 0 .093.863 1 .863 0 0 .816-.136.73-1.047 0 0-.504-1.14-.914-.96m.64-.458s.407-.453.684-.453c0 0 4.54.407 5.305-.136 0 0 .688-.137.871 0 0 0 .676.543.676.867 0 0-.043.41-.86.176 0 0-5.132.05-5.406.05 0 0-1.41.317-1.27-.504" style="stroke:none;fill-rule:nonzero;fill:#fff;fill-opacity:1"/><path d="M-.001.002s1.228 1.362 2.035 1.362c0 0 13.618-1.223 15.91.407 0 0 2.06.407 2.61 0 0 0 2.024-1.63 2.024-2.596 0 0-.129-1.222-2.574-.535 0 0-15.384-.14-16.203-.14 0 0-4.223-.954-3.802 1.502Zm0 0" style="fill:none;stroke-width:.012;stroke-linecap:butt;stroke-linejoin:miter;stroke:#12110c;stroke-opacity:1;stroke-miterlimit:4" transform="matrix(.334 0 0 -.336 49.422 28.274)"/><path d="M50.012 29.754s0-.367.64-.367l6.352-.047s.598.32.598-.774c0 0 .234-4.976.253-10.457.008-1.629.079-3.34.024-4.925 0 0-.145-.688-.324-.829 0 0 0-.726.773-.453 0 0 .68.047.496 1.102l.047 1.59s-.137.687 1.09.504c0 0 1.227.183 1.273.636 0 0 .364.918-1.09.825h-1.046s-.453.273-.32.824l-.133 6.62s-.094 1.142 1 1.099c0 0 1.132-.051 1.359.316 0 0 .781 1.14-.906 1.05 0 0-1.043-.046-1.274.137 0 0-.18.227-.316 2.375 0 0 .094 1.278-.863 1.137 0 0-6.313.094-6.903-.043 0 0-.633.184-.726-.32m-8.18-18.04-.133 14.661s-.043.68 1.09.816c0 0 1.316.137 1.633 0 0 0 .867-.046 3.09.047 0 0 .547.551.593-.136 0 0 .356-11.868.18-14.34 0 0-.047-1.047-.816-1.094 0 0-3.453.281-3.774 0l-1.36-.36s-.546.044-.503.407" style="stroke:none;fill-rule:nonzero;fill:#fff;fill-opacity:1"/><path d="M49.016 12.45s-.137 6.894-.09 7.12l-.094 5.797-.184 2.012s.278.41.504.137c0 0 1.453-.371 2.364-.227 0 0 2.906.273 3.496-.187 0 0 .453.226.586-.504 0 0 .18-12.778.097-13.008 0 0 .176-1.832.082-2.008 0 0-.039-.41-.808-.047 0 0 .086.367-4.227.223 0 0-1.633-.043-1.726.691m7.222-.18-.043 14.422s.36 1.286.953 1.149c0 0 .086-.277.133-.73l.184-13.747s-.461-2.187-1.227-1.093" style="stroke:none;fill-rule:nonzero;fill:#fff;fill-opacity:1"/><path d="m0 .004-.13-42.997s1.09-3.817 2.856-3.422c0 0 .269.827.397 2.189l.55 40.96S2.305 3.251 0 .003Zm0 0" style="fill:none;stroke-width:.012;stroke-linecap:butt;stroke-linejoin:miter;stroke:#12110c;stroke-opacity:1;stroke-miterlimit:4" transform="matrix(.334 0 0 -.336 56.238 12.267)"/><path d="M50.66 16.586c-.137-.363.774-.41.774-.41l.453.09c.32-.043.64.093.64.093.317.504-.23.774-.23.774l-.18.597c-.047.504 0 4.84 0 4.84.09.227.453.633.453.633 0 .414-.5.324-.5.324l-1.316.047c-.41-.047-.274-.504-.274-.504.454-.23.59-1.054.59-1.054V17.5Zm-6.129 4.246-.09 1.418.407.68c.273.367-.18.644-.18.644l-1.457-.137c-.266-.14 0-.597 0-.597.363-.223.41-.82.41-.82l-.047-2.649.047-1.918c0-.23-.363-.637-.363-.637-.313-.046-.227-.457-.227-.457.094-.226.86-.093.86-.093h1.91c1.82.597 1.547 1.922 1.547 1.922.136 1.32-1.27 1.87-1.27 1.87l-.094.731 1.317 2.098c.226.183.183.367.183.367-.183.504-.91 0-.91 0l-1.633-2.559c-.136-.183-.41.137-.41.137m.047-3.61c.043 1.008.043 2.38.043 2.38.863.683 1.363-.278 1.363-.278 1.13-1.094 0-2.101-.183-2.37-.184-.278-1.09-.048-1.09-.048ZM35.066 38.57s.32-.133.41-.36c0 0 .958-.093 1.087-.23l3.003.23s2.954.227 4.223-.69c0 0 .457 0 .777.14 0 0 .63.137.813.406l1.726-.046s1.004.324.907.964v.82s-.18 1.645.27 1.735h1.323s1.09.504.954 1.14c0 0 .046.91-.907 1.098 0 0-.957.27-1.273.227 0 0-.316.41-.363.914l-.133 5.98s-.094.641.86.547c0 0 1.405-.136 1.816.64 0 0 .363 1.325-.364 1.552l-.543.273-1.187.188s-.492.043-.54.91v1.594s.048 1.101-.82 1.101l-1.27.09s-.32.27-.952.086c0 0-7.727.144-7.996.05l-.91.184s-1 .914-1.817.227l-.637-.504s-.453.094-.632.047c-.18-.047-8.54.09-8.54.09s-1.773.187-1.91-.41c0 0-.226-2.325-.132-2.606 0 0 0-.68-.41-.727 0 0-1.774-.09-1.82-.277 0 0-.954-.68-.68-1.363 0 0 .316-.918 1.269-1.008 0 0 1.457.234 1.457-.18 0 0 .09-.273.09-.73 0 0 .094-5.434.047-5.8 0 0 .133-.684-.457-.684 0 0-.633.18-1.043-.09 0 0-1.09.043-1.317-.825 0 0-.183-.546.09-1.007 0 0 .5-1.004 1.953-.68 0 0 .82.227.907-.363l-.04-2.196s-.187-.59.95-.91c0 0 1.457.41 1.906-.32 0 0 .504-1.008.906-.324 0 0 .867.824 3.23.738 0 0 4.09-.324 4.176-.145 0 0 1.004.145 1.274.461Zm0 0" style="stroke:none;fill-rule:nonzero;fill:#12110c;fill-opacity:1"/><path d="M-.007-.005S.94.403 1.22 1.078c0 0 2.866.279 3.264.686l8.985-.686S22.314.39 26.116 3.126c0 0 1.369 0 2.328-.407 0 0 1.884-.42 2.434-1.222l5.17.14s2.996-.967 2.726-2.864v-2.456s-.55-4.9.82-5.168h3.942s3.264-1.501 2.854-3.399c0 0 .14-2.712-2.702-3.27 0 0-2.878-.804-3.826-.676 0 0-.947-1.222-1.088-2.723l-.409-17.82s-.269-1.898 2.585-1.63c0 0 4.2.396 5.44-1.909 0 0 1.1-3.946-1.088-4.632l-1.614-.815-3.568-.547s-1.474-.128-1.603-2.7v-4.773s.129-3.27-2.468-3.27l-3.802-.268s-.96-.815-2.867-.268c0 0-23.128-.42-23.936-.14l-2.726-.547s-2.983-2.723-5.44-.663l-1.906 1.49s-1.358-.28-1.896-.14c-.55.14-25.573-.28-25.573-.28s-5.312-.546-5.721 1.234c0 0-.679 6.938-.41 7.752 0 0 0 2.037-1.228 2.177 0 0-5.3.268-5.44.815 0 0-2.855 2.037-2.036 4.074 0 0 .96 2.735 3.802 3.003 0 0 4.352-.699 4.352.547 0 0 .281.814.281 2.165 0 0 .27 16.19.14 17.284 0 0 .398 2.05-1.368 2.05 0 0-1.895-.548-3.124.255 0 0-3.264-.128-3.942 2.456 0 0-.55 1.63.269 3.003 0 0 1.497 2.991 5.85 2.037 0 0 2.444-.687 2.713 1.07l-.128 6.542s-.55 1.758 2.866 2.724c0 0 4.34-1.234 5.697.943 0 0 1.498 3.003 2.714.966 0 0 2.598-2.456 9.664-2.188 0 0 12.26.966 12.518.419 0 0 3.006-.42 3.813-1.374Zm0 0" style="fill:none;stroke-width:.01;stroke-linecap:butt;stroke-linejoin:miter;stroke:#12110c;stroke-opacity:1;stroke-miterlimit:4" transform="matrix(.334 0 0 -.336 35.069 38.514)"/><path d="M36.25 56.512s.543-.278.91-.18c.363.09 5.68-.047 5.68-.047s2.312.184 2.68-.14l.542-.18s.227-.274.227-.637c0-.367.047-1.601.047-1.601l.137-.454s-.047-.457 0-12.648c0 0 .18-.953-.41-1.55 0 0 0-.364.18-.321.183.047.093.047.093.047s.816-.23.95.09c0 0 .366 1.093.046 1.734 0 0-.094 1.324.598 1.324 0 0 .27.278.812.137 0 0 1.184.14 1.184.5 0 0 0 .824-.82.687l-1.094.09s-.727.14-.633 1.004c.09.871-.047 7.078-.047 7.078s0 .735 1.137.688c0 0 1.41-.047 1.41.363 0 0 .36.91-.637.961 0 0-1.91-.047-1.773.496 0 0-.137 1.281-.23 1.508 0 0 .187 1.05-.044 1.234 0 0-.136.594-1.36.504 0 0-7.808-.047-9.042.043 0 0-.723-.09-.543-.73m-1.402-.864s.765.133.765.864c0 .73.047 1.144-.41 1.234-.45.09-.95-.043-1.082-.637-.14-.597.086-1.328.727-1.46" style="stroke:none;fill-rule:nonzero;fill:#fff;fill-opacity:1"/><path d="M35.75 55.281s.82-.55 1.137-.457c0 0 4.133.274 5.406.047 1.27-.226.5-.047.5-.047s1.09 0 1.406-.41c0 0 .32-.09.5.23l.68.731s.05.453-.723.406c0 0-7.41 0-7.633.047 0 0-1.41.227-1.273-.547" style="stroke:none;fill-rule:nonzero;fill:#fff;fill-opacity:1"/><path d="M0 .002s2.444 1.641 3.392 1.362c0 0 12.389-.815 16.203-.151 3.814.698 1.497.151 1.497.151s3.264 0 4.212 1.234c0 0 .96.256 1.51-.687l2.023-2.188s.152-1.362-2.164-1.21c0 0-22.181 0-22.86-.152 0 0-4.223-.663-3.814 1.641Zm0 0" style="fill:none;stroke-width:.012;stroke-linecap:butt;stroke-linejoin:miter;stroke:#12110c;stroke-opacity:1;stroke-miterlimit:4" transform="matrix(.334 0 0 -.336 35.75 55.282)"/><path d="M24.988 39.074s.317 0 .27.547l-.09 13.79s.137.913-.633 1.507c0 0-.414.5-.414-.273l.188-14.063s.043-1.05.68-1.508" style="stroke:none;fill-rule:nonzero;fill:#fff;fill-opacity:1"/><path d="M.002-.004s.948 0 .82-1.63L.528-42.72s.421-2.735-1.895-4.493c0 0-1.24-1.49-1.24.815l.561 41.902S-1.917-1.364-.01-.003Zm0 0" style="fill:none;stroke-width:.012;stroke-linecap:butt;stroke-linejoin:miter;stroke:#12110c;stroke-opacity:1;stroke-miterlimit:4" transform="matrix(.334 0 0 -.336 24.987 39.073)"/><path d="M24.262 39.168s-.547 1.004-.504 1.234l-.043 3.055s-.047 1.965 0 2.191c.043.23-.047 5.98-.047 5.98s-.047 1.095 0 1.462v2.465s-.094 1.097.727.82c0 0 7.996-.18 8.496-.043 0 0 .722.137.457.5 0 0 0 .324-.504.23 0 0-3.77.364-7.176.227 0 0-2.273.137-2.41-.133 0 0-.36-.047-.36-1.37 0 0 0-1.231-.09-1.462 0 0 .09-.648-1.046-.777 0 0-1.59.273-1.637-.684 0 0 .227-.683 1.773-.593 0 0 1.137.18.91-.735l.137-6.754s.137-1.191-.636-1.238c0 0-.723-.035-.957.047 0 0-1.317 0-1.227-.77 0 0 .457-.824 1.773-.64 0 0 1 .18 1.047-.957 0 0-.047-2.332.492-2.422 0 0 1.141.043.825.367" style="stroke:none;fill-rule:nonzero;fill:#fff;fill-opacity:1"/><path d="M25.621 54.277s.637.68 1.684.641l6.175.09s.684.047.641.41c0 0-.098.547-.91.363l-7.453-.09-.817.051s-.546-.094.317-1.144Zm0 0" style="stroke:none;fill-rule:nonzero;fill:#fff;fill-opacity:1"/><path d="M-.008.005s1.918-2.037 5.054-1.92l18.496-.269s2.047-.14 1.918-1.222c0 0-.292-1.63-2.714-1.094L.401-4.232l-2.445-.14s-1.626.28.971 3.41Zm0 0" style="fill:none;stroke-width:.012;stroke-linecap:butt;stroke-linejoin:miter;stroke:#12110c;stroke-opacity:1;stroke-miterlimit:4" transform="matrix(.334 0 0 -.336 25.62 54.275)"/><path d="M44.7 53.68s.542 1.05.816 1.195c0 0 .504.59.367-.46l.09-13.15s-.137-.46 0-1.187l-.547-1.004s-.59-.457-.59.274l-.09 14.015Zm0 0" style="stroke:none;fill-rule:nonzero;fill:#fff;fill-opacity:1"/><path d="M.003 0s1.626-3.13 2.456-3.56c0 0 1.498-1.758 1.088 1.373l.27 39.19s-.41 1.362 0 3.527l-1.638 2.991S.412 44.883.412 42.707L.143.932Zm0 0" style="fill:none;stroke-width:.012;stroke-linecap:butt;stroke-linejoin:miter;stroke:#12110c;stroke-opacity:1;stroke-miterlimit:4" transform="matrix(.334 0 0 -.336 44.698 53.68)"/><path d="M34.617 47.426s.047 1.094-.094 2.14c-.074.582.184 3.25-.046 4.614 0 0-.04.46-.997.05 0 0-5.816.133-5.996-.05 0 0-1.59.05-1.726-.774 0 0 .226-6.254.094-6.484 0 0-.094-3.426 0-3.742 0 0 .132-3.153.043-3.516 0 0 .046-.73-.09-1.098 0 0 0-.457.773-.183 0 0 .27.504 1.766.277 0 0 1.093.184 2.14.047 0 0 2.317-.184 2.91 0 0 0 .907-.184 1.176.824l-.047 2.828.274.914.316-.226.133-.688.047-3.015s.184-.547.914-.637c0 0 1.133-.14 1.316-.047.184.09 2.63.227 3.317.09.683-.137.816.457 2.86-.59 0 0 .546.043.546.406 0 0-.184 3.887 0 4.614 0 0 0 7.12-.14 7.62l.093 2.286s.09 1.004-1.496 1.094c0 0 .996.14-5.273-.043 0 0-.996-.047-2.09.453 0 0-.227-.043-.227-.637 0 0 .18-2.144 0-4.246l-.09-2.328Zm0 0" style="stroke:none;fill-rule:nonzero;fill:#fff;fill-opacity:1"/><path d="M30.527 44.188s.137 3.378 0 3.835l-.043.73s.18.5.453.684c0 0 .227.637-.32.594 0 0-1.133-.09-1.406-.047 0 0-.64 0 0-.82 0 0 .227-.324.18-1.14 0 0 0-3.837.093-4.063 0 0 .09-.504-.23-.64l-.547.046-.676.637s-.136.687-.457-.043v-.367l.414-1.094.27-.047s.406.274.77.367h2.136l.77-.367s.32.047.234.457c0 0 .129 1.05-.457 1.188 0 0-.363-.137-.547-.641 0 0-.59-.316-.637.73m10.035-1.23s-1.722-.14-1.765 1.73c0 0-.188 1.286 1.726 2.106 0 0 1.407.684 1.313 1.55 0 0-.18 1.552-1.68.778 0 0-.722-.367-.676-.777 0 0-.23-.504-.503-.41 0 0-.32.086-.18 1.597 0 0 0 .594.683 0l.36.09s1.226 1.004 2.27-.23c0 0 1.136-1.047.316-2.325 0 0-.59-.91-1.633-1.367 0 0-.996-.46-1.223-1.238 0 0 .313-1.371 1.543-.64 0 0 .453.546.723.64 0 0 .363 0 .273-.824l-.09-.68s-.09-.508-.726 0c0 0-.594.227-.73 0m-5.54-.96c.317.23.364.687.364.687.91 2.418 1.683 5.933 1.683 5.933.223.453.637.82.637.82.77.274 0 .5 0 .5-.32.141-1.363-.042-1.363-.042-.547-.098-.32-.274-.32-.274.23-.226.046-1.144.046-1.144-.047-.36-.453-.957-.453-.957-.183-.094-.504.32-.504.32s-.496.183-.543 0c-.047-.188-.363-.36-.363-.36-.547 0-.77 1.36-.77 1.36.317 1.144 0 .96 0 .96-.269.368-1.14.095-1.14.095-.406-.098-.129-.415-.129-.415.496-.085.633-.64.633-.64.226-.317 1.676-6.25 1.676-6.25.14-.278.23-.824.546-.598m-.722 3.016c-.047.23-.367 1.508-.367 1.508l.273.46s.727.04.996.04c.274 0 .32-.223.32-.453 0-.227-.5-1.598-.5-1.598l-.226-.274ZM22.715 30.94s-.496 1.602-2.723-.046l-7.629-.184s-1 .32-1.136-.73c0 0 .18-2.098.09-2.282 0 0 .046-.597-.958-.597 0 0-1.539.187-1.586-1.184 0 0-.273-1.465 1.864-1.414 0 0 .68.32.726-.547 0 0-.09-5.937-.047-6.395 0 0 .18-.542-.863-.636 0 0-1.5.316-1.68-.688 0 0-.093-1.504.907-1.597 0 0 1.226.093 1.457-.223 0 0 .27.176.226-.918l.043-1.871s.137-.504.906-.457c0 0 1.415.09 1.598-.047 0 0 .317-.406.402-.594 0 0 .731-.043.864.137 0 0 1.094.734 5.226.457 0 0 .637 0 .774.184 0 0 .77.593 1.222-.047 0 0 .68-.137 2.727-.09 0 0 2.223.594 3.77-.684l.5.094s.632 1.047 1.093.727c0 0 1.36-.137 1.586.14 0 0 .457.684.227 2.465 0 0-.27.774 1.043.774 0 0 1.5-.27 1.316 1.14 0 0 .41 1.598-2.086 1.371 0 0-.32.457-.273.778 0 0-.047 5.203-.09 5.796 0 0-.043.82 1.043.778 0 0 1.453-.098 1.5 1.23 0 0 .18 1.735-1.906 1.414 0 0-.637.094-.73.504l-.087 2.281s.043 1.141-1.23.872c-.18 0-7.082.132-7.676-.047 0 0-.316-.043-.406.136" style="stroke:none;fill-rule:nonzero;fill:#12110c;fill-opacity:1"/><path d="M-.003-.001s-1.498-4.772-8.154.14L-31.03.685s-2.983-.967-3.392 2.176c0 0 .55 6.25.269 6.798 0 0 .14 1.769-2.866 1.769 0 0-4.621-.559-4.75 3.527 0 0-.82 4.376 5.569 4.225 0 0 2.047-.955 2.187 1.63 0 0-.28 17.692-.14 19.053 0 0 .55 1.618-2.586 1.898 0 0-4.492-.943-5.03 2.048 0 0-.28 4.481 2.726 4.76 0 0 3.661-.279 4.352.664 0 0 .819-.523.678 2.736l.14 5.587s.41 1.49 2.703 1.35c0 0 4.223-.268 4.773.14 0 0 .96 1.21 1.217 1.769 0 0 2.188.128 2.585-.408 0 0 3.264-2.188 15.653-1.362 0 0 1.907 0 2.317-.547 0 0 2.305-1.769 3.662.14 0 0 2.059.407 8.165.268 0 0 6.669-1.758 11.29 2.037l1.497-.28s1.896-3.119 3.276-2.165c0 0 4.071.408 4.762-.407 0 0 1.357-2.049.666-7.345 0 0-.807-2.327 3.136-2.327 0 0 4.492.814 3.942-3.376 0 0 1.217-4.772-6.247-4.097 0 0-.971-1.362-.83-2.316 0 0-.141-15.504-.258-17.274 0 0-.14-2.444 3.124-2.316 0 0 4.352.291 4.492-3.678 0 0 .538-5.156-5.72-4.202 0 0-1.896-.29-2.177-1.501l-.269-6.798s.14-3.41-3.685-2.595c-.538 0-21.21-.408-22.977.14 0 0-.959.127-1.228-.408Zm0 0" style="fill:none;stroke-width:.01;stroke-linecap:butt;stroke-linejoin:miter;stroke:#12110c;stroke-opacity:1;stroke-miterlimit:4" transform="matrix(.334 0 0 -.336 22.72 30.941)"/><path d="M14.133 12.133s.094.91.094 1.14c0 .227-.141 13.192-.141 13.192s.14 1.008-.723 1.508c0 0-.226.093-.273-.543l.094-13.7s.09-1.69.949-1.597" style="stroke:none;fill-rule:nonzero;fill:#fff;fill-opacity:1"/><path d="M.003-.005s.269-2.712.269-3.388c0-.686-.41-39.318-.41-39.318s.41-3.003-2.187-4.505c0 0-.667-.267-.808 1.63l.27 40.82S-2.596.274.002-.006Zm0 0" style="fill:none;stroke-width:.012;stroke-linecap:butt;stroke-linejoin:miter;stroke:#12110c;stroke-opacity:1;stroke-miterlimit:4" transform="matrix(.334 0 0 -.336 14.136 12.131)"/><path d="M12.637 28.11s.086-12.876.043-13.102.043.183.043.183-.133-2.234.457-3.152c0 0-.18-.773-1.23.184l-.04 1.87s0 1.052-.957 1.009c0 0-1.086-.051-1.59.457 0 0-.273 1 .77.82 0 0 1.637 0 1.726.68l-.09 6.898s.364 1.14-.906 1.14c0 0-1.543-.09-1.5.872 0 0 .32.82 1.637.547 0 0 .95.183.91 1.09v1.738s-.098.687.813.73h7.09s.359.043.359-.414c0 0-.043-.36-.586-.36l-5.906-.093s-.957.32-1.043-1.098" style="stroke:none;fill-rule:nonzero;fill:#fff;fill-opacity:1"/><path d="M13.86 28.203s-.18.64.5.5h4.68l1.269.274s1.324-.32 0-1.051c0 0-4.176.05-4.543-.043l-1.04-.274s-.456-.18-.867.594" style="stroke:none;fill-rule:nonzero;fill:#fff;fill-opacity:1"/><path d="M0-.003s-.539-1.92 1.497-1.49h14.015l3.814-.827s3.943.955 0 3.143c0 0-12.518-.151-13.617.14 0 0-2.586.675-3.124.803 0 0-1.369.547-2.585-1.77Zm0 0" style="fill:none;stroke-width:.012;stroke-linecap:butt;stroke-linejoin:miter;stroke:#12110c;stroke-opacity:1;stroke-miterlimit:4" transform="matrix(.334 0 0 -.336 13.86 28.202)"/><path d="M21.633 28.844s-.867 0-.824 1.136c0 0 .093.872 1 .872 0 0 .816-.141.73-1.051 0 0-.504-1.145-.91-.957m.637-.461s.406-.457.683-.457c0 0 4.54.414 5.313-.133 0 0 .68-.137.86 0 0 0 .683.547.683.863 0 0-.043.418-.864.188 0 0-5.136.043-5.406.043 0 0-1.41.32-1.27-.504" style="stroke:none;fill-rule:nonzero;fill:#fff;fill-opacity:1"/><path d="M-.003.004s1.228 1.361 2.047 1.361c0 0 13.606-1.233 15.91.396 0 0 2.06.408 2.598 0 0 0 2.035-1.63 2.035-2.584 0 0-.128-1.234-2.574-.547 0 0-15.384-.14-16.203-.14 0 0-4.223-.942-3.813 1.514Zm0 0" style="fill:none;stroke-width:.012;stroke-linecap:butt;stroke-linejoin:miter;stroke:#12110c;stroke-opacity:1;stroke-miterlimit:4" transform="matrix(.334 0 0 -.336 22.263 28.384)"/><path d="M22.992 29.754s0-.363.63-.363l6.366-.047s.586.316.586-.778c0 0 .235-4.976.254-10.457.012-1.629.082-3.34.02-4.925 0 0-.137-.684-.317-.825 0 0 0-.73.774-.453 0 0 .675.043.496 1.094l.043 1.598s-.137.683 1.093.504c0 0 1.227.18 1.27.636 0 0 .367.914-1.086.82h-1.043s-.457.274-.324.825L31.62 24s-.094 1.14 1 1.102c0 0 1.133-.051 1.36.316 0 0 .777 1.14-.907 1.05 0 0-1.047-.046-1.273.134 0 0-.18.234-.317 2.375 0 0 .09 1.28-.863 1.14 0 0-6.312.09-6.902-.043 0 0-.637.184-.727-.32M14.81 11.719l-.13 14.656s-.042.68 1.09.816c0 0 1.317.137 1.633 0 0 0 .864-.043 3.09.047 0 0 .547.547.59-.136 0 0 .367-11.872.184-14.336 0 0-.043-1.047-.82-1.094 0 0-3.45.273-3.766 0l-1.364-.367s-.546.043-.504.414" style="stroke:none;fill-rule:nonzero;fill:#fff;fill-opacity:1"/><path d="M-.002.004-.13-42.993s1.088-3.817 2.855-3.41c0 0 .269.815.41 2.188l.55 40.96S2.313 3.275-.003.005" style="fill-rule:nonzero;fill:#fff;fill-opacity:1;stroke-width:.012;stroke-linecap:butt;stroke-linejoin:miter;stroke:#12110c;stroke-opacity:1;stroke-miterlimit:4" transform="matrix(.334 0 0 -.336 29.212 12.267)"/><path d="M-.002.004-.13-42.993s1.088-3.817 2.855-3.41c0 0 .269.815.41 2.188l.55 40.96S2.313 3.275-.003.005Zm0 0" style="fill:none;stroke-width:.012;stroke-linecap:butt;stroke-linejoin:miter;stroke:#12110c;stroke-opacity:1;stroke-miterlimit:4" transform="matrix(.334 0 0 -.336 29.212 12.267)"/><path d="M21.992 12.39s-.137 6.891-.094 7.122l-.085 5.8-.18 2.004s.27.414.496.141c0 0 1.453-.363 2.363-.23 0 0 2.906.277 3.496-.18 0 0 .457.226.59-.504 0 0 .18-12.781.09-13.012 0 0 .184-1.824.09-2.004 0 0-.043-.414-.813-.054 0 0 .09.37-4.226.234 0 0-1.633-.047-1.727.684" style="stroke:none;fill-rule:nonzero;fill:#fff;fill-opacity:1"/><path d="m20.59 16.613-.406.871s-1 4.426-1.543 5.336c0 0-.094.914-.864.184 0 0-1.773-5.613-1.863-5.797l-.594-.41s-.355-.504.278-.547l1.68.043s.546.457-.184.965c0 0 .09.73 1.047 3.508 0 0 .27 1.05.586.277l.914-3.246-.274-.957s-.277-.457.137-.5c0 0 .953-.09 1.086.273m2.64.73-.05 4.84-.133.364s-.457.594-.137.64c0 0-.406.274 2.903.32 0 0 1.273.227.957-1.417 0 0-.137-.594-.59.277 0 0-.137.727-1.77.5 0 0-.363-.32-.363-.683v-2.012s-.05-.504.723-.453c0 0 .863.547 1 .316 0 0 .316-.73 0-1.187 0 0-.41-.043-.457.14 0 0-.27.547-1.043.227 0 0-.364-.73-.137-1.324 0 0-.086-1.141.687-1.051 0 0 .907.183.992.46 0 0 .231.548.458-.09l-.227-.78s-.133-.32-.363-.227c0 0-1.547.227-1.73.04l-1.223.14s-.184.457.367.683c0 0 .136.094.136.278" style="stroke:none;fill-rule:nonzero;fill:#12110c;fill-opacity:1"/></svg>