<svg height="193.835637" viewBox="0 0 45.656904 17.108785" width="515.901004" xmlns="http://www.w3.org/2000/svg"><g fill-rule="evenodd" transform="translate(50.243224 182.69921)"><path d="m-42.004446-178.71987 3.431054 5.64126-2.382025 4.72788 1.649512 2.54661h-3.847051l-.363545-1.82133.548027-5.81851h1.099674" fill="#0ca854"/><path d="m-46.596673-178.71987-3.514259 5.64126 2.380219 4.72788-1.645896 2.54661h3.843434l.367162-1.72909-.548027-5.91075h-1.099675" fill="#0ca854"/><path d="m-45.63265-181.15434c0-.77954.605904-1.41258 1.352887-1.41258.746982 0 1.351081.63304 1.351081 1.41258 0 .77953-.604099 1.41257-1.351081 1.41257-.746983 0-1.352887-.63304-1.352887-1.41257" fill="#e83035"/><g fill="#0ca854"><path d="m-35.350332-165.88913 2.125192-.91699v-4.28295h2.363939v-1.53556h-2.363939v-1.64951h3.15795v-1.53195h-5.283142"/><path d="m-31.137925-169.43051c0 2.06189 1.503007 3.70779 4.087603 3.70779 2.59726 0 4.102078-1.6459 4.102078-3.70779 0-2.36936-1.77793-3.80726-4.102078-3.80726-2.311488 0-4.087603 1.4379-4.087603 3.80726zm2.125191-.22428c0-1.07254.64027-2.13242 1.962412-2.13242 1.336612 0 1.976882 1.03275 1.976882 2.13242 0 1.19915-.412376 2.4815-1.976882 2.4815-1.550036 0-1.962412-1.295-1.962412-2.4815"/><path d="m-22.57385-165.88913 2.03657-.91699v-1.71825c0-.76325.08862-1.95698.759641-2.54661.703574-.62219 1.824955-.55707 2.114343-.55888l1.000195-1.50301c-.21342-.0561-1.732708-.0271-1.931663-.0271-1.21543 0-2.049229 1.05264-2.139661 1.72186h-.03074v-1.63143h-1.808675"/><path d="m-17.486047-165.88913 2.034759-.91699v-4.84364h4.512648v-1.48311h-4.512648v-1.97145l-2.034759.59867v1.37278h-.421423v1.48311h.421423"/><path d="m-12.964356-165.88913 2.036565-.91699v-6.26344h-2.036565zm0-8.48992h2.036565v-1.78516h-2.036565zm0 0"/><path d="m-5.098428-173.18532c-.6384641-.12661-1.2624588-.26407-2.2174394-.26407-1.59344 0-3.0675136.68007-3.0675136 2.22829 0 2.59364 3.5377715 1.63142 3.5377715 3.03858 0 .69633-.8193293.8772-1.3348012.8772-.6999579 0-1.370977-.18087-2.0058203-.47206l-.121182 1.53376c.7415559.18267 1.5319464.30566 2.3078675.30566 1.6567489 0 3.2809381-.66921 3.2809381-2.34223 0-2.59184-3.5395769-1.86837-3.5395769-3.00964 0-.61314.6529289-.79582 1.2009604-.79582.7451719 0 1.2009604.11395 1.8231447.30748"/></g></g></svg>